<?xml version="1.0" encoding="UTF-8" standalone="no"?>
<!DOCTYPE svg PUBLIC "-//W3C//DTD SVG 1.1//EN" "http://www.w3.org/Graphics/SVG/1.1/DTD/svg11.dtd">
<svg width="100%" height="100%" viewBox="0 0 722 1294" version="1.1" xmlns="http://www.w3.org/2000/svg" xmlns:xlink="http://www.w3.org/1999/xlink" xml:space="preserve" xmlns:serif="http://www.serif.com/" style="fill-rule:evenodd;clip-rule:evenodd;stroke-linecap:round;stroke-linejoin:round;stroke-miterlimit:1.5;">
    <g transform="matrix(1,0,0,1,-14.3367,-20.0357)">
        <g id="phone">
            <g transform="matrix(1.01601,0,0,7.1691,-0.389592,30.0357)">
                <path d="M714.613,5.062C714.613,2.267 698.62,0 678.892,0L60.058,0C40.33,0 24.337,2.267 24.337,5.062L24.337,177.697L714.613,177.697L714.613,5.062Z" style="fill:rgb(241,241,241);"/>
            </g>
            <g transform="matrix(1.01601,0,0,0.631938,-0.389592,30.0357)">
                <path d="M714.613,42.732C714.613,31.399 711.813,20.53 706.828,12.516C701.844,4.502 695.084,0 688.035,0C578.246,0 160.703,0 50.915,0C43.866,0 37.106,4.502 32.121,12.516C27.137,20.53 24.337,31.399 24.337,42.732C24.337,95.31 24.337,177.697 24.337,177.697L714.613,177.697L714.613,42.732Z" style="fill:rgb(225,229,234);"/>
            </g>
            <g id="card_1" transform="matrix(1,0,0,1,-1.08002e-12,113.272)">
                <g transform="matrix(1,0,0,4.88462,14.3235,-504.798)">
                    <path d="M597.411,137.498C597.411,136.758 595.976,136.049 593.421,135.526C590.867,135.003 587.402,134.709 583.789,134.709L137.564,134.709C133.951,134.709 130.486,135.003 127.932,135.526C125.377,136.049 123.942,136.758 123.942,137.498C123.942,147.755 123.942,182.796 123.942,182.796L597.411,182.796L597.411,137.498Z" style="fill:rgb(204,214,229);"/>
                </g>
                <g id="plant_1">
                    <g transform="matrix(0.580763,0.113601,-0.113601,0.580763,203.416,138.277)">
                        <path d="M375,329.291C375,329.291 340.96,301.394 382.625,270.647C424.29,239.9 483.379,220.961 460.653,202.78C437.926,184.598 353.838,147.478 338.687,203.537C323.536,259.596 346.262,307.322 365.201,329.291C384.14,351.26 375,329.291 375,329.291Z" style="fill:rgb(48,135,108);"/>
                    </g>
                    <g transform="matrix(1,0,0,1,16.1207,38.8775)">
                        <path d="M375,329.291C375,329.291 340.96,301.394 382.625,270.647C424.29,239.9 483.379,220.961 460.653,202.78C437.926,184.598 353.838,147.478 338.687,203.537C323.536,259.596 346.262,307.322 365.201,329.291C384.14,351.26 375,329.291 375,329.291Z" style="fill:rgb(84,149,129);"/>
                    </g>
                    <g transform="matrix(-0.59028,0.0419556,0.0419556,0.59028,565.094,155.553)">
                        <path d="M375,329.291C375,329.291 340.96,301.394 382.625,270.647C424.29,239.9 483.379,220.961 460.653,202.78C437.926,184.598 353.838,147.478 338.687,203.537C323.536,259.596 346.262,307.322 365.201,329.291C384.14,351.26 375,329.291 375,329.291Z" style="fill:rgb(99,167,145);"/>
                    </g>
                </g>
                <g transform="matrix(0.449321,0,0,0.833532,209.546,81.8051)">
                    <path d="M435.653,317.17L300.809,317.17L284.901,418.606L451.562,418.606L435.653,317.17Z" style="fill:rgb(162,173,189);"/>
                </g>
                <g transform="matrix(1,0,0,1.26923,14.3235,217.112)">
                    <path d="M597.411,134.709L123.942,134.709L123.942,172.063C123.942,174.91 125.377,177.64 127.932,179.652C130.486,181.665 133.951,182.796 137.564,182.796L583.789,182.796C587.402,182.796 590.867,181.665 593.421,179.652C595.976,177.64 597.411,174.91 597.411,172.063L597.411,134.709Z" style="fill:rgb(171,180,193);"/>
                </g>
                <g transform="matrix(1.2626,0,0,4.91994,-67.1007,-1313.38)">
                    <path d="M273.222,342.864C273.222,342.143 272.107,341.452 270.121,340.943C268.136,340.433 265.443,340.147 262.636,340.147L208.659,340.147C205.852,340.147 203.159,340.433 201.174,340.943C199.188,341.452 198.073,342.143 198.073,342.864C198.073,344.699 198.073,347.111 198.073,348.945C198.073,349.666 199.188,350.357 201.174,350.866C203.159,351.376 205.852,351.662 208.659,351.662L262.636,351.662C265.443,351.662 268.136,351.376 270.121,350.866C272.107,350.357 273.222,349.666 273.222,348.945C273.222,347.111 273.222,344.699 273.222,342.864Z" style="fill:rgb(54,62,75);"/>
                </g>
            </g>
            <g id="card_2" transform="matrix(1,0,0,1,-1.08002e-12,113.272)">
                <g transform="matrix(1,0,0,4.88462,14.3235,-147.235)">
                    <path d="M597.411,137.498C597.411,136.758 595.976,136.049 593.421,135.526C590.867,135.003 587.402,134.709 583.789,134.709L137.564,134.709C133.951,134.709 130.486,135.003 127.932,135.526C125.377,136.049 123.942,136.758 123.942,137.498C123.942,147.755 123.942,182.796 123.942,182.796L597.411,182.796L597.411,137.498Z" style="fill:rgb(204,214,229);"/>
                </g>
                <g id="plant_2">
                    <g transform="matrix(0.580763,0.113601,-0.113601,0.580763,203.416,495.84)">
                        <path d="M375,329.291C375,329.291 340.96,301.394 382.625,270.647C424.29,239.9 483.379,220.961 460.653,202.78C437.926,184.598 353.838,147.478 338.687,203.537C323.536,259.596 346.262,307.322 365.201,329.291C384.14,351.26 375,329.291 375,329.291Z" style="fill:rgb(48,135,108);"/>
                    </g>
                    <g transform="matrix(1,0,0,1,16.1207,396.441)">
                        <path d="M375,329.291C375,329.291 340.96,301.394 382.625,270.647C424.29,239.9 483.379,220.961 460.653,202.78C437.926,184.598 353.838,147.478 338.687,203.537C323.536,259.596 346.262,307.322 365.201,329.291C384.14,351.26 375,329.291 375,329.291Z" style="fill:rgb(84,149,129);"/>
                    </g>
                    <g transform="matrix(-0.59028,0.0419556,0.0419556,0.59028,565.094,513.117)">
                        <path d="M375,329.291C375,329.291 340.96,301.394 382.625,270.647C424.29,239.9 483.379,220.961 460.653,202.78C437.926,184.598 353.838,147.478 338.687,203.537C323.536,259.596 346.262,307.322 365.201,329.291C384.14,351.26 375,329.291 375,329.291Z" style="fill:rgb(99,167,145);"/>
                    </g>
                </g>
                <g transform="matrix(0.449321,0,0,0.833532,209.546,439.369)">
                    <path d="M435.653,317.17L300.809,317.17L284.901,418.606L451.562,418.606L435.653,317.17Z" style="fill:rgb(162,173,189);"/>
                </g>
                <g transform="matrix(1,0,0,1.26923,14.3235,574.676)">
                    <path d="M597.411,134.709L123.942,134.709L123.942,172.063C123.942,174.91 125.377,177.64 127.932,179.652C130.486,181.665 133.951,182.796 137.564,182.796L583.789,182.796C587.402,182.796 590.867,181.665 593.421,179.652C595.976,177.64 597.411,174.91 597.411,172.063L597.411,134.709Z" style="fill:rgb(171,180,193);"/>
                </g>
                <g transform="matrix(1.2626,0,0,4.91994,-67.1007,-956.176)">
                    <path d="M273.222,342.864C273.222,342.143 272.107,341.452 270.121,340.943C268.136,340.433 265.443,340.147 262.636,340.147L208.659,340.147C205.852,340.147 203.159,340.433 201.174,340.943C199.188,341.452 198.073,342.143 198.073,342.864C198.073,344.699 198.073,347.111 198.073,348.945C198.073,349.666 199.188,350.357 201.174,350.866C203.159,351.376 205.852,351.662 208.659,351.662L262.636,351.662C265.443,351.662 268.136,351.376 270.121,350.866C272.107,350.357 273.222,349.666 273.222,348.945C273.222,347.111 273.222,344.699 273.222,342.864Z" style="fill:rgb(54,62,75);"/>
                </g>
            </g>
            <g id="popup" transform="matrix(1.1791,0,0,1.04872,-118.804,-41.6519)">
                <g transform="matrix(0.915718,0,0,1.54334,255.466,279.52)">
                    <path d="M503.133,327.14C503.133,311.874 494.042,297.234 477.862,286.44C461.681,275.646 439.735,269.582 416.852,269.582L-60.128,269.582C-83.011,269.582 -104.957,275.646 -121.137,286.44C-137.318,297.234 -146.408,311.874 -146.408,327.14L-146.408,627.643L503.133,627.643L503.133,327.14Z" style="fill:url(#_Linear1);"/>
                </g>
                <g transform="matrix(0.915718,0,0,1.2289,255.466,511.791)">
                    <path d="M503.133,341.867C503.133,322.695 494.042,304.309 477.862,290.753C461.681,277.197 439.735,269.582 416.852,269.582L-60.128,269.582C-83.011,269.582 -104.957,277.197 -121.137,290.753C-137.318,304.309 -146.408,322.695 -146.408,341.867L-146.408,594.677C-146.408,603.42 -142.263,611.805 -134.883,617.987C-127.504,624.17 -117.495,627.643 -107.059,627.643L463.784,627.643C474.22,627.643 484.228,624.17 491.608,617.987C498.987,611.805 503.133,603.42 503.133,594.677C503.133,537.558 503.133,418.93 503.133,341.867Z" style="fill:rgb(225,229,234);"/>
                    <clipPath id="_clip2">
                        <path d="M503.133,341.867C503.133,322.695 494.042,304.309 477.862,290.753C461.681,277.197 439.735,269.582 416.852,269.582L-60.128,269.582C-83.011,269.582 -104.957,277.197 -121.137,290.753C-137.318,304.309 -146.408,322.695 -146.408,341.867L-146.408,594.677C-146.408,603.42 -142.263,611.805 -134.883,617.987C-127.504,624.17 -117.495,627.643 -107.059,627.643L463.784,627.643C474.22,627.643 484.228,624.17 491.608,617.987C498.987,611.805 503.133,603.42 503.133,594.677C503.133,537.558 503.133,418.93 503.133,341.867Z"/>
                    </clipPath>
                    <g clip-path="url(#_clip2)">
                        <g id="text" transform="matrix(0.92616,0,0,0.775931,-168.948,-384.143)">
                            <g transform="matrix(5.05162,0,0,1.71765,-815.402,325.814)">
                                <path d="M273.222,345.904C273.222,342.725 272.346,340.147 271.265,340.147L200.03,340.147C198.949,340.147 198.073,342.725 198.073,345.904L198.073,345.905C198.073,349.085 198.949,351.662 200.03,351.662L271.265,351.662C272.346,351.662 273.222,349.085 273.222,345.905L273.222,345.904Z" style="fill:rgb(171,180,193);"/>
                            </g>
                            <g transform="matrix(5.85449,0,0,1.71765,-1004.6,362.877)">
                                <path d="M273.222,345.904C273.222,342.725 272.466,340.147 271.533,340.147C261.497,340.147 209.798,340.147 199.762,340.147C198.829,340.147 198.073,342.725 198.073,345.904L198.073,345.905C198.073,349.085 198.829,351.662 199.762,351.662C209.798,351.662 261.497,351.662 271.533,351.662C272.466,351.662 273.222,349.085 273.222,345.905L273.222,345.904Z" style="fill:rgb(171,180,193);"/>
                            </g>
                            <g transform="matrix(5.05162,0,0,1.71765,-815.402,399.939)">
                                <path d="M273.222,345.904C273.222,342.725 272.346,340.147 271.265,340.147L200.03,340.147C198.949,340.147 198.073,342.725 198.073,345.904L198.073,345.905C198.073,349.085 198.949,351.662 200.03,351.662L271.265,351.662C272.346,351.662 273.222,349.085 273.222,345.905L273.222,345.904Z" style="fill:rgb(171,180,193);"/>
                            </g>
                            <g transform="matrix(3.8955,0,0,1.71765,-542.964,433.037)">
                                <path d="M273.222,345.904C273.222,344.377 272.955,342.913 272.479,341.833C272.002,340.754 271.357,340.147 270.684,340.147C259.192,340.147 212.103,340.147 200.611,340.147C199.938,340.147 199.292,340.754 198.816,341.833C198.34,342.913 198.073,344.377 198.073,345.904L198.073,345.905C198.073,347.432 198.34,348.896 198.816,349.976C199.292,351.055 199.938,351.662 200.611,351.662C212.103,351.662 259.192,351.662 270.684,351.662C271.357,351.662 272.002,351.055 272.479,349.976C272.955,348.896 273.222,347.432 273.222,345.905L273.222,345.904Z" style="fill:rgb(171,180,193);"/>
                            </g>
                        </g>
                        <g id="btn_yes" transform="matrix(1.02499,0,0,0.901676,-206.008,-515.174)">
                            <g transform="matrix(1,0,0,0.861622,3.72317,126.87)">
                                <path d="M480.701,1128.75C480.701,1115.42 470.92,1104.61 458.855,1104.61L283.699,1104.61C271.634,1104.61 261.853,1115.42 261.853,1128.75L261.853,1158.32C261.853,1171.65 271.634,1182.46 283.699,1182.46L458.855,1182.46C470.92,1182.46 480.701,1171.65 480.701,1158.32L480.701,1128.75Z" style="fill:rgb(66,142,118);"/>
                            </g>
                            <g transform="matrix(0.209157,0,0,0.147589,335.614,943.39)">
                                <path d="M480.701,1143.53C480.701,1133.21 477.662,1123.31 472.253,1116.01C466.844,1108.71 459.509,1104.61 451.859,1104.61C409.938,1104.61 332.615,1104.61 290.694,1104.61C283.045,1104.61 275.709,1108.71 270.3,1116.01C264.892,1123.31 261.853,1133.21 261.853,1143.53C261.853,1143.53 261.853,1143.54 261.853,1143.54C261.853,1153.86 264.892,1163.76 270.3,1171.06C275.709,1178.36 283.045,1182.46 290.694,1182.46C332.615,1182.46 409.938,1182.46 451.859,1182.46C459.509,1182.46 466.844,1178.36 472.253,1171.06C477.662,1163.76 480.701,1153.86 480.701,1143.54C480.701,1143.54 480.701,1143.53 480.701,1143.53Z" style="fill:rgb(204,214,229);"/>
                            </g>
                            <g transform="matrix(0.379299,0,0,0.147589,192.671,943.39)">
                                <path d="M480.701,1143.53C480.701,1122.03 473.58,1104.61 464.797,1104.61C424.395,1104.61 318.158,1104.61 277.757,1104.61C268.974,1104.61 261.853,1122.03 261.853,1143.53C261.853,1143.53 261.853,1143.54 261.853,1143.54C261.853,1165.04 268.974,1182.46 277.757,1182.46C318.158,1182.46 424.395,1182.46 464.797,1182.46C473.58,1182.46 480.701,1165.04 480.701,1143.54C480.701,1143.54 480.701,1143.53 480.701,1143.53Z" style="fill:rgb(204,214,229);"/>
                            </g>
                        </g>
                        <g id="btn_no" transform="matrix(0.853627,0,0,0.715163,-141.748,-307.843)">
                            <g transform="matrix(1,0,0,0.778595,3.72317,322.82)">
                                <path d="M480.701,1138.3C480.701,1129.36 477.937,1120.79 473.018,1114.47C468.098,1108.15 461.426,1104.61 454.469,1104.61C412.369,1104.61 330.185,1104.61 288.084,1104.61C281.127,1104.61 274.455,1108.15 269.536,1114.47C264.617,1120.79 261.853,1129.36 261.853,1138.3C261.853,1141.77 261.853,1145.3 261.853,1148.77C261.853,1157.71 264.617,1166.28 269.536,1172.6C274.455,1178.91 281.127,1182.46 288.084,1182.46C330.185,1182.46 412.369,1182.46 454.469,1182.46C461.426,1182.46 468.098,1178.91 473.018,1172.6C477.937,1166.28 480.701,1157.71 480.701,1148.77C480.701,1145.3 480.701,1141.77 480.701,1138.3Z" style="fill:rgb(204,214,229);"/>
                            </g>
                            <g transform="matrix(0.300529,0,0,0.147589,205.499,1044.4)">
                                <path d="M480.701,1143.52C480.701,1122.03 472.144,1104.61 461.588,1104.61C420.144,1104.61 322.41,1104.61 280.966,1104.61C270.41,1104.61 261.853,1122.03 261.853,1143.52C261.853,1143.53 261.853,1143.54 261.853,1143.55C261.853,1165.04 270.41,1182.46 280.966,1182.46C322.41,1182.46 420.144,1182.46 461.588,1182.46C472.144,1182.46 480.701,1165.04 480.701,1143.55C480.701,1143.54 480.701,1143.53 480.701,1143.52Z" style="fill:rgb(66,142,118);"/>
                            </g>
                            <g transform="matrix(0.130388,0,0,0.147589,327.705,1044.4)">
                                <path d="M480.701,1143.52C480.701,1122.03 460.978,1104.61 436.649,1104.61C398.613,1104.61 343.941,1104.61 305.905,1104.61C281.576,1104.61 261.853,1122.03 261.853,1143.52C261.853,1143.53 261.853,1143.54 261.853,1143.55C261.853,1165.04 281.576,1182.46 305.905,1182.46C343.941,1182.46 398.613,1182.46 436.649,1182.46C460.978,1182.46 480.701,1165.04 480.701,1143.55C480.701,1143.54 480.701,1143.53 480.701,1143.52Z" style="fill:rgb(66,142,118);"/>
                            </g>
                            <g transform="matrix(0.270822,0,0,0.147589,335.606,1044.4)">
                                <path d="M480.701,1143.52C480.701,1122.03 471.205,1104.61 459.492,1104.61C417.649,1104.61 324.905,1104.61 283.062,1104.61C271.349,1104.61 261.853,1122.03 261.853,1143.52C261.853,1143.53 261.853,1143.54 261.853,1143.55C261.853,1165.04 271.349,1182.46 283.062,1182.46C324.905,1182.46 417.649,1182.46 459.492,1182.46C471.205,1182.46 480.701,1165.04 480.701,1143.55C480.701,1143.54 480.701,1143.53 480.701,1143.52Z" style="fill:rgb(66,142,118);"/>
                            </g>
                        </g>
                    </g>
                </g>
            </g>
            <g id="logo" transform="matrix(2.32307,0,0,2.32307,-2106.94,-103.548)">
                <g transform="matrix(1.40893,0,0,1.40893,-444.291,-222.311)">
                    <path d="M1061.81,259.13L1070.42,262.144L1075.6,258.524L1082.88,253.04L1086.17,254.663L1086.25,250.947L1087.4,245.591L1093.06,240.426L1095.39,236.652L1091.99,229.959C1092.33,229.65 1091.28,227.382 1091.6,225.194C1092.15,221.438 1093.35,216.832 1088.08,214.924C1080.67,212.244 1077.63,214.716 1077,215.628C1076.37,216.539 1072.94,220.444 1071.38,221.049C1069.82,221.654 1064.8,220.562 1064.8,220.562C1064.8,220.562 1065.98,223.21 1065.54,225.536C1065.1,227.862 1062.22,230.941 1060.68,232.629C1059.14,234.318 1056.76,236.642 1057.2,238.931C1057.65,241.221 1062.39,250.215 1059.18,252.968C1055.96,255.722 1051.27,256.537 1051.27,256.537C1051.27,256.537 1059.31,251.25 1061.81,259.13Z" style="fill:rgb(66,142,118);"/>
                    <clipPath id="_clip3">
                        <path d="M1061.81,259.13L1070.42,262.144L1075.6,258.524L1082.88,253.04L1086.17,254.663L1086.25,250.947L1087.4,245.591L1093.06,240.426L1095.39,236.652L1091.99,229.959C1092.33,229.65 1091.28,227.382 1091.6,225.194C1092.15,221.438 1093.35,216.832 1088.08,214.924C1080.67,212.244 1077.63,214.716 1077,215.628C1076.37,216.539 1072.94,220.444 1071.38,221.049C1069.82,221.654 1064.8,220.562 1064.8,220.562C1064.8,220.562 1065.98,223.21 1065.54,225.536C1065.1,227.862 1062.22,230.941 1060.68,232.629C1059.14,234.318 1056.76,236.642 1057.2,238.931C1057.65,241.221 1062.39,250.215 1059.18,252.968C1055.96,255.722 1051.27,256.537 1051.27,256.537C1051.27,256.537 1059.31,251.25 1061.81,259.13Z"/>
                    </clipPath>
                    <g clip-path="url(#_clip3)">
                        <g transform="matrix(0.707107,0.707107,-0.260518,0.260518,404.623,-581.656)">
                            <path d="M1068.32,294.812C1067.38,293.301 1066.62,291.686 1066.04,290.027C1064.98,286.951 1064.48,283.616 1064.48,280.293C1064.48,273.082 1065.66,262.936 1065.66,255.121C1065.66,252.897 1064.96,251.04 1063.94,249.137C1062.48,246.392 1061.64,244.155 1058.97,242.372C1058.97,242.372 1058.97,242.372 1058.97,242.372L1059.81,233.145C1063.65,235.716 1065.25,239.368 1066.97,243.517C1068.46,247.102 1067.98,250.996 1067.98,254.992C1067.98,262.807 1067.98,273.082 1067.98,280.293C1067.98,281.869 1068.42,283.233 1069.04,284.644C1070.01,286.838 1071.44,288.774 1073.26,290.424L1073.22,299.465C1071.42,300.996 1069.99,302.828 1069.02,304.925C1068.41,306.222 1067.98,307.447 1067.98,308.909C1067.98,316.132 1067.98,326.562 1067.98,334.472C1067.98,338.467 1068.18,342.361 1066.69,345.947C1064.97,350.095 1063.62,354.09 1059.78,356.662L1058.94,347.434C1061.6,345.651 1062.19,343.072 1063.66,340.327C1064.68,338.423 1065.38,336.567 1065.38,334.343C1065.38,326.433 1064.48,316.132 1064.48,308.909C1064.48,305.637 1064.99,302.345 1066.08,299.336C1066.64,297.763 1067.4,296.236 1068.32,294.812Z" style="fill:rgb(33,120,92);"/>
                        </g>
                        <g transform="matrix(-0.707107,-0.707107,0.260518,-0.260518,1747.05,1056.59)">
                            <path d="M1068.32,294.812C1067.38,293.301 1066.62,291.686 1066.04,290.027C1064.98,286.951 1064.48,283.616 1064.48,280.293C1064.48,273.082 1065.69,262.95 1065.69,255.135C1065.69,252.911 1064.99,251.054 1063.97,249.151C1062.5,246.406 1061.66,244.169 1059,242.386C1059,242.386 1059,242.386 1059,242.386L1059.84,233.159C1063.68,235.73 1065.28,239.383 1067,243.531C1068.49,247.116 1069.19,251.139 1069.19,255.135C1069.19,262.95 1067.98,273.082 1067.98,280.293C1067.98,281.869 1068.42,283.233 1069.04,284.644C1070.01,286.838 1071.44,288.774 1073.26,290.424L1073.22,299.465C1071.42,300.996 1069.99,302.828 1069.02,304.925C1068.41,306.222 1067.98,307.447 1067.98,308.909C1067.98,316.132 1069.44,328.038 1069.44,335.948C1069.44,339.943 1068.73,343.966 1067.25,347.552C1065.52,351.7 1064.17,355.695 1060.33,358.267L1059.5,349.039C1062.16,347.256 1062.75,344.677 1064.22,341.932C1065.23,340.028 1065.94,338.172 1065.94,335.948C1065.94,328.038 1064.48,316.132 1064.48,308.909C1064.48,305.637 1064.99,302.345 1066.08,299.336C1066.64,297.763 1067.4,296.236 1068.32,294.812Z" style="fill:white;"/>
                        </g>
                    </g>
                </g>
                <g transform="matrix(1.40893,0,0,1.40893,-444.291,-222.311)">
                    <g transform="matrix(-0.707107,-0.707107,0.260518,-0.260518,1745.54,1054.97)">
                        <path d="M1068.32,294.812C1067.38,293.301 1066.62,291.686 1066.04,290.027C1064.98,286.951 1064.48,283.616 1064.48,280.293C1064.48,273.082 1064.48,262.807 1064.48,254.992C1064.48,252.768 1063.78,250.911 1062.76,249.008C1061.29,246.263 1059.15,243.931 1056.49,242.148C1056.49,242.148 1056.49,242.147 1056.49,242.147L1057.33,232.92C1057.33,232.92 1057.33,232.92 1057.33,232.92C1061.17,235.492 1064.07,239.24 1065.79,243.388C1067.28,246.973 1067.98,250.996 1067.98,254.992C1067.98,262.807 1067.98,273.082 1067.98,280.293C1067.98,281.869 1068.42,283.233 1069.04,284.644C1070.01,286.838 1071.44,288.774 1073.26,290.424C1073.26,290.424 1073.26,290.424 1073.26,290.424L1073.22,299.465C1073.22,299.465 1073.22,299.465 1073.22,299.465C1071.42,300.996 1069.99,302.828 1069.02,304.925C1068.41,306.222 1067.98,307.447 1067.98,308.909C1067.98,316.132 1067.98,326.562 1067.98,334.472C1067.98,338.467 1067.28,342.49 1065.79,346.076C1064.07,350.224 1061.17,353.972 1057.33,356.543C1057.33,356.543 1057.33,356.543 1057.33,356.543L1056.49,347.316C1056.49,347.316 1056.49,347.316 1056.49,347.316C1059.15,345.532 1061.29,343.201 1062.76,340.456C1063.78,338.552 1064.48,336.696 1064.48,334.472L1064.48,308.909C1064.48,305.637 1064.99,302.345 1066.08,299.336C1066.64,297.763 1067.4,296.236 1068.32,294.812Z" style="fill:rgb(54,62,75);"/>
                    </g>
                    <g transform="matrix(0.707107,0.707107,-0.260518,0.260518,406.148,-579.899)">
                        <path d="M1068.32,294.812C1067.38,293.301 1066.62,291.686 1066.04,290.027C1064.98,286.951 1064.48,283.616 1064.48,280.293C1064.48,273.082 1064.48,262.807 1064.48,254.992C1064.48,252.768 1063.78,250.911 1062.76,249.008C1061.29,246.263 1059.15,243.931 1056.49,242.148C1056.49,242.148 1056.49,242.147 1056.49,242.147L1057.33,232.92C1057.33,232.92 1057.33,232.92 1057.33,232.92C1061.17,235.492 1064.07,239.24 1065.79,243.388C1067.28,246.973 1067.98,250.996 1067.98,254.992C1067.98,262.807 1067.98,273.082 1067.98,280.293C1067.98,281.869 1068.42,283.233 1069.04,284.644C1070.01,286.838 1071.44,288.774 1073.26,290.424C1073.26,290.424 1073.26,290.424 1073.26,290.424L1073.22,299.465C1073.22,299.465 1073.22,299.465 1073.22,299.465C1071.42,300.996 1069.99,302.828 1069.02,304.925C1068.41,306.222 1067.98,307.447 1067.98,308.909C1067.98,316.132 1067.98,326.562 1067.98,334.472C1067.98,338.467 1067.28,342.49 1065.79,346.076C1064.07,350.224 1061.17,353.972 1057.33,356.543C1057.33,356.543 1057.33,356.543 1057.33,356.543L1056.49,347.316C1056.49,347.316 1056.49,347.316 1056.49,347.316C1059.15,345.532 1061.29,343.201 1062.76,340.456C1063.78,338.552 1064.48,336.696 1064.48,334.472L1064.48,308.909C1064.48,305.637 1064.99,302.345 1066.08,299.336C1066.64,297.763 1067.4,296.236 1068.32,294.812Z" style="fill:rgb(54,62,75);"/>
                    </g>
                    <g transform="matrix(0.259692,0,0,0.259692,754.645,200.014)">
                        <path d="M1234.49,139.448C1242.16,127.291 1258.3,105.326 1282.23,90.802L1286.49,97.812C1254.51,117.218 1237.32,150.732 1236.69,151.965C1236.12,153.179 1229.72,166.225 1211.52,182.28C1216.92,180.888 1223.05,179.065 1228.96,176.777C1236.46,173.874 1243.64,170.253 1248.31,165.708L1253.76,171.306C1248.44,176.489 1240.34,180.756 1231.78,184.065C1217.61,189.55 1202.25,192.483 1197.63,193.293C1184.21,202.886 1166.59,212.819 1143.68,221.488L1140.78,213.819C1203.44,190.106 1224.67,156.828 1228.6,149.749C1226.88,143.807 1221.77,123.455 1226.18,105.554L1234.14,107.517C1231.36,118.821 1232.83,131.207 1234.49,139.448Z" style="fill:rgb(54,62,75);"/>
                    </g>
                </g>
            </g>
            <g id="frame" transform="matrix(1.1791,0,0,1.04872,-118.804,-41.6519)">
                <path d="M155.592,68.357C146.523,68.357 137.826,72.408 131.413,79.618C125.001,86.828 121.398,96.606 121.398,106.803C121.398,288.815 121.398,1062.64 121.398,1244.66C121.398,1254.85 125.001,1264.63 131.413,1271.84C137.826,1279.05 146.523,1283.1 155.592,1283.1C260.511,1283.1 577.081,1283.1 681.999,1283.1C691.068,1283.1 699.766,1279.05 706.179,1271.84C712.591,1264.63 716.194,1254.85 716.194,1244.66C716.194,1062.64 716.194,288.815 716.194,106.803C716.194,96.606 712.591,86.828 706.179,79.618C699.766,72.408 691.068,68.357 681.999,68.357C577.081,68.357 260.511,68.357 155.592,68.357" style="fill:none;stroke:rgb(54,62,75);stroke-width:17.92px;"/>
            </g>
        </g>
    </g>
    <defs>
        <linearGradient id="_Linear1" x1="0" y1="0" x2="1" y2="0" gradientUnits="userSpaceOnUse" gradientTransform="matrix(6.18282e-15,-67.3595,100.973,4.12458e-15,226.036,375.303)"><stop offset="0" style="stop-color:rgb(54,62,75);stop-opacity:0.2"/><stop offset="1" style="stop-color:rgb(54,62,75);stop-opacity:0"/></linearGradient>
    </defs>
</svg>
