<?xml version="1.0" encoding="UTF-8" standalone="no"?><!DOCTYPE svg PUBLIC "-//W3C//DTD SVG 1.1//EN" "http://www.w3.org/Graphics/SVG/1.1/DTD/svg11.dtd"><svg width="100%" height="100%" viewBox="0 0 566 574" version="1.1" xmlns="http://www.w3.org/2000/svg" xmlns:xlink="http://www.w3.org/1999/xlink" xml:space="preserve" xmlns:serif="http://www.serif.com/" style="fill-rule:evenodd;clip-rule:evenodd;stroke-linejoin:round;stroke-miterlimit:2;"><g><g><g><g><g><g><g><path d="M189.703,386.822c2.454,-4.664 8.233,-6.458 12.897,-4.004c4.664,2.454 6.458,8.233 4.004,12.897c-2.454,4.664 -8.233,6.458 -12.897,4.004c-4.664,-2.454 -6.458,-8.234 -4.004,-12.897Z" style="fill:#363e4b;"/><path d="M214.352,339.979c2.455,-4.664 8.234,-6.458 12.898,-4.003c4.664,2.454 6.458,8.233 4.003,12.897c-2.454,4.664 -8.233,6.458 -12.897,4.004c-4.664,-2.455 -6.458,-8.234 -4.004,-12.898Z" style="fill:#363e4b;"/><path d="M225.798,375.804c2.454,-4.664 8.233,-6.458 12.897,-4.004c4.664,2.454 6.458,8.233 4.003,12.897c-2.454,4.664 -8.233,6.458 -12.897,4.004c-4.664,-2.454 -6.458,-8.234 -4.003,-12.897Z" style="fill:#363e4b;"/><path d="M178.246,350.781c2.454,-4.664 8.233,-6.458 12.897,-4.004c4.664,2.455 6.458,8.234 4.004,12.898c-2.454,4.664 -8.233,6.458 -12.897,4.003c-4.664,-2.454 -6.458,-8.233 -4.004,-12.897Z" style="fill:#363e4b;"/><path d="M206.296,365.542c1.227,-2.332 4.117,-3.229 6.449,-2.002c2.332,1.227 3.229,4.116 2.002,6.448c-1.227,2.332 -4.117,3.229 -6.449,2.002c-2.332,-1.227 -3.229,-4.116 -2.002,-6.448Z" style="fill:#363e4b;"/><path d="M242.304,354.688c1.227,-2.332 4.117,-3.229 6.449,-2.002c2.332,1.227 3.229,4.117 2.002,6.449c-1.228,2.332 -4.117,3.229 -6.449,2.002c-2.332,-1.227 -3.229,-4.117 -2.002,-6.449Z" style="fill:#363e4b;"/><path d="M194.753,329.666c1.227,-2.332 4.116,-3.229 6.448,-2.002c2.332,1.227 3.229,4.116 2.002,6.448c-1.227,2.332 -4.116,3.229 -6.448,2.002c-2.332,-1.227 -3.229,-4.116 -2.002,-6.448Z" style="fill:#363e4b;"/><path d="M217.655,401.53c1.227,-2.332 4.117,-3.229 6.449,-2.002c2.331,1.228 3.228,4.117 2.001,6.449c-1.227,2.332 -4.116,3.229 -6.448,2.002c-2.332,-1.227 -3.229,-4.117 -2.002,-6.449Z" style="fill:#363e4b;"/><path d="M170.103,376.508c1.228,-2.332 4.117,-3.229 6.449,-2.002c2.332,1.227 3.229,4.117 2.002,6.449c-1.227,2.332 -4.117,3.229 -6.449,2.001c-2.332,-1.227 -3.229,-4.116 -2.002,-6.448Z" style="fill:#363e4b;"/></g><g><path d="M214.303,340.073c2.454,-4.664 8.233,-6.458 12.897,-4.003c4.664,2.454 6.458,8.233 4.004,12.897c-2.454,4.664 -8.233,6.458 -12.897,4.004c-4.664,-2.455 -6.458,-8.234 -4.004,-12.898Z" style="fill:#363e4b;"/><path d="M238.952,293.231c2.454,-4.664 8.234,-6.458 12.897,-4.004c4.664,2.455 6.458,8.234 4.004,12.898c-2.454,4.664 -8.233,6.458 -12.897,4.003c-4.664,-2.454 -6.458,-8.233 -4.004,-12.897Z" style="fill:#363e4b;"/><path d="M250.397,329.055c2.455,-4.664 8.234,-6.458 12.898,-4.003c4.664,2.454 6.458,8.233 4.003,12.897c-2.454,4.664 -8.233,6.458 -12.897,4.004c-4.664,-2.455 -6.458,-8.234 -4.004,-12.898Z" style="fill:#363e4b;"/><path d="M202.846,304.033c2.454,-4.664 8.233,-6.458 12.897,-4.004c4.664,2.454 6.458,8.234 4.004,12.897c-2.454,4.664 -8.233,6.458 -12.897,4.004c-4.664,-2.454 -6.458,-8.233 -4.004,-12.897Z" style="fill:#363e4b;"/><path d="M230.896,318.793c1.227,-2.332 4.117,-3.229 6.449,-2.001c2.332,1.227 3.229,4.116 2.002,6.448c-1.228,2.332 -4.117,3.229 -6.449,2.002c-2.332,-1.227 -3.229,-4.117 -2.002,-6.449Z" style="fill:#363e4b;"/><path d="M266.904,307.94c1.227,-2.332 4.117,-3.229 6.449,-2.002c2.332,1.227 3.229,4.117 2.001,6.449c-1.227,2.332 -4.116,3.229 -6.448,2.001c-2.332,-1.227 -3.229,-4.116 -2.002,-6.448Z" style="fill:#363e4b;"/><path d="M219.353,282.917c1.227,-2.332 4.116,-3.229 6.448,-2.001c2.332,1.227 3.229,4.116 2.002,6.448c-1.227,2.332 -4.117,3.229 -6.449,2.002c-2.332,-1.227 -3.229,-4.117 -2.001,-6.449Z" style="fill:#363e4b;"/><path d="M242.255,354.782c1.227,-2.332 4.116,-3.229 6.448,-2.002c2.332,1.227 3.229,4.117 2.002,6.449c-1.227,2.332 -4.117,3.229 -6.448,2.002c-2.332,-1.227 -3.229,-4.117 -2.002,-6.449Z" style="fill:#363e4b;"/><path d="M194.703,329.76c1.227,-2.332 4.117,-3.229 6.449,-2.002c2.332,1.227 3.229,4.116 2.002,6.448c-1.227,2.332 -4.117,3.229 -6.449,2.002c-2.332,-1.227 -3.229,-4.116 -2.002,-6.448Z" style="fill:#363e4b;"/></g></g><g><g><path d="M142.13,361.788c2.455,-4.664 8.234,-6.458 12.898,-4.004c4.663,2.454 6.457,8.233 4.003,12.897c-2.454,4.664 -8.233,6.458 -12.897,4.004c-4.664,-2.454 -6.458,-8.233 -4.004,-12.897Z" style="fill:#363e4b;"/><path d="M166.78,314.946c2.454,-4.664 8.233,-6.458 12.897,-4.004c4.664,2.454 6.458,8.233 4.003,12.897c-2.454,4.664 -8.233,6.458 -12.897,4.004c-4.664,-2.454 -6.458,-8.234 -4.003,-12.897Z" style="fill:#363e4b;"/><path d="M178.225,350.77c2.454,-4.664 8.233,-6.458 12.897,-4.004c4.664,2.454 6.458,8.233 4.004,12.897c-2.455,4.664 -8.234,6.458 -12.898,4.004c-4.664,-2.454 -6.458,-8.233 -4.003,-12.897Z" style="fill:#363e4b;"/><path d="M130.673,325.747c2.454,-4.664 8.234,-6.458 12.897,-4.003c4.664,2.454 6.458,8.233 4.004,12.897c-2.454,4.664 -8.233,6.458 -12.897,4.004c-4.664,-2.455 -6.458,-8.234 -4.004,-12.898Z" style="fill:#363e4b;"/><path d="M158.723,340.508c1.228,-2.332 4.117,-3.229 6.449,-2.002c2.332,1.227 3.229,4.117 2.002,6.449c-1.227,2.332 -4.117,3.229 -6.449,2.001c-2.332,-1.227 -3.229,-4.116 -2.002,-6.448Z" style="fill:#363e4b;"/><path d="M194.731,329.654c1.227,-2.332 4.117,-3.229 6.449,-2.002c2.332,1.228 3.229,4.117 2.002,6.449c-1.227,2.332 -4.117,3.229 -6.449,2.002c-2.332,-1.227 -3.229,-4.117 -2.002,-6.449Z" style="fill:#363e4b;"/><path d="M147.18,304.632c1.227,-2.332 4.116,-3.229 6.448,-2.002c2.332,1.227 3.229,4.117 2.002,6.449c-1.227,2.332 -4.116,3.229 -6.448,2.001c-2.332,-1.227 -3.229,-4.116 -2.002,-6.448Z" style="fill:#363e4b;"/><path d="M170.082,376.496c1.227,-2.331 4.117,-3.228 6.449,-2.001c2.332,1.227 3.229,4.116 2.001,6.448c-1.227,2.332 -4.116,3.229 -6.448,2.002c-2.332,-1.227 -3.229,-4.117 -2.002,-6.449Z" style="fill:#363e4b;"/><path d="M122.531,351.474c1.227,-2.332 4.116,-3.229 6.448,-2.002c2.332,1.227 3.229,4.117 2.002,6.449c-1.227,2.332 -4.117,3.229 -6.449,2.002c-2.332,-1.228 -3.229,-4.117 -2.001,-6.449Z" style="fill:#363e4b;"/></g><g><path d="M166.73,315.04c2.454,-4.664 8.233,-6.458 12.897,-4.004c4.664,2.454 6.458,8.233 4.004,12.897c-2.454,4.664 -8.233,6.458 -12.897,4.004c-4.664,-2.454 -6.458,-8.234 -4.004,-12.897Z" style="fill:#363e4b;"/><path d="M191.379,268.197c2.455,-4.664 8.234,-6.458 12.898,-4.003c4.664,2.454 6.457,8.233 4.003,12.897c-2.454,4.664 -8.233,6.458 -12.897,4.004c-4.664,-2.455 -6.458,-8.234 -4.004,-12.898Z" style="fill:#363e4b;"/><path d="M202.824,304.022c2.455,-4.664 8.234,-6.458 12.898,-4.004c4.664,2.454 6.458,8.233 4.003,12.897c-2.454,4.664 -8.233,6.458 -12.897,4.004c-4.664,-2.454 -6.458,-8.233 -4.004,-12.897Z" style="fill:#363e4b;"/><path d="M155.273,278.999c2.454,-4.664 8.233,-6.458 12.897,-4.004c4.664,2.455 6.458,8.234 4.004,12.898c-2.454,4.664 -8.233,6.458 -12.897,4.003c-4.664,-2.454 -6.458,-8.233 -4.004,-12.897Z" style="fill:#363e4b;"/><path d="M183.323,293.76c1.227,-2.332 4.117,-3.229 6.449,-2.002c2.332,1.227 3.229,4.116 2.002,6.448c-1.227,2.332 -4.117,3.229 -6.449,2.002c-2.332,-1.227 -3.229,-4.116 -2.002,-6.448Z" style="fill:#363e4b;"/><path d="M219.331,282.906c1.227,-2.332 4.117,-3.229 6.449,-2.002c2.332,1.227 3.229,4.117 2.002,6.449c-1.228,2.332 -4.117,3.229 -6.449,2.002c-2.332,-1.227 -3.229,-4.117 -2.002,-6.449Z" style="fill:#363e4b;"/><path d="M171.78,257.884c1.227,-2.332 4.116,-3.229 6.448,-2.002c2.332,1.227 3.229,4.116 2.002,6.448c-1.227,2.332 -4.117,3.229 -6.449,2.002c-2.332,-1.227 -3.229,-4.116 -2.001,-6.448Z" style="fill:#363e4b;"/><path d="M194.682,329.748c1.227,-2.332 4.116,-3.229 6.448,-2.002c2.332,1.228 3.229,4.117 2.002,6.449c-1.227,2.332 -4.116,3.229 -6.448,2.002c-2.332,-1.227 -3.229,-4.117 -2.002,-6.449Z" style="fill:#363e4b;"/><path d="M147.13,304.726c1.227,-2.332 4.117,-3.229 6.449,-2.002c2.332,1.227 3.229,4.117 2.002,6.449c-1.227,2.332 -4.117,3.229 -6.449,2.001c-2.332,-1.227 -3.229,-4.116 -2.002,-6.448Z" style="fill:#363e4b;"/></g></g></g><g><g><g><path d="M238.759,293.599c2.454,-4.664 8.233,-6.458 12.897,-4.004c4.664,2.454 6.458,8.233 4.004,12.897c-2.455,4.664 -8.234,6.458 -12.898,4.004c-4.663,-2.454 -6.457,-8.233 -4.003,-12.897Z" style="fill:#363e4b;"/><path d="M263.408,246.756c2.454,-4.663 8.233,-6.457 12.897,-4.003c4.664,2.454 6.458,8.233 4.004,12.897c-2.454,4.664 -8.233,6.458 -12.897,4.004c-4.664,-2.455 -6.458,-8.234 -4.004,-12.898Z" style="fill:#363e4b;"/><path d="M274.853,282.581c2.454,-4.664 8.233,-6.458 12.897,-4.004c4.664,2.454 6.458,8.233 4.004,12.897c-2.454,4.664 -8.233,6.458 -12.897,4.004c-4.664,-2.454 -6.458,-8.233 -4.004,-12.897Z" style="fill:#363e4b;"/><path d="M227.302,257.558c2.454,-4.664 8.233,-6.458 12.897,-4.003c4.664,2.454 6.458,8.233 4.004,12.897c-2.455,4.664 -8.234,6.458 -12.898,4.004c-4.664,-2.455 -6.458,-8.234 -4.003,-12.898Z" style="fill:#363e4b;"/><path d="M255.352,272.319c1.227,-2.332 4.117,-3.229 6.449,-2.002c2.331,1.227 3.228,4.117 2.001,6.449c-1.227,2.332 -4.116,3.229 -6.448,2.001c-2.332,-1.227 -3.229,-4.116 -2.002,-6.448Z" style="fill:#363e4b;"/><path d="M291.36,261.465c1.227,-2.332 4.116,-3.229 6.448,-2.002c2.332,1.228 3.229,4.117 2.002,6.449c-1.227,2.332 -4.116,3.229 -6.448,2.002c-2.332,-1.227 -3.229,-4.117 -2.002,-6.449Z" style="fill:#363e4b;"/><path d="M243.808,236.443c1.227,-2.332 4.117,-3.229 6.449,-2.002c2.332,1.227 3.229,4.117 2.002,6.449c-1.227,2.331 -4.117,3.228 -6.449,2.001c-2.332,-1.227 -3.229,-4.116 -2.002,-6.448Z" style="fill:#363e4b;"/><path d="M266.711,308.307c1.227,-2.332 4.116,-3.229 6.448,-2.001c2.332,1.227 3.229,4.116 2.002,6.448c-1.227,2.332 -4.117,3.229 -6.449,2.002c-2.332,-1.227 -3.229,-4.117 -2.001,-6.449Z" style="fill:#363e4b;"/><path d="M219.159,283.285c1.227,-2.332 4.117,-3.229 6.449,-2.002c2.332,1.227 3.229,4.117 2.002,6.449c-1.228,2.332 -4.117,3.229 -6.449,2.002c-2.332,-1.228 -3.229,-4.117 -2.002,-6.449Z" style="fill:#363e4b;"/></g><g><path d="M263.359,246.85c2.454,-4.663 8.233,-6.457 12.897,-4.003c4.664,2.454 6.458,8.233 4.004,12.897c-2.455,4.664 -8.234,6.458 -12.898,4.004c-4.664,-2.455 -6.458,-8.234 -4.003,-12.898Z" style="fill:#363e4b;"/><path d="M288.008,200.008c2.454,-4.664 8.233,-6.458 12.897,-4.003c4.664,2.454 6.458,8.233 4.004,12.897c-2.454,4.664 -8.234,6.458 -12.897,4.004c-4.664,-2.455 -6.458,-8.234 -4.004,-12.898Z" style="fill:#363e4b;"/><path d="M299.453,235.833c2.454,-4.664 8.233,-6.458 12.897,-4.004c4.664,2.454 6.458,8.233 4.004,12.897c-2.454,4.664 -8.233,6.458 -12.897,4.004c-4.664,-2.454 -6.458,-8.234 -4.004,-12.897Z" style="fill:#363e4b;"/><path d="M251.902,210.81c2.454,-4.664 8.233,-6.458 12.897,-4.004c4.664,2.455 6.458,8.234 4.003,12.898c-2.454,4.664 -8.233,6.458 -12.897,4.003c-4.664,-2.454 -6.458,-8.233 -4.003,-12.897Z" style="fill:#363e4b;"/><path d="M279.952,225.571c1.227,-2.332 4.116,-3.229 6.448,-2.002c2.332,1.227 3.229,4.116 2.002,6.448c-1.227,2.332 -4.117,3.229 -6.448,2.002c-2.332,-1.227 -3.229,-4.116 -2.002,-6.448Z" style="fill:#363e4b;"/><path d="M315.96,214.717c1.227,-2.332 4.116,-3.229 6.448,-2.002c2.332,1.227 3.229,4.117 2.002,6.449c-1.227,2.332 -4.117,3.229 -6.449,2.002c-2.332,-1.228 -3.229,-4.117 -2.001,-6.449Z" style="fill:#363e4b;"/><path d="M268.408,189.695c1.227,-2.332 4.117,-3.229 6.449,-2.002c2.332,1.227 3.229,4.116 2.002,6.448c-1.228,2.332 -4.117,3.229 -6.449,2.002c-2.332,-1.227 -3.229,-4.117 -2.002,-6.448Z" style="fill:#363e4b;"/><path d="M291.31,261.559c1.227,-2.332 4.117,-3.229 6.449,-2.002c2.332,1.228 3.229,4.117 2.002,6.449c-1.227,2.332 -4.117,3.229 -6.449,2.002c-2.332,-1.227 -3.229,-4.117 -2.002,-6.449Z" style="fill:#363e4b;"/><path d="M243.759,236.537c1.227,-2.332 4.117,-3.229 6.449,-2.002c2.331,1.227 3.228,4.117 2.001,6.449c-1.227,2.331 -4.116,3.228 -6.448,2.001c-2.332,-1.227 -3.229,-4.116 -2.002,-6.448Z" style="fill:#363e4b;"/></g></g><g><g><path d="M191.186,268.565c2.454,-4.664 8.233,-6.458 12.897,-4.004c4.664,2.455 6.458,8.234 4.004,12.898c-2.454,4.663 -8.234,6.457 -12.897,4.003c-4.664,-2.454 -6.458,-8.233 -4.004,-12.897Z" style="fill:#363e4b;"/><path d="M215.835,221.723c2.454,-4.664 8.233,-6.458 12.897,-4.004c4.664,2.454 6.458,8.233 4.004,12.897c-2.454,4.664 -8.233,6.458 -12.897,4.004c-4.664,-2.454 -6.458,-8.233 -4.004,-12.897Z" style="fill:#363e4b;"/><path d="M227.28,257.547c2.455,-4.664 8.234,-6.458 12.898,-4.004c4.663,2.455 6.457,8.234 4.003,12.898c-2.454,4.663 -8.233,6.457 -12.897,4.003c-4.664,-2.454 -6.458,-8.233 -4.004,-12.897Z" style="fill:#363e4b;"/><path d="M179.729,232.525c2.454,-4.664 8.233,-6.458 12.897,-4.004c4.664,2.454 6.458,8.233 4.004,12.897c-2.455,4.664 -8.234,6.458 -12.898,4.004c-4.663,-2.455 -6.457,-8.234 -4.003,-12.897Z" style="fill:#363e4b;"/><path d="M207.779,247.285c1.227,-2.332 4.117,-3.229 6.449,-2.002c2.332,1.227 3.229,4.117 2.001,6.449c-1.227,2.332 -4.116,3.229 -6.448,2.002c-2.332,-1.227 -3.229,-4.117 -2.002,-6.449Z" style="fill:#363e4b;"/><path d="M243.787,236.431c1.227,-2.332 4.117,-3.229 6.449,-2.001c2.331,1.227 3.228,4.116 2.001,6.448c-1.227,2.332 -4.116,3.229 -6.448,2.002c-2.332,-1.227 -3.229,-4.117 -2.002,-6.449Z" style="fill:#363e4b;"/><path d="M196.235,211.409c1.228,-2.332 4.117,-3.229 6.449,-2.002c2.332,1.227 3.229,4.117 2.002,6.449c-1.227,2.332 -4.117,3.229 -6.449,2.002c-2.332,-1.228 -3.229,-4.117 -2.002,-6.449Z" style="fill:#363e4b;"/><path d="M219.138,283.274c1.227,-2.332 4.116,-3.229 6.448,-2.002c2.332,1.227 3.229,4.116 2.002,6.448c-1.227,2.332 -4.117,3.229 -6.449,2.002c-2.332,-1.227 -3.229,-4.116 -2.001,-6.448Z" style="fill:#363e4b;"/><path d="M171.586,258.251c1.227,-2.332 4.117,-3.229 6.449,-2.002c2.332,1.227 3.229,4.117 2.002,6.449c-1.227,2.332 -4.117,3.229 -6.449,2.002c-2.332,-1.227 -3.229,-4.117 -2.002,-6.449Z" style="fill:#363e4b;"/></g><g><path d="M215.786,221.817c2.454,-4.664 8.233,-6.458 12.897,-4.004c4.664,2.454 6.458,8.233 4.004,12.897c-2.455,4.664 -8.234,6.458 -12.898,4.004c-4.664,-2.454 -6.458,-8.233 -4.003,-12.897Z" style="fill:#363e4b;"/><path d="M240.435,174.975c2.454,-4.664 8.233,-6.458 12.897,-4.004c4.664,2.454 6.458,8.233 4.004,12.897c-2.454,4.664 -8.233,6.458 -12.897,4.004c-4.664,-2.454 -6.458,-8.234 -4.004,-12.897Z" style="fill:#363e4b;"/><path d="M251.88,210.799c2.454,-4.664 8.233,-6.458 12.897,-4.004c4.664,2.454 6.458,8.233 4.004,12.897c-2.454,4.664 -8.233,6.458 -12.897,4.004c-4.664,-2.454 -6.458,-8.233 -4.004,-12.897Z" style="fill:#363e4b;"/><path d="M204.329,185.776c2.454,-4.664 8.233,-6.458 12.897,-4.003c4.664,2.454 6.458,8.233 4.004,12.897c-2.455,4.664 -8.234,6.458 -12.898,4.004c-4.664,-2.455 -6.458,-8.234 -4.003,-12.898Z" style="fill:#363e4b;"/><path d="M232.379,200.537c1.227,-2.332 4.116,-3.229 6.448,-2.002c2.332,1.227 3.229,4.117 2.002,6.449c-1.227,2.332 -4.116,3.229 -6.448,2.001c-2.332,-1.227 -3.229,-4.116 -2.002,-6.448Z" style="fill:#363e4b;"/><path d="M268.387,189.683c1.227,-2.332 4.116,-3.229 6.448,-2.002c2.332,1.228 3.229,4.117 2.002,6.449c-1.227,2.332 -4.117,3.229 -6.448,2.002c-2.332,-1.227 -3.229,-4.117 -2.002,-6.449Z" style="fill:#363e4b;"/><path d="M220.835,164.661c1.227,-2.332 4.117,-3.229 6.449,-2.002c2.332,1.227 3.229,4.117 2.002,6.449c-1.227,2.332 -4.117,3.229 -6.449,2.001c-2.332,-1.227 -3.229,-4.116 -2.002,-6.448Z" style="fill:#363e4b;"/><path d="M243.737,236.525c1.228,-2.332 4.117,-3.229 6.449,-2.001c2.332,1.227 3.229,4.116 2.002,6.448c-1.227,2.332 -4.117,3.229 -6.449,2.002c-2.332,-1.227 -3.229,-4.117 -2.002,-6.449Z" style="fill:#363e4b;"/><path d="M196.186,211.503c1.227,-2.332 4.117,-3.229 6.449,-2.002c2.332,1.227 3.229,4.117 2.001,6.449c-1.227,2.332 -4.116,3.229 -6.448,2.002c-2.332,-1.228 -3.229,-4.117 -2.002,-6.449Z" style="fill:#363e4b;"/></g></g></g></g><g><g><g><g><path d="M284.684,436.802c2.454,-4.664 8.233,-6.458 12.897,-4.004c4.664,2.455 6.458,8.234 4.003,12.898c-2.454,4.664 -8.233,6.457 -12.897,4.003c-4.664,-2.454 -6.458,-8.233 -4.003,-12.897Z" style="fill:#363e4b;"/><path d="M309.333,389.96c2.454,-4.664 8.233,-6.458 12.897,-4.004c4.664,2.454 6.458,8.233 4.004,12.897c-2.455,4.664 -8.234,6.458 -12.897,4.004c-4.664,-2.454 -6.458,-8.233 -4.004,-12.897Z" style="fill:#363e4b;"/><path d="M320.778,425.784c2.454,-4.664 8.233,-6.458 12.897,-4.004c4.664,2.455 6.458,8.234 4.004,12.898c-2.454,4.664 -8.233,6.458 -12.897,4.003c-4.664,-2.454 -6.458,-8.233 -4.004,-12.897Z" style="fill:#363e4b;"/><path d="M273.227,400.762c2.454,-4.664 8.233,-6.458 12.897,-4.004c4.664,2.454 6.458,8.233 4.003,12.897c-2.454,4.664 -8.233,6.458 -12.897,4.004c-4.664,-2.454 -6.458,-8.233 -4.003,-12.897Z" style="fill:#363e4b;"/><path d="M301.277,415.522c1.227,-2.332 4.116,-3.229 6.448,-2.002c2.332,1.227 3.229,4.117 2.002,6.449c-1.227,2.332 -4.117,3.229 -6.448,2.002c-2.332,-1.227 -3.229,-4.117 -2.002,-6.449Z" style="fill:#363e4b;"/><path d="M337.285,404.669c1.227,-2.332 4.116,-3.229 6.448,-2.002c2.332,1.227 3.229,4.116 2.002,6.448c-1.227,2.332 -4.117,3.229 -6.449,2.002c-2.332,-1.227 -3.229,-4.117 -2.001,-6.448Z" style="fill:#363e4b;"/><path d="M289.733,379.646c1.227,-2.332 4.117,-3.229 6.449,-2.002c2.332,1.227 3.229,4.117 2.002,6.449c-1.228,2.332 -4.117,3.229 -6.449,2.002c-2.332,-1.227 -3.229,-4.117 -2.002,-6.449Z" style="fill:#363e4b;"/><path d="M312.635,451.511c1.227,-2.332 4.117,-3.229 6.449,-2.002c2.332,1.227 3.229,4.117 2.002,6.449c-1.227,2.331 -4.117,3.228 -6.449,2.001c-2.332,-1.227 -3.229,-4.116 -2.002,-6.448Z" style="fill:#363e4b;"/><path d="M265.084,426.488c1.227,-2.332 4.117,-3.229 6.448,-2.002c2.332,1.228 3.229,4.117 2.002,6.449c-1.227,2.332 -4.116,3.229 -6.448,2.002c-2.332,-1.227 -3.229,-4.117 -2.002,-6.449Z" style="fill:#363e4b;"/></g><g><path d="M309.283,390.054c2.455,-4.664 8.234,-6.458 12.898,-4.004c4.664,2.454 6.458,8.233 4.003,12.897c-2.454,4.664 -8.233,6.458 -12.897,4.004c-4.664,-2.454 -6.458,-8.233 -4.004,-12.897Z" style="fill:#363e4b;"/><path d="M333.933,343.212c2.454,-4.664 8.233,-6.458 12.897,-4.004c4.664,2.454 6.458,8.233 4.004,12.897c-2.455,4.664 -8.234,6.458 -12.898,4.004c-4.664,-2.454 -6.458,-8.233 -4.003,-12.897Z" style="fill:#363e4b;"/><path d="M345.378,379.036c2.454,-4.664 8.233,-6.458 12.897,-4.004c4.664,2.454 6.458,8.233 4.004,12.897c-2.455,4.664 -8.234,6.458 -12.898,4.004c-4.664,-2.454 -6.458,-8.233 -4.003,-12.897Z" style="fill:#363e4b;"/><path d="M297.826,354.013c2.455,-4.664 8.234,-6.458 12.898,-4.003c4.663,2.454 6.457,8.233 4.003,12.897c-2.454,4.664 -8.233,6.458 -12.897,4.004c-4.664,-2.455 -6.458,-8.234 -4.004,-12.898Z" style="fill:#363e4b;"/><path d="M325.876,368.774c1.228,-2.332 4.117,-3.229 6.449,-2.002c2.332,1.227 3.229,4.117 2.002,6.449c-1.227,2.332 -4.117,3.229 -6.449,2.002c-2.332,-1.228 -3.229,-4.117 -2.002,-6.449Z" style="fill:#363e4b;"/><path d="M361.884,357.92c1.227,-2.332 4.117,-3.229 6.449,-2.002c2.332,1.228 3.229,4.117 2.002,6.449c-1.227,2.332 -4.117,3.229 -6.449,2.002c-2.332,-1.227 -3.229,-4.117 -2.002,-6.449Z" style="fill:#363e4b;"/><path d="M314.333,332.898c1.227,-2.332 4.117,-3.229 6.449,-2.002c2.332,1.227 3.228,4.117 2.001,6.449c-1.227,2.332 -4.116,3.229 -6.448,2.001c-2.332,-1.227 -3.229,-4.116 -2.002,-6.448Z" style="fill:#363e4b;"/><path d="M337.235,404.763c1.227,-2.332 4.117,-3.229 6.449,-2.002c2.332,1.227 3.229,4.116 2.002,6.448c-1.228,2.332 -4.117,3.229 -6.449,2.002c-2.332,-1.227 -3.229,-4.117 -2.002,-6.448Z" style="fill:#363e4b;"/><path d="M289.684,379.74c1.227,-2.332 4.116,-3.229 6.448,-2.002c2.332,1.227 3.229,4.117 2.002,6.449c-1.227,2.332 -4.117,3.229 -6.449,2.002c-2.331,-1.227 -3.228,-4.117 -2.001,-6.449Z" style="fill:#363e4b;"/></g></g><g><g><path d="M237.111,411.768c2.454,-4.664 8.233,-6.458 12.897,-4.003c4.664,2.454 6.458,8.233 4.004,12.897c-2.455,4.664 -8.234,6.458 -12.898,4.003c-4.664,-2.454 -6.458,-8.233 -4.003,-12.897Z" style="fill:#363e4b;"/><path d="M261.76,364.926c2.454,-4.664 8.233,-6.458 12.897,-4.004c4.664,2.455 6.458,8.234 4.004,12.898c-2.454,4.664 -8.233,6.458 -12.897,4.003c-4.664,-2.454 -6.458,-8.233 -4.004,-12.897Z" style="fill:#363e4b;"/><path d="M273.205,400.75c2.454,-4.664 8.233,-6.458 12.897,-4.003c4.664,2.454 6.458,8.233 4.004,12.897c-2.454,4.664 -8.233,6.458 -12.897,4.004c-4.664,-2.455 -6.458,-8.234 -4.004,-12.898Z" style="fill:#363e4b;"/><path d="M225.654,375.728c2.454,-4.664 8.233,-6.458 12.897,-4.004c4.664,2.454 6.458,8.233 4.004,12.897c-2.455,4.664 -8.234,6.458 -12.898,4.004c-4.664,-2.454 -6.458,-8.233 -4.003,-12.897Z" style="fill:#363e4b;"/><path d="M253.704,390.488c1.227,-2.332 4.116,-3.229 6.448,-2.001c2.332,1.227 3.229,4.116 2.002,6.448c-1.227,2.332 -4.116,3.229 -6.448,2.002c-2.332,-1.227 -3.229,-4.117 -2.002,-6.449Z" style="fill:#363e4b;"/><path d="M289.712,379.635c1.227,-2.332 4.116,-3.229 6.448,-2.002c2.332,1.227 3.229,4.117 2.002,6.449c-1.227,2.332 -4.117,3.228 -6.449,2.001c-2.331,-1.227 -3.228,-4.116 -2.001,-6.448Z" style="fill:#363e4b;"/><path d="M242.16,354.612c1.227,-2.332 4.117,-3.229 6.449,-2.002c2.332,1.228 3.229,4.117 2.002,6.449c-1.227,2.332 -4.117,3.229 -6.449,2.002c-2.332,-1.227 -3.229,-4.117 -2.002,-6.449Z" style="fill:#363e4b;"/><path d="M265.062,426.477c1.228,-2.332 4.117,-3.229 6.449,-2.002c2.332,1.227 3.229,4.117 2.002,6.449c-1.227,2.332 -4.117,3.229 -6.449,2.002c-2.332,-1.228 -3.229,-4.117 -2.002,-6.449Z" style="fill:#363e4b;"/><path d="M217.511,401.454c1.227,-2.331 4.117,-3.228 6.449,-2.001c2.332,1.227 3.229,4.116 2.001,6.448c-1.227,2.332 -4.116,3.229 -6.448,2.002c-2.332,-1.227 -3.229,-4.117 -2.002,-6.449Z" style="fill:#363e4b;"/></g><g><path d="M261.71,365.02c2.455,-4.664 8.234,-6.458 12.898,-4.004c4.664,2.455 6.458,8.234 4.003,12.898c-2.454,4.664 -8.233,6.458 -12.897,4.003c-4.664,-2.454 -6.458,-8.233 -4.004,-12.897Z" style="fill:#363e4b;"/><path d="M286.36,318.178c2.454,-4.664 8.233,-6.458 12.897,-4.004c4.664,2.454 6.458,8.233 4.004,12.897c-2.455,4.664 -8.234,6.458 -12.898,4.004c-4.664,-2.454 -6.458,-8.233 -4.003,-12.897Z" style="fill:#363e4b;"/><path d="M297.805,354.002c2.454,-4.664 8.233,-6.458 12.897,-4.004c4.664,2.455 6.458,8.234 4.004,12.898c-2.455,4.664 -8.234,6.458 -12.897,4.003c-4.664,-2.454 -6.458,-8.233 -4.004,-12.897Z" style="fill:#363e4b;"/><path d="M250.253,328.98c2.455,-4.664 8.234,-6.458 12.898,-4.004c4.664,2.454 6.458,8.233 4.003,12.897c-2.454,4.664 -8.233,6.458 -12.897,4.004c-4.664,-2.454 -6.458,-8.233 -4.004,-12.897Z" style="fill:#363e4b;"/><path d="M278.304,343.74c1.227,-2.332 4.116,-3.229 6.448,-2.002c2.332,1.227 3.229,4.117 2.002,6.449c-1.227,2.332 -4.117,3.229 -6.449,2.002c-2.332,-1.227 -3.229,-4.117 -2.001,-6.449Z" style="fill:#363e4b;"/><path d="M314.311,332.887c1.228,-2.332 4.117,-3.229 6.449,-2.002c2.332,1.227 3.229,4.116 2.002,6.448c-1.227,2.332 -4.117,3.229 -6.449,2.002c-2.332,-1.227 -3.229,-4.116 -2.002,-6.448Z" style="fill:#363e4b;"/><path d="M266.76,307.864c1.227,-2.332 4.117,-3.229 6.449,-2.002c2.332,1.227 3.229,4.117 2.001,6.449c-1.227,2.332 -4.116,3.229 -6.448,2.002c-2.332,-1.227 -3.229,-4.117 -2.002,-6.449Z" style="fill:#363e4b;"/><path d="M289.662,379.729c1.227,-2.332 4.117,-3.229 6.449,-2.002c2.332,1.227 3.229,4.117 2.002,6.449c-1.227,2.332 -4.117,3.228 -6.449,2.001c-2.332,-1.227 -3.229,-4.116 -2.002,-6.448Z" style="fill:#363e4b;"/><path d="M242.111,354.706c1.227,-2.332 4.116,-3.229 6.448,-2.002c2.332,1.228 3.229,4.117 2.002,6.449c-1.227,2.332 -4.116,3.229 -6.448,2.002c-2.332,-1.227 -3.229,-4.117 -2.002,-6.449Z" style="fill:#363e4b;"/></g></g></g><g><g><g><path d="M333.739,343.579c2.454,-4.664 8.234,-6.458 12.897,-4.003c4.664,2.454 6.458,8.233 4.004,12.897c-2.454,4.664 -8.233,6.458 -12.897,4.003c-4.664,-2.454 -6.458,-8.233 -4.004,-12.897Z" style="fill:#363e4b;"/><path d="M358.388,296.737c2.455,-4.664 8.234,-6.458 12.898,-4.004c4.664,2.455 6.458,8.234 4.003,12.898c-2.454,4.663 -8.233,6.457 -12.897,4.003c-4.664,-2.454 -6.458,-8.233 -4.004,-12.897Z" style="fill:#363e4b;"/><path d="M369.834,332.561c2.454,-4.664 8.233,-6.458 12.897,-4.003c4.664,2.454 6.458,8.233 4.003,12.897c-2.454,4.664 -8.233,6.458 -12.897,4.003c-4.664,-2.454 -6.458,-8.233 -4.003,-12.897Z" style="fill:#363e4b;"/><path d="M322.282,307.539c2.454,-4.664 8.233,-6.458 12.897,-4.004c4.664,2.454 6.458,8.233 4.004,12.897c-2.454,4.664 -8.233,6.458 -12.897,4.004c-4.664,-2.454 -6.458,-8.233 -4.004,-12.897Z" style="fill:#363e4b;"/><path d="M350.332,322.299c1.227,-2.332 4.117,-3.229 6.449,-2.002c2.332,1.228 3.229,4.117 2.002,6.449c-1.227,2.332 -4.117,3.229 -6.449,2.002c-2.332,-1.227 -3.229,-4.117 -2.002,-6.449Z" style="fill:#363e4b;"/><path d="M386.34,311.446c1.227,-2.332 4.117,-3.229 6.449,-2.002c2.332,1.227 3.229,4.117 2.002,6.448c-1.227,2.332 -4.117,3.229 -6.449,2.002c-2.332,-1.227 -3.229,-4.116 -2.002,-6.448Z" style="fill:#363e4b;"/><path d="M338.789,286.423c1.227,-2.332 4.116,-3.229 6.448,-2.002c2.332,1.228 3.229,4.117 2.002,6.449c-1.227,2.332 -4.116,3.229 -6.448,2.002c-2.332,-1.227 -3.229,-4.117 -2.002,-6.449Z" style="fill:#363e4b;"/><path d="M361.691,358.288c1.227,-2.332 4.117,-3.229 6.449,-2.002c2.332,1.227 3.228,4.117 2.001,6.449c-1.227,2.332 -4.116,3.229 -6.448,2.002c-2.332,-1.228 -3.229,-4.117 -2.002,-6.449Z" style="fill:#363e4b;"/><path d="M314.139,333.265c1.228,-2.332 4.117,-3.229 6.449,-2.001c2.332,1.227 3.229,4.116 2.002,6.448c-1.227,2.332 -4.117,3.229 -6.449,2.002c-2.332,-1.227 -3.229,-4.117 -2.002,-6.449Z" style="fill:#363e4b;"/></g><g><path d="M358.339,296.831c2.454,-4.664 8.233,-6.458 12.897,-4.004c4.664,2.455 6.458,8.234 4.004,12.898c-2.454,4.663 -8.233,6.457 -12.897,4.003c-4.664,-2.454 -6.458,-8.233 -4.004,-12.897Z" style="fill:#363e4b;"/><path d="M382.988,249.989c2.455,-4.664 8.234,-6.458 12.897,-4.004c4.664,2.454 6.458,8.233 4.004,12.897c-2.454,4.664 -8.233,6.458 -12.897,4.004c-4.664,-2.454 -6.458,-8.233 -4.004,-12.897Z" style="fill:#363e4b;"/><path d="M394.433,285.813c2.455,-4.664 8.234,-6.458 12.898,-4.004c4.664,2.455 6.458,8.234 4.003,12.898c-2.454,4.664 -8.233,6.458 -12.897,4.003c-4.664,-2.454 -6.458,-8.233 -4.004,-12.897Z" style="fill:#363e4b;"/><path d="M346.882,260.791c2.454,-4.664 8.233,-6.458 12.897,-4.004c4.664,2.454 6.458,8.233 4.004,12.897c-2.454,4.664 -8.233,6.458 -12.897,4.004c-4.664,-2.454 -6.458,-8.234 -4.004,-12.897Z" style="fill:#363e4b;"/><path d="M374.932,275.551c1.227,-2.332 4.117,-3.229 6.449,-2.002c2.332,1.227 3.229,4.117 2.002,6.449c-1.228,2.332 -4.117,3.229 -6.449,2.002c-2.332,-1.227 -3.229,-4.117 -2.002,-6.449Z" style="fill:#363e4b;"/><path d="M410.94,264.697c1.227,-2.331 4.117,-3.228 6.449,-2.001c2.332,1.227 3.229,4.116 2.001,6.448c-1.227,2.332 -4.116,3.229 -6.448,2.002c-2.332,-1.227 -3.229,-4.117 -2.002,-6.449Z" style="fill:#363e4b;"/><path d="M363.389,239.675c1.227,-2.332 4.116,-3.229 6.448,-2.002c2.332,1.227 3.229,4.117 2.002,6.449c-1.227,2.332 -4.117,3.229 -6.449,2.002c-2.332,-1.227 -3.229,-4.117 -2.001,-6.449Z" style="fill:#363e4b;"/><path d="M386.291,311.54c1.227,-2.332 4.116,-3.229 6.448,-2.002c2.332,1.227 3.229,4.117 2.002,6.448c-1.227,2.332 -4.116,3.229 -6.448,2.002c-2.332,-1.227 -3.229,-4.116 -2.002,-6.448Z" style="fill:#363e4b;"/><path d="M338.739,286.517c1.227,-2.332 4.117,-3.229 6.449,-2.002c2.332,1.228 3.229,4.117 2.002,6.449c-1.227,2.332 -4.117,3.229 -6.449,2.002c-2.332,-1.227 -3.229,-4.117 -2.002,-6.449Z" style="fill:#363e4b;"/></g></g><g><g><path d="M286.166,318.545c2.455,-4.664 8.234,-6.457 12.898,-4.003c4.663,2.454 6.457,8.233 4.003,12.897c-2.454,4.664 -8.233,6.458 -12.897,4.004c-4.664,-2.455 -6.458,-8.234 -4.004,-12.898Z" style="fill:#363e4b;"/><path d="M310.816,271.703c2.454,-4.664 8.233,-6.458 12.897,-4.003c4.664,2.454 6.458,8.233 4.003,12.897c-2.454,4.664 -8.233,6.458 -12.897,4.003c-4.664,-2.454 -6.458,-8.233 -4.003,-12.897Z" style="fill:#363e4b;"/><path d="M322.261,307.527c2.454,-4.663 8.233,-6.457 12.897,-4.003c4.664,2.454 6.458,8.233 4.004,12.897c-2.455,4.664 -8.234,6.458 -12.898,4.004c-4.664,-2.455 -6.458,-8.234 -4.003,-12.898Z" style="fill:#363e4b;"/><path d="M274.709,282.505c2.454,-4.664 8.234,-6.458 12.897,-4.004c4.664,2.455 6.458,8.234 4.004,12.898c-2.454,4.664 -8.233,6.457 -12.897,4.003c-4.664,-2.454 -6.458,-8.233 -4.004,-12.897Z" style="fill:#363e4b;"/><path d="M302.759,297.266c1.228,-2.332 4.117,-3.229 6.449,-2.002c2.332,1.227 3.229,4.116 2.002,6.448c-1.227,2.332 -4.117,3.229 -6.449,2.002c-2.332,-1.227 -3.229,-4.117 -2.002,-6.448Z" style="fill:#363e4b;"/><path d="M338.767,286.412c1.227,-2.332 4.117,-3.229 6.449,-2.002c2.332,1.227 3.229,4.117 2.002,6.449c-1.227,2.332 -4.117,3.229 -6.449,2.002c-2.332,-1.228 -3.229,-4.117 -2.002,-6.449Z" style="fill:#363e4b;"/><path d="M291.216,261.389c1.227,-2.332 4.116,-3.228 6.448,-2.001c2.332,1.227 3.229,4.116 2.002,6.448c-1.227,2.332 -4.116,3.229 -6.448,2.002c-2.332,-1.227 -3.229,-4.117 -2.002,-6.449Z" style="fill:#363e4b;"/><path d="M314.118,333.254c1.227,-2.332 4.117,-3.229 6.449,-2.002c2.332,1.227 3.229,4.117 2.001,6.449c-1.227,2.332 -4.116,3.229 -6.448,2.002c-2.332,-1.227 -3.229,-4.117 -2.002,-6.449Z" style="fill:#363e4b;"/><path d="M266.567,308.232c1.227,-2.332 4.116,-3.229 6.448,-2.002c2.332,1.227 3.229,4.116 2.002,6.448c-1.227,2.332 -4.117,3.229 -6.449,2.002c-2.332,-1.227 -3.229,-4.116 -2.001,-6.448Z" style="fill:#363e4b;"/></g><g><path d="M310.766,271.797c2.454,-4.664 8.233,-6.458 12.897,-4.003c4.664,2.454 6.458,8.233 4.004,12.897c-2.454,4.664 -8.233,6.458 -12.897,4.003c-4.664,-2.454 -6.458,-8.233 -4.004,-12.897Z" style="fill:#363e4b;"/><path d="M335.415,224.955c2.455,-4.664 8.234,-6.458 12.898,-4.004c4.664,2.455 6.458,8.234 4.003,12.898c-2.454,4.664 -8.233,6.457 -12.897,4.003c-4.664,-2.454 -6.458,-8.233 -4.004,-12.897Z" style="fill:#363e4b;"/><path d="M346.86,260.779c2.455,-4.664 8.234,-6.458 12.898,-4.003c4.664,2.454 6.458,8.233 4.003,12.897c-2.454,4.664 -8.233,6.458 -12.897,4.004c-4.664,-2.455 -6.458,-8.234 -4.004,-12.898Z" style="fill:#363e4b;"/><path d="M299.309,235.757c2.454,-4.664 8.233,-6.458 12.897,-4.004c4.664,2.454 6.458,8.233 4.004,12.897c-2.454,4.664 -8.233,6.458 -12.897,4.004c-4.664,-2.454 -6.458,-8.233 -4.004,-12.897Z" style="fill:#363e4b;"/><path d="M327.359,250.517c1.227,-2.332 4.117,-3.229 6.449,-2.002c2.332,1.228 3.229,4.117 2.002,6.449c-1.227,2.332 -4.117,3.229 -6.449,2.002c-2.332,-1.227 -3.229,-4.117 -2.002,-6.449Z" style="fill:#363e4b;"/><path d="M363.367,239.664c1.227,-2.332 4.117,-3.229 6.449,-2.002c2.332,1.227 3.229,4.117 2.002,6.449c-1.228,2.331 -4.117,3.228 -6.449,2.001c-2.332,-1.227 -3.229,-4.116 -2.002,-6.448Z" style="fill:#363e4b;"/><path d="M315.816,214.641c1.227,-2.332 4.116,-3.229 6.448,-2.002c2.332,1.228 3.229,4.117 2.002,6.449c-1.227,2.332 -4.117,3.229 -6.449,2.002c-2.332,-1.227 -3.228,-4.117 -2.001,-6.449Z" style="fill:#363e4b;"/><path d="M338.718,286.506c1.227,-2.332 4.116,-3.229 6.448,-2.002c2.332,1.227 3.229,4.117 2.002,6.449c-1.227,2.332 -4.116,3.229 -6.448,2.002c-2.332,-1.228 -3.229,-4.117 -2.002,-6.449Z" style="fill:#363e4b;"/><path d="M291.166,261.483c1.227,-2.332 4.117,-3.228 6.449,-2.001c2.332,1.227 3.229,4.116 2.002,6.448c-1.227,2.332 -4.117,3.229 -6.449,2.002c-2.332,-1.227 -3.229,-4.117 -2.002,-6.449Z" style="fill:#363e4b;"/></g></g></g></g></g><g><g><g><g><g><g><path d="M67.722,501.44c2.454,-4.664 8.234,-6.458 12.897,-4.004c4.664,2.454 6.458,8.233 4.004,12.897c-2.454,4.664 -8.233,6.458 -12.897,4.004c-4.664,-2.454 -6.458,-8.233 -4.004,-12.897Z" style="fill:#363e4b;"/><path d="M92.371,454.597c2.455,-4.664 8.234,-6.458 12.898,-4.003c4.664,2.454 6.458,8.233 4.003,12.897c-2.454,4.664 -8.233,6.458 -12.897,4.004c-4.664,-2.455 -6.458,-8.234 -4.004,-12.898Z" style="fill:#363e4b;"/><path d="M103.817,490.422c2.454,-4.664 8.233,-6.458 12.897,-4.004c4.664,2.454 6.458,8.233 4.003,12.897c-2.454,4.664 -8.233,6.458 -12.897,4.004c-4.664,-2.454 -6.458,-8.233 -4.003,-12.897Z" style="fill:#363e4b;"/><path d="M56.265,465.399c2.454,-4.664 8.233,-6.458 12.897,-4.003c4.664,2.454 6.458,8.233 4.004,12.897c-2.454,4.664 -8.233,6.458 -12.897,4.003c-4.664,-2.454 -6.458,-8.233 -4.004,-12.897Z" style="fill:#363e4b;"/><path d="M84.315,480.16c1.227,-2.332 4.117,-3.229 6.449,-2.002c2.332,1.227 3.229,4.117 2.002,6.449c-1.227,2.331 -4.117,3.228 -6.449,2.001c-2.332,-1.227 -3.229,-4.116 -2.002,-6.448Z" style="fill:#363e4b;"/><path d="M120.323,469.306c1.227,-2.332 4.117,-3.229 6.449,-2.002c2.332,1.227 3.229,4.117 2.002,6.449c-1.227,2.332 -4.117,3.229 -6.449,2.002c-2.332,-1.227 -3.229,-4.117 -2.002,-6.449Z" style="fill:#363e4b;"/><path d="M72.772,444.284c1.227,-2.332 4.116,-3.229 6.448,-2.002c2.332,1.227 3.229,4.116 2.002,6.448c-1.227,2.332 -4.116,3.229 -6.448,2.002c-2.332,-1.227 -3.229,-4.116 -2.002,-6.448Z" style="fill:#363e4b;"/><path d="M95.674,516.148c1.227,-2.332 4.117,-3.229 6.449,-2.002c2.332,1.228 3.229,4.117 2.001,6.449c-1.227,2.332 -4.116,3.229 -6.448,2.002c-2.332,-1.227 -3.229,-4.117 -2.002,-6.449Z" style="fill:#363e4b;"/><path d="M48.122,491.126c1.228,-2.332 4.117,-3.229 6.449,-2.002c2.332,1.227 3.229,4.117 2.002,6.449c-1.227,2.332 -4.117,3.229 -6.449,2.001c-2.332,-1.227 -3.229,-4.116 -2.002,-6.448Z" style="fill:#363e4b;"/></g><g><path d="M92.322,454.691c2.454,-4.664 8.233,-6.458 12.897,-4.003c4.664,2.454 6.458,8.233 4.004,12.897c-2.454,4.664 -8.233,6.458 -12.897,4.004c-4.664,-2.455 -6.458,-8.234 -4.004,-12.898Z" style="fill:#363e4b;"/><path d="M116.971,407.849c2.455,-4.664 8.234,-6.458 12.898,-4.003c4.663,2.454 6.457,8.233 4.003,12.897c-2.454,4.664 -8.233,6.458 -12.897,4.003c-4.664,-2.454 -6.458,-8.233 -4.004,-12.897Z" style="fill:#363e4b;"/><path d="M128.416,443.673c2.455,-4.663 8.234,-6.457 12.898,-4.003c4.664,2.454 6.458,8.233 4.003,12.897c-2.454,4.664 -8.233,6.458 -12.897,4.004c-4.664,-2.455 -6.458,-8.234 -4.004,-12.898Z" style="fill:#363e4b;"/><path d="M80.865,418.651c2.454,-4.664 8.233,-6.458 12.897,-4.004c4.664,2.455 6.458,8.234 4.004,12.898c-2.454,4.663 -8.233,6.457 -12.897,4.003c-4.664,-2.454 -6.458,-8.233 -4.004,-12.897Z" style="fill:#363e4b;"/><path d="M108.915,433.412c1.227,-2.332 4.117,-3.229 6.449,-2.002c2.332,1.227 3.229,4.116 2.002,6.448c-1.228,2.332 -4.117,3.229 -6.449,2.002c-2.332,-1.227 -3.229,-4.117 -2.002,-6.448Z" style="fill:#363e4b;"/><path d="M144.923,422.558c1.227,-2.332 4.117,-3.229 6.449,-2.002c2.332,1.227 3.229,4.117 2.001,6.449c-1.227,2.332 -4.116,3.229 -6.448,2.002c-2.332,-1.228 -3.229,-4.117 -2.002,-6.449Z" style="fill:#363e4b;"/><path d="M97.372,397.535c1.227,-2.332 4.116,-3.229 6.448,-2.001c2.332,1.227 3.229,4.116 2.002,6.448c-1.227,2.332 -4.117,3.229 -6.449,2.002c-2.332,-1.227 -3.229,-4.117 -2.001,-6.449Z" style="fill:#363e4b;"/><path d="M120.274,469.4c1.227,-2.332 4.116,-3.229 6.448,-2.002c2.332,1.227 3.229,4.117 2.002,6.449c-1.227,2.332 -4.116,3.229 -6.448,2.002c-2.332,-1.227 -3.229,-4.117 -2.002,-6.449Z" style="fill:#363e4b;"/><path d="M72.722,444.378c1.227,-2.332 4.117,-3.229 6.449,-2.002c2.332,1.227 3.229,4.116 2.002,6.448c-1.227,2.332 -4.117,3.229 -6.449,2.002c-2.332,-1.227 -3.229,-4.116 -2.002,-6.448Z" style="fill:#363e4b;"/></g></g><g><g><path d="M20.149,476.406c2.455,-4.664 8.234,-6.458 12.898,-4.004c4.663,2.454 6.457,8.233 4.003,12.897c-2.454,4.664 -8.233,6.458 -12.897,4.004c-4.664,-2.454 -6.458,-8.233 -4.004,-12.897Z" style="fill:#363e4b;"/><path d="M44.799,429.564c2.454,-4.664 8.233,-6.458 12.897,-4.004c4.664,2.454 6.458,8.233 4.003,12.897c-2.454,4.664 -8.233,6.458 -12.897,4.004c-4.664,-2.454 -6.458,-8.233 -4.003,-12.897Z" style="fill:#363e4b;"/><path d="M56.244,465.388c2.454,-4.664 8.233,-6.458 12.897,-4.004c4.664,2.454 6.458,8.234 4.004,12.897c-2.455,4.664 -8.234,6.458 -12.898,4.004c-4.664,-2.454 -6.458,-8.233 -4.003,-12.897Z" style="fill:#363e4b;"/><path d="M8.692,440.365c2.454,-4.664 8.234,-6.457 12.897,-4.003c4.664,2.454 6.458,8.233 4.004,12.897c-2.454,4.664 -8.233,6.458 -12.897,4.004c-4.664,-2.455 -6.458,-8.234 -4.004,-12.898Z" style="fill:#363e4b;"/><path d="M36.742,455.126c1.228,-2.332 4.117,-3.229 6.449,-2.002c2.332,1.227 3.229,4.117 2.002,6.449c-1.227,2.332 -4.117,3.229 -6.449,2.002c-2.332,-1.228 -3.229,-4.117 -2.002,-6.449Z" style="fill:#363e4b;"/><path d="M72.75,444.272c1.227,-2.332 4.117,-3.229 6.449,-2.001c2.332,1.227 3.229,4.116 2.002,6.448c-1.227,2.332 -4.117,3.229 -6.449,2.002c-2.332,-1.227 -3.229,-4.117 -2.002,-6.449Z" style="fill:#363e4b;"/><path d="M25.199,419.25c1.227,-2.332 4.117,-3.229 6.448,-2.002c2.332,1.227 3.229,4.117 2.002,6.449c-1.227,2.332 -4.116,3.229 -6.448,2.002c-2.332,-1.228 -3.229,-4.117 -2.002,-6.449Z" style="fill:#363e4b;"/><path d="M48.101,491.115c1.227,-2.332 4.117,-3.229 6.449,-2.002c2.332,1.227 3.229,4.116 2.001,6.448c-1.227,2.332 -4.116,3.229 -6.448,2.002c-2.332,-1.227 -3.229,-4.116 -2.002,-6.448Z" style="fill:#363e4b;"/><path d="M0.55,466.092c1.227,-2.332 4.116,-3.229 6.448,-2.002c2.332,1.227 3.229,4.117 2.002,6.449c-1.227,2.332 -4.117,3.229 -6.449,2.002c-2.332,-1.227 -3.229,-4.117 -2.001,-6.449Z" style="fill:#363e4b;"/></g><g><path d="M44.749,429.658c2.454,-4.664 8.233,-6.458 12.897,-4.004c4.664,2.454 6.458,8.233 4.004,12.897c-2.454,4.664 -8.233,6.458 -12.897,4.004c-4.664,-2.454 -6.458,-8.233 -4.004,-12.897Z" style="fill:#363e4b;"/><path d="M69.398,382.815c2.455,-4.664 8.234,-6.457 12.898,-4.003c4.664,2.454 6.458,8.233 4.003,12.897c-2.454,4.664 -8.233,6.458 -12.897,4.004c-4.664,-2.455 -6.458,-8.234 -4.004,-12.898Z" style="fill:#363e4b;"/><path d="M80.843,418.64c2.455,-4.664 8.234,-6.458 12.898,-4.004c4.664,2.454 6.458,8.233 4.003,12.897c-2.454,4.664 -8.233,6.458 -12.897,4.004c-4.664,-2.454 -6.458,-8.233 -4.004,-12.897Z" style="fill:#363e4b;"/><path d="M33.292,393.617c2.454,-4.664 8.233,-6.458 12.897,-4.003c4.664,2.454 6.458,8.233 4.004,12.897c-2.454,4.664 -8.233,6.458 -12.897,4.003c-4.664,-2.454 -6.458,-8.233 -4.004,-12.897Z" style="fill:#363e4b;"/><path d="M61.342,408.378c1.227,-2.332 4.117,-3.229 6.449,-2.002c2.332,1.227 3.229,4.117 2.002,6.449c-1.227,2.331 -4.117,3.228 -6.449,2.001c-2.332,-1.227 -3.229,-4.116 -2.002,-6.448Z" style="fill:#363e4b;"/><path d="M97.35,397.524c1.227,-2.332 4.117,-3.229 6.449,-2.002c2.332,1.227 3.229,4.117 2.002,6.449c-1.228,2.332 -4.117,3.229 -6.449,2.002c-2.332,-1.227 -3.229,-4.117 -2.002,-6.449Z" style="fill:#363e4b;"/><path d="M49.799,372.502c1.227,-2.332 4.116,-3.229 6.448,-2.002c2.332,1.227 3.229,4.117 2.002,6.448c-1.227,2.332 -4.117,3.229 -6.449,2.002c-2.331,-1.227 -3.228,-4.116 -2.001,-6.448Z" style="fill:#363e4b;"/><path d="M72.701,444.366c1.227,-2.332 4.116,-3.229 6.448,-2.001c2.332,1.227 3.229,4.116 2.002,6.448c-1.227,2.332 -4.116,3.229 -6.448,2.002c-2.332,-1.227 -3.229,-4.117 -2.002,-6.449Z" style="fill:#363e4b;"/><path d="M25.149,419.344c1.228,-2.332 4.117,-3.229 6.449,-2.002c2.332,1.227 3.229,4.117 2.002,6.449c-1.227,2.332 -4.117,3.229 -6.449,2.002c-2.332,-1.228 -3.229,-4.117 -2.002,-6.449Z" style="fill:#363e4b;"/></g></g></g><g><g><g><path d="M116.778,408.217c2.454,-4.664 8.233,-6.458 12.897,-4.004c4.664,2.454 6.458,8.233 4.004,12.897c-2.455,4.664 -8.234,6.458 -12.898,4.004c-4.663,-2.454 -6.457,-8.233 -4.003,-12.897Z" style="fill:#363e4b;"/><path d="M141.427,361.375c2.454,-4.664 8.233,-6.458 12.897,-4.004c4.664,2.454 6.458,8.233 4.004,12.897c-2.454,4.664 -8.233,6.458 -12.897,4.004c-4.664,-2.454 -6.458,-8.233 -4.004,-12.897Z" style="fill:#363e4b;"/><path d="M152.872,397.199c2.454,-4.664 8.234,-6.458 12.897,-4.004c4.664,2.454 6.458,8.233 4.004,12.897c-2.454,4.664 -8.233,6.458 -12.897,4.004c-4.664,-2.454 -6.458,-8.233 -4.004,-12.897Z" style="fill:#363e4b;"/><path d="M105.321,372.176c2.454,-4.664 8.233,-6.458 12.897,-4.003c4.664,2.454 6.458,8.233 4.004,12.897c-2.455,4.664 -8.234,6.458 -12.898,4.004c-4.664,-2.455 -6.457,-8.234 -4.003,-12.898Z" style="fill:#363e4b;"/><path d="M133.371,386.937c1.227,-2.332 4.117,-3.229 6.449,-2.002c2.332,1.227 3.229,4.117 2.001,6.449c-1.227,2.332 -4.116,3.229 -6.448,2.002c-2.332,-1.228 -3.229,-4.117 -2.002,-6.449Z" style="fill:#363e4b;"/><path d="M169.379,376.083c1.227,-2.332 4.116,-3.229 6.448,-2.002c2.332,1.228 3.229,4.117 2.002,6.449c-1.227,2.332 -4.116,3.229 -6.448,2.002c-2.332,-1.227 -3.229,-4.117 -2.002,-6.449Z" style="fill:#363e4b;"/><path d="M121.827,351.061c1.227,-2.332 4.117,-3.229 6.449,-2.002c2.332,1.227 3.229,4.117 2.002,6.449c-1.227,2.332 -4.117,3.229 -6.449,2.001c-2.332,-1.227 -3.229,-4.116 -2.002,-6.448Z" style="fill:#363e4b;"/><path d="M144.73,422.926c1.227,-2.332 4.116,-3.229 6.448,-2.002c2.332,1.227 3.229,4.116 2.002,6.448c-1.227,2.332 -4.117,3.229 -6.449,2.002c-2.332,-1.227 -3.229,-4.117 -2.001,-6.448Z" style="fill:#363e4b;"/><path d="M97.178,397.903c1.227,-2.332 4.117,-3.229 6.449,-2.002c2.332,1.227 3.229,4.117 2.002,6.449c-1.228,2.332 -4.117,3.229 -6.449,2.002c-2.332,-1.227 -3.229,-4.117 -2.002,-6.449Z" style="fill:#363e4b;"/></g><g><path d="M141.378,361.469c2.454,-4.664 8.233,-6.458 12.897,-4.004c4.664,2.454 6.458,8.233 4.004,12.897c-2.455,4.664 -8.234,6.458 -12.898,4.004c-4.664,-2.454 -6.458,-8.233 -4.003,-12.897Z" style="fill:#363e4b;"/><path d="M166.027,314.626c2.454,-4.664 8.233,-6.458 12.897,-4.003c4.664,2.454 6.458,8.233 4.004,12.897c-2.454,4.664 -8.234,6.458 -12.897,4.004c-4.664,-2.455 -6.458,-8.234 -4.004,-12.898Z" style="fill:#363e4b;"/><path d="M177.472,350.451c2.454,-4.664 8.233,-6.458 12.897,-4.004c4.664,2.454 6.458,8.233 4.004,12.897c-2.454,4.664 -8.233,6.458 -12.897,4.004c-4.664,-2.454 -6.458,-8.233 -4.004,-12.897Z" style="fill:#363e4b;"/><path d="M129.921,325.428c2.454,-4.664 8.233,-6.458 12.897,-4.004c4.664,2.455 6.458,8.234 4.003,12.898c-2.454,4.664 -8.233,6.458 -12.897,4.003c-4.664,-2.454 -6.458,-8.233 -4.003,-12.897Z" style="fill:#363e4b;"/><path d="M157.971,340.189c1.227,-2.332 4.116,-3.229 6.448,-2.002c2.332,1.227 3.229,4.117 2.002,6.448c-1.227,2.332 -4.116,3.229 -6.448,2.002c-2.332,-1.227 -3.229,-4.116 -2.002,-6.448Z" style="fill:#363e4b;"/><path d="M193.979,329.335c1.227,-2.332 4.116,-3.229 6.448,-2.002c2.332,1.227 3.229,4.117 2.002,6.449c-1.227,2.332 -4.117,3.229 -6.449,2.002c-2.332,-1.227 -3.229,-4.117 -2.001,-6.449Z" style="fill:#363e4b;"/><path d="M146.427,304.313c1.227,-2.332 4.117,-3.229 6.449,-2.002c2.332,1.227 3.229,4.116 2.002,6.448c-1.228,2.332 -4.117,3.229 -6.449,2.002c-2.332,-1.227 -3.229,-4.116 -2.002,-6.448Z" style="fill:#363e4b;"/><path d="M169.329,376.177c1.227,-2.332 4.117,-3.229 6.449,-2.002c2.332,1.228 3.229,4.117 2.002,6.449c-1.227,2.332 -4.117,3.229 -6.449,2.002c-2.332,-1.227 -3.229,-4.117 -2.002,-6.449Z" style="fill:#363e4b;"/><path d="M121.778,351.155c1.227,-2.332 4.117,-3.229 6.449,-2.002c2.331,1.227 3.228,4.117 2.001,6.449c-1.227,2.332 -4.116,3.229 -6.448,2.001c-2.332,-1.227 -3.229,-4.116 -2.002,-6.448Z" style="fill:#363e4b;"/></g></g><g><g><path d="M69.205,383.183c2.454,-4.664 8.233,-6.458 12.897,-4.004c4.664,2.455 6.458,8.234 4.004,12.898c-2.454,4.664 -8.233,6.458 -12.897,4.003c-4.664,-2.454 -6.458,-8.233 -4.004,-12.897Z" style="fill:#363e4b;"/><path d="M93.854,336.341c2.454,-4.664 8.233,-6.458 12.897,-4.004c4.664,2.454 6.458,8.233 4.004,12.897c-2.454,4.664 -8.233,6.458 -12.897,4.004c-4.664,-2.454 -6.458,-8.233 -4.004,-12.897Z" style="fill:#363e4b;"/><path d="M105.299,372.165c2.455,-4.664 8.234,-6.458 12.898,-4.004c4.663,2.455 6.457,8.234 4.003,12.898c-2.454,4.664 -8.233,6.458 -12.897,4.003c-4.664,-2.454 -6.458,-8.233 -4.004,-12.897Z" style="fill:#363e4b;"/><path d="M57.748,347.143c2.454,-4.664 8.233,-6.458 12.897,-4.004c4.664,2.454 6.458,8.233 4.004,12.897c-2.454,4.664 -8.234,6.458 -12.897,4.004c-4.664,-2.454 -6.458,-8.233 -4.004,-12.897Z" style="fill:#363e4b;"/><path d="M85.798,361.903c1.227,-2.332 4.117,-3.229 6.449,-2.002c2.332,1.227 3.229,4.117 2.001,6.449c-1.227,2.332 -4.116,3.229 -6.448,2.002c-2.332,-1.227 -3.229,-4.117 -2.002,-6.449Z" style="fill:#363e4b;"/><path d="M121.806,351.05c1.227,-2.332 4.117,-3.229 6.449,-2.002c2.331,1.227 3.228,4.116 2.001,6.448c-1.227,2.332 -4.116,3.229 -6.448,2.002c-2.332,-1.227 -3.229,-4.116 -2.002,-6.448Z" style="fill:#363e4b;"/><path d="M74.254,326.027c1.228,-2.332 4.117,-3.229 6.449,-2.002c2.332,1.227 3.229,4.117 2.002,6.449c-1.227,2.332 -4.117,3.229 -6.449,2.002c-2.332,-1.227 -3.229,-4.117 -2.002,-6.449Z" style="fill:#363e4b;"/><path d="M97.157,397.892c1.227,-2.332 4.116,-3.229 6.448,-2.002c2.332,1.227 3.229,4.117 2.002,6.449c-1.227,2.331 -4.117,3.228 -6.449,2.001c-2.331,-1.227 -3.228,-4.116 -2.001,-6.448Z" style="fill:#363e4b;"/><path d="M49.605,372.869c1.227,-2.332 4.117,-3.229 6.449,-2.002c2.332,1.228 3.229,4.117 2.002,6.449c-1.227,2.332 -4.117,3.229 -6.449,2.002c-2.332,-1.227 -3.229,-4.117 -2.002,-6.449Z" style="fill:#363e4b;"/></g><g><path d="M93.805,336.435c2.454,-4.664 8.233,-6.458 12.897,-4.004c4.664,2.454 6.458,8.233 4.004,12.897c-2.455,4.664 -8.234,6.458 -12.898,4.004c-4.664,-2.454 -6.458,-8.233 -4.003,-12.897Z" style="fill:#363e4b;"/><path d="M118.454,289.593c2.454,-4.664 8.233,-6.458 12.897,-4.004c4.664,2.454 6.458,8.233 4.004,12.897c-2.454,4.664 -8.233,6.458 -12.897,4.004c-4.664,-2.454 -6.458,-8.233 -4.004,-12.897Z" style="fill:#363e4b;"/><path d="M129.899,325.417c2.454,-4.664 8.233,-6.458 12.897,-4.004c4.664,2.454 6.458,8.234 4.004,12.897c-2.454,4.664 -8.233,6.458 -12.897,4.004c-4.664,-2.454 -6.458,-8.233 -4.004,-12.897Z" style="fill:#363e4b;"/><path d="M82.348,300.394c2.454,-4.664 8.233,-6.458 12.897,-4.003c4.664,2.454 6.458,8.233 4.004,12.897c-2.455,4.664 -8.234,6.458 -12.898,4.004c-4.664,-2.455 -6.458,-8.234 -4.003,-12.898Z" style="fill:#363e4b;"/><path d="M110.398,315.155c1.227,-2.332 4.116,-3.229 6.448,-2.002c2.332,1.227 3.229,4.117 2.002,6.449c-1.227,2.332 -4.116,3.229 -6.448,2.002c-2.332,-1.228 -3.229,-4.117 -2.002,-6.449Z" style="fill:#363e4b;"/><path d="M146.406,304.301c1.227,-2.332 4.116,-3.229 6.448,-2.002c2.332,1.228 3.229,4.117 2.002,6.449c-1.227,2.332 -4.116,3.229 -6.448,2.002c-2.332,-1.227 -3.229,-4.117 -2.002,-6.449Z" style="fill:#363e4b;"/><path d="M98.854,279.279c1.227,-2.332 4.117,-3.229 6.449,-2.002c2.332,1.227 3.229,4.117 2.002,6.449c-1.227,2.332 -4.117,3.229 -6.449,2.001c-2.332,-1.227 -3.229,-4.116 -2.002,-6.448Z" style="fill:#363e4b;"/><path d="M121.756,351.144c1.228,-2.332 4.117,-3.229 6.449,-2.002c2.332,1.227 3.229,4.116 2.002,6.448c-1.227,2.332 -4.117,3.229 -6.449,2.002c-2.332,-1.227 -3.229,-4.116 -2.002,-6.448Z" style="fill:#363e4b;"/><path d="M74.205,326.121c1.227,-2.332 4.117,-3.229 6.449,-2.002c2.332,1.227 3.229,4.117 2.001,6.449c-1.227,2.332 -4.116,3.229 -6.448,2.002c-2.332,-1.227 -3.229,-4.117 -2.002,-6.449Z" style="fill:#363e4b;"/></g></g></g></g><g><g><g><g><path d="M162.703,551.42c2.454,-4.664 8.233,-6.458 12.897,-4.004c4.664,2.455 6.458,8.234 4.004,12.898c-2.455,4.664 -8.234,6.458 -12.898,4.003c-4.664,-2.454 -6.458,-8.233 -4.003,-12.897Z" style="fill:#363e4b;"/><path d="M187.352,504.578c2.454,-4.664 8.233,-6.458 12.897,-4.004c4.664,2.454 6.458,8.234 4.004,12.897c-2.454,4.664 -8.234,6.458 -12.897,4.004c-4.664,-2.454 -6.458,-8.233 -4.004,-12.897Z" style="fill:#363e4b;"/><path d="M198.797,540.402c2.454,-4.664 8.233,-6.458 12.897,-4.004c4.664,2.455 6.458,8.234 4.004,12.898c-2.454,4.664 -8.233,6.458 -12.897,4.003c-4.664,-2.454 -6.458,-8.233 -4.004,-12.897Z" style="fill:#363e4b;"/><path d="M151.246,515.38c2.454,-4.664 8.233,-6.458 12.897,-4.004c4.664,2.454 6.458,8.233 4.003,12.897c-2.454,4.664 -8.233,6.458 -12.897,4.004c-4.664,-2.454 -6.458,-8.233 -4.003,-12.897Z" style="fill:#363e4b;"/><path d="M179.296,530.14c1.227,-2.332 4.116,-3.229 6.448,-2.002c2.332,1.228 3.229,4.117 2.002,6.449c-1.227,2.332 -4.116,3.229 -6.448,2.002c-2.332,-1.227 -3.229,-4.117 -2.002,-6.449Z" style="fill:#363e4b;"/><path d="M215.304,519.287c1.227,-2.332 4.116,-3.229 6.448,-2.002c2.332,1.227 3.229,4.116 2.002,6.448c-1.227,2.332 -4.117,3.229 -6.449,2.002c-2.332,-1.227 -3.229,-4.116 -2.001,-6.448Z" style="fill:#363e4b;"/><path d="M167.752,494.264c1.227,-2.332 4.117,-3.229 6.449,-2.002c2.332,1.227 3.229,4.117 2.002,6.449c-1.228,2.332 -4.117,3.229 -6.449,2.002c-2.332,-1.227 -3.229,-4.117 -2.002,-6.449Z" style="fill:#363e4b;"/><path d="M190.654,566.129c1.227,-2.332 4.117,-3.229 6.449,-2.002c2.332,1.227 3.229,4.117 2.002,6.449c-1.227,2.332 -4.117,3.229 -6.449,2.001c-2.332,-1.227 -3.229,-4.116 -2.002,-6.448Z" style="fill:#363e4b;"/><path d="M143.103,541.106c1.227,-2.332 4.117,-3.229 6.449,-2.001c2.331,1.227 3.228,4.116 2.001,6.448c-1.227,2.332 -4.116,3.229 -6.448,2.002c-2.332,-1.227 -3.229,-4.117 -2.002,-6.449Z" style="fill:#363e4b;"/></g><g><path d="M187.302,504.672c2.455,-4.664 8.234,-6.458 12.898,-4.004c4.664,2.454 6.458,8.234 4.003,12.897c-2.454,4.664 -8.233,6.458 -12.897,4.004c-4.664,-2.454 -6.458,-8.233 -4.004,-12.897Z" style="fill:#363e4b;"/><path d="M211.952,457.83c2.454,-4.664 8.233,-6.458 12.897,-4.004c4.664,2.454 6.458,8.233 4.004,12.897c-2.455,4.664 -8.234,6.458 -12.898,4.004c-4.664,-2.454 -6.458,-8.233 -4.003,-12.897Z" style="fill:#363e4b;"/><path d="M223.397,493.654c2.454,-4.664 8.233,-6.458 12.897,-4.004c4.664,2.455 6.458,8.234 4.004,12.898c-2.455,4.663 -8.234,6.457 -12.898,4.003c-4.663,-2.454 -6.457,-8.233 -4.003,-12.897Z" style="fill:#363e4b;"/><path d="M175.845,468.631c2.455,-4.663 8.234,-6.457 12.898,-4.003c4.664,2.454 6.457,8.233 4.003,12.897c-2.454,4.664 -8.233,6.458 -12.897,4.004c-4.664,-2.455 -6.458,-8.234 -4.004,-12.898Z" style="fill:#363e4b;"/><path d="M203.896,483.392c1.227,-2.332 4.116,-3.229 6.448,-2.002c2.332,1.227 3.229,4.117 2.002,6.449c-1.227,2.332 -4.117,3.229 -6.449,2.002c-2.332,-1.228 -3.229,-4.117 -2.001,-6.449Z" style="fill:#363e4b;"/><path d="M239.903,472.538c1.228,-2.332 4.117,-3.229 6.449,-2.001c2.332,1.227 3.229,4.116 2.002,6.448c-1.227,2.332 -4.117,3.229 -6.449,2.002c-2.332,-1.227 -3.229,-4.117 -2.002,-6.449Z" style="fill:#363e4b;"/><path d="M192.352,447.516c1.227,-2.332 4.117,-3.229 6.449,-2.002c2.332,1.227 3.229,4.117 2.001,6.449c-1.227,2.332 -4.116,3.229 -6.448,2.002c-2.332,-1.228 -3.229,-4.117 -2.002,-6.449Z" style="fill:#363e4b;"/><path d="M215.254,519.381c1.227,-2.332 4.117,-3.229 6.449,-2.002c2.332,1.227 3.229,4.116 2.002,6.448c-1.228,2.332 -4.117,3.229 -6.449,2.002c-2.332,-1.227 -3.229,-4.116 -2.002,-6.448Z" style="fill:#363e4b;"/><path d="M167.703,494.358c1.227,-2.332 4.116,-3.229 6.448,-2.002c2.332,1.227 3.229,4.117 2.002,6.449c-1.227,2.332 -4.117,3.229 -6.448,2.002c-2.332,-1.227 -3.229,-4.117 -2.002,-6.449Z" style="fill:#363e4b;"/></g></g><g><g><path d="M115.13,526.386c2.454,-4.664 8.233,-6.458 12.897,-4.003c4.664,2.454 6.458,8.233 4.004,12.897c-2.455,4.664 -8.234,6.458 -12.898,4.004c-4.664,-2.455 -6.458,-8.234 -4.003,-12.898Z" style="fill:#363e4b;"/><path d="M139.779,479.544c2.454,-4.664 8.233,-6.458 12.897,-4.004c4.664,2.455 6.458,8.234 4.004,12.898c-2.454,4.664 -8.233,6.458 -12.897,4.003c-4.664,-2.454 -6.458,-8.233 -4.004,-12.897Z" style="fill:#363e4b;"/><path d="M151.224,515.368c2.454,-4.664 8.233,-6.458 12.897,-4.003c4.664,2.454 6.458,8.233 4.004,12.897c-2.454,4.664 -8.233,6.458 -12.897,4.004c-4.664,-2.455 -6.458,-8.234 -4.004,-12.898Z" style="fill:#363e4b;"/><path d="M103.673,490.346c2.454,-4.664 8.233,-6.458 12.897,-4.004c4.664,2.454 6.458,8.234 4.004,12.897c-2.455,4.664 -8.234,6.458 -12.898,4.004c-4.664,-2.454 -6.458,-8.233 -4.003,-12.897Z" style="fill:#363e4b;"/><path d="M131.723,505.106c1.227,-2.332 4.116,-3.229 6.448,-2.001c2.332,1.227 3.229,4.116 2.002,6.448c-1.227,2.332 -4.116,3.229 -6.448,2.002c-2.332,-1.227 -3.229,-4.117 -2.002,-6.449Z" style="fill:#363e4b;"/><path d="M167.731,494.253c1.227,-2.332 4.116,-3.229 6.448,-2.002c2.332,1.227 3.229,4.117 2.002,6.449c-1.227,2.332 -4.117,3.229 -6.448,2.001c-2.332,-1.227 -3.229,-4.116 -2.002,-6.448Z" style="fill:#363e4b;"/><path d="M120.179,469.23c1.227,-2.332 4.117,-3.229 6.449,-2.001c2.332,1.227 3.229,4.116 2.002,6.448c-1.227,2.332 -4.117,3.229 -6.449,2.002c-2.332,-1.227 -3.229,-4.117 -2.002,-6.449Z" style="fill:#363e4b;"/><path d="M143.081,541.095c1.228,-2.332 4.117,-3.229 6.449,-2.002c2.332,1.227 3.229,4.117 2.002,6.449c-1.227,2.332 -4.117,3.229 -6.449,2.002c-2.332,-1.227 -3.229,-4.117 -2.002,-6.449Z" style="fill:#363e4b;"/><path d="M95.53,516.073c1.227,-2.332 4.117,-3.229 6.449,-2.002c2.332,1.227 3.229,4.116 2.001,6.448c-1.227,2.332 -4.116,3.229 -6.448,2.002c-2.332,-1.227 -3.229,-4.116 -2.002,-6.448Z" style="fill:#363e4b;"/></g><g><path d="M139.73,479.638c2.454,-4.664 8.233,-6.458 12.897,-4.004c4.664,2.455 6.458,8.234 4.003,12.898c-2.454,4.664 -8.233,6.458 -12.897,4.003c-4.664,-2.454 -6.458,-8.233 -4.003,-12.897Z" style="fill:#363e4b;"/><path d="M164.379,432.796c2.454,-4.664 8.233,-6.458 12.897,-4.004c4.664,2.454 6.458,8.234 4.004,12.897c-2.455,4.664 -8.234,6.458 -12.898,4.004c-4.664,-2.454 -6.457,-8.233 -4.003,-12.897Z" style="fill:#363e4b;"/><path d="M175.824,468.62c2.454,-4.664 8.233,-6.458 12.897,-4.003c4.664,2.454 6.458,8.233 4.004,12.897c-2.454,4.664 -8.234,6.458 -12.897,4.003c-4.664,-2.454 -6.458,-8.233 -4.004,-12.897Z" style="fill:#363e4b;"/><path d="M128.272,443.598c2.455,-4.664 8.234,-6.458 12.898,-4.004c4.664,2.454 6.458,8.233 4.003,12.897c-2.454,4.664 -8.233,6.458 -12.897,4.004c-4.664,-2.454 -6.458,-8.233 -4.004,-12.897Z" style="fill:#363e4b;"/><path d="M156.323,458.358c1.227,-2.332 4.116,-3.229 6.448,-2.002c2.332,1.228 3.229,4.117 2.002,6.449c-1.227,2.332 -4.117,3.229 -6.449,2.002c-2.332,-1.227 -3.229,-4.117 -2.001,-6.449Z" style="fill:#363e4b;"/><path d="M192.33,447.505c1.228,-2.332 4.117,-3.229 6.449,-2.002c2.332,1.227 3.229,4.116 2.002,6.448c-1.227,2.332 -4.117,3.229 -6.449,2.002c-2.332,-1.227 -3.229,-4.116 -2.002,-6.448Z" style="fill:#363e4b;"/><path d="M144.779,422.482c1.227,-2.332 4.117,-3.229 6.449,-2.002c2.332,1.227 3.229,4.117 2.001,6.449c-1.227,2.332 -4.116,3.229 -6.448,2.002c-2.332,-1.227 -3.229,-4.117 -2.002,-6.449Z" style="fill:#363e4b;"/><path d="M167.681,494.347c1.227,-2.332 4.117,-3.229 6.449,-2.002c2.332,1.227 3.229,4.117 2.002,6.449c-1.227,2.332 -4.117,3.229 -6.449,2.001c-2.332,-1.227 -3.229,-4.116 -2.002,-6.448Z" style="fill:#363e4b;"/><path d="M120.13,469.324c1.227,-2.332 4.116,-3.229 6.448,-2.001c2.332,1.227 3.229,4.116 2.002,6.448c-1.227,2.332 -4.116,3.229 -6.448,2.002c-2.332,-1.227 -3.229,-4.117 -2.002,-6.449Z" style="fill:#363e4b;"/></g></g></g><g><g><g><path d="M211.758,458.197c2.454,-4.664 8.234,-6.458 12.897,-4.003c4.664,2.454 6.458,8.233 4.004,12.897c-2.454,4.664 -8.233,6.458 -12.897,4.004c-4.664,-2.455 -6.458,-8.234 -4.004,-12.898Z" style="fill:#363e4b;"/><path d="M236.407,411.355c2.455,-4.664 8.234,-6.458 12.898,-4.004c4.664,2.455 6.458,8.234 4.003,12.898c-2.454,4.664 -8.233,6.458 -12.897,4.003c-4.664,-2.454 -6.458,-8.233 -4.004,-12.897Z" style="fill:#363e4b;"/><path d="M247.853,447.179c2.454,-4.664 8.233,-6.458 12.897,-4.003c4.664,2.454 6.458,8.233 4.003,12.897c-2.454,4.664 -8.233,6.458 -12.897,4.004c-4.664,-2.455 -6.458,-8.234 -4.003,-12.898Z" style="fill:#363e4b;"/><path d="M200.301,422.157c2.454,-4.664 8.233,-6.458 12.897,-4.004c4.664,2.454 6.458,8.234 4.004,12.897c-2.454,4.664 -8.233,6.458 -12.897,4.004c-4.664,-2.454 -6.458,-8.233 -4.004,-12.897Z" style="fill:#363e4b;"/><path d="M228.351,436.917c1.227,-2.332 4.117,-3.229 6.449,-2.001c2.332,1.227 3.229,4.116 2.002,6.448c-1.227,2.332 -4.117,3.229 -6.449,2.002c-2.332,-1.227 -3.229,-4.117 -2.002,-6.449Z" style="fill:#363e4b;"/><path d="M264.359,426.064c1.227,-2.332 4.117,-3.229 6.449,-2.002c2.332,1.227 3.229,4.117 2.002,6.449c-1.227,2.332 -4.117,3.229 -6.449,2.001c-2.332,-1.227 -3.229,-4.116 -2.002,-6.448Z" style="fill:#363e4b;"/><path d="M216.808,401.041c1.227,-2.332 4.116,-3.229 6.448,-2.002c2.332,1.228 3.229,4.117 2.002,6.449c-1.227,2.332 -4.116,3.229 -6.448,2.002c-2.332,-1.227 -3.229,-4.117 -2.002,-6.449Z" style="fill:#363e4b;"/><path d="M239.71,472.906c1.227,-2.332 4.117,-3.229 6.449,-2.002c2.332,1.227 3.229,4.117 2.001,6.449c-1.227,2.332 -4.116,3.229 -6.448,2.002c-2.332,-1.228 -3.229,-4.117 -2.002,-6.449Z" style="fill:#363e4b;"/><path d="M192.159,447.884c1.227,-2.332 4.116,-3.229 6.448,-2.002c2.332,1.227 3.229,4.116 2.002,6.448c-1.227,2.332 -4.117,3.229 -6.449,2.002c-2.332,-1.227 -3.229,-4.117 -2.001,-6.448Z" style="fill:#363e4b;"/></g><g><path d="M236.358,411.449c2.454,-4.664 8.233,-6.458 12.897,-4.004c4.664,2.455 6.458,8.234 4.004,12.898c-2.454,4.664 -8.233,6.458 -12.897,4.003c-4.664,-2.454 -6.458,-8.233 -4.004,-12.897Z" style="fill:#363e4b;"/><path d="M261.007,364.607c2.455,-4.664 8.234,-6.458 12.898,-4.004c4.663,2.454 6.457,8.234 4.003,12.897c-2.454,4.664 -8.233,6.458 -12.897,4.004c-4.664,-2.454 -6.458,-8.233 -4.004,-12.897Z" style="fill:#363e4b;"/><path d="M272.452,400.431c2.455,-4.664 8.234,-6.458 12.898,-4.004c4.664,2.455 6.458,8.234 4.003,12.898c-2.454,4.664 -8.233,6.458 -12.897,4.003c-4.664,-2.454 -6.458,-8.233 -4.004,-12.897Z" style="fill:#363e4b;"/><path d="M224.901,375.409c2.454,-4.664 8.233,-6.458 12.897,-4.004c4.664,2.454 6.458,8.233 4.004,12.897c-2.454,4.664 -8.233,6.458 -12.897,4.004c-4.664,-2.454 -6.458,-8.233 -4.004,-12.897Z" style="fill:#363e4b;"/><path d="M252.951,390.169c1.227,-2.332 4.117,-3.229 6.449,-2.002c2.332,1.227 3.229,4.117 2.002,6.449c-1.228,2.332 -4.117,3.229 -6.449,2.002c-2.332,-1.227 -3.229,-4.117 -2.002,-6.449Z" style="fill:#363e4b;"/><path d="M288.959,379.316c1.227,-2.332 4.117,-3.229 6.449,-2.002c2.332,1.227 3.229,4.116 2.001,6.448c-1.227,2.332 -4.116,3.229 -6.448,2.002c-2.332,-1.227 -3.229,-4.116 -2.002,-6.448Z" style="fill:#363e4b;"/><path d="M241.408,354.293c1.227,-2.332 4.116,-3.229 6.448,-2.002c2.332,1.227 3.229,4.117 2.002,6.449c-1.227,2.332 -4.117,3.229 -6.449,2.002c-2.332,-1.227 -3.229,-4.117 -2.001,-6.449Z" style="fill:#363e4b;"/><path d="M264.31,426.158c1.227,-2.332 4.116,-3.229 6.448,-2.002c2.332,1.227 3.229,4.117 2.002,6.449c-1.227,2.332 -4.116,3.229 -6.448,2.001c-2.332,-1.227 -3.229,-4.116 -2.002,-6.448Z" style="fill:#363e4b;"/><path d="M216.758,401.135c1.227,-2.332 4.117,-3.229 6.449,-2.002c2.332,1.228 3.229,4.117 2.002,6.449c-1.227,2.332 -4.117,3.229 -6.449,2.002c-2.332,-1.227 -3.229,-4.117 -2.002,-6.449Z" style="fill:#363e4b;"/></g></g><g><g><path d="M164.185,433.164c2.455,-4.664 8.234,-6.458 12.898,-4.004c4.663,2.454 6.457,8.233 4.003,12.897c-2.454,4.664 -8.233,6.458 -12.897,4.004c-4.664,-2.454 -6.458,-8.234 -4.004,-12.897Z" style="fill:#363e4b;"/><path d="M188.835,386.321c2.454,-4.664 8.233,-6.458 12.897,-4.003c4.664,2.454 6.458,8.233 4.003,12.897c-2.454,4.664 -8.233,6.458 -12.897,4.004c-4.664,-2.455 -6.458,-8.234 -4.003,-12.898Z" style="fill:#363e4b;"/><path d="M200.28,422.146c2.454,-4.664 8.233,-6.458 12.897,-4.004c4.664,2.454 6.458,8.233 4.004,12.897c-2.455,4.664 -8.234,6.458 -12.898,4.004c-4.664,-2.454 -6.458,-8.234 -4.003,-12.897Z" style="fill:#363e4b;"/><path d="M152.728,397.123c2.455,-4.664 8.234,-6.458 12.897,-4.004c4.664,2.455 6.458,8.234 4.004,12.898c-2.454,4.664 -8.233,6.458 -12.897,4.003c-4.664,-2.454 -6.458,-8.233 -4.004,-12.897Z" style="fill:#363e4b;"/><path d="M180.778,411.884c1.228,-2.332 4.117,-3.229 6.449,-2.002c2.332,1.227 3.229,4.116 2.002,6.448c-1.227,2.332 -4.117,3.229 -6.449,2.002c-2.332,-1.227 -3.229,-4.116 -2.002,-6.448Z" style="fill:#363e4b;"/><path d="M216.786,401.03c1.227,-2.332 4.117,-3.229 6.449,-2.002c2.332,1.227 3.229,4.117 2.002,6.449c-1.227,2.332 -4.117,3.229 -6.449,2.002c-2.332,-1.227 -3.229,-4.117 -2.002,-6.449Z" style="fill:#363e4b;"/><path d="M169.235,376.008c1.227,-2.332 4.117,-3.229 6.448,-2.002c2.332,1.227 3.229,4.116 2.002,6.448c-1.227,2.332 -4.116,3.229 -6.448,2.002c-2.332,-1.227 -3.229,-4.116 -2.002,-6.448Z" style="fill:#363e4b;"/><path d="M192.137,447.872c1.227,-2.332 4.117,-3.229 6.449,-2.002c2.332,1.228 3.229,4.117 2.001,6.449c-1.227,2.332 -4.116,3.229 -6.448,2.002c-2.332,-1.227 -3.229,-4.117 -2.002,-6.449Z" style="fill:#363e4b;"/><path d="M144.586,422.85c1.227,-2.332 4.116,-3.229 6.448,-2.002c2.332,1.227 3.229,4.117 2.002,6.449c-1.227,2.332 -4.117,3.229 -6.449,2.001c-2.332,-1.227 -3.229,-4.116 -2.001,-6.448Z" style="fill:#363e4b;"/></g><g><path d="M188.785,386.415c2.454,-4.664 8.233,-6.458 12.897,-4.003c4.664,2.454 6.458,8.233 4.004,12.897c-2.454,4.664 -8.233,6.458 -12.897,4.004c-4.664,-2.455 -6.458,-8.234 -4.004,-12.898Z" style="fill:#363e4b;"/><path d="M213.434,339.573c2.455,-4.664 8.234,-6.458 12.898,-4.004c4.664,2.455 6.458,8.234 4.003,12.898c-2.454,4.664 -8.233,6.458 -12.897,4.003c-4.664,-2.454 -6.458,-8.233 -4.004,-12.897Z" style="fill:#363e4b;"/><path d="M224.879,375.397c2.455,-4.664 8.234,-6.458 12.898,-4.003c4.664,2.454 6.458,8.233 4.003,12.897c-2.454,4.664 -8.233,6.458 -12.897,4.004c-4.664,-2.455 -6.458,-8.234 -4.004,-12.898Z" style="fill:#363e4b;"/><path d="M177.328,350.375c2.454,-4.664 8.233,-6.458 12.897,-4.004c4.664,2.454 6.458,8.234 4.004,12.897c-2.454,4.664 -8.233,6.458 -12.897,4.004c-4.664,-2.454 -6.458,-8.233 -4.004,-12.897Z" style="fill:#363e4b;"/><path d="M205.378,365.135c1.227,-2.332 4.117,-3.229 6.449,-2.001c2.332,1.227 3.229,4.116 2.002,6.448c-1.227,2.332 -4.117,3.229 -6.449,2.002c-2.332,-1.227 -3.229,-4.117 -2.002,-6.449Z" style="fill:#363e4b;"/><path d="M241.386,354.282c1.227,-2.332 4.117,-3.229 6.449,-2.002c2.332,1.227 3.229,4.117 2.002,6.449c-1.228,2.332 -4.117,3.229 -6.449,2.001c-2.332,-1.227 -3.229,-4.116 -2.002,-6.448Z" style="fill:#363e4b;"/><path d="M193.835,329.259c1.227,-2.332 4.116,-3.229 6.448,-2.001c2.332,1.227 3.229,4.116 2.002,6.448c-1.227,2.332 -4.117,3.229 -6.449,2.002c-2.331,-1.227 -3.228,-4.117 -2.001,-6.449Z" style="fill:#363e4b;"/><path d="M216.737,401.124c1.227,-2.332 4.116,-3.229 6.448,-2.002c2.332,1.227 3.229,4.117 2.002,6.449c-1.227,2.332 -4.116,3.229 -6.448,2.002c-2.332,-1.227 -3.229,-4.117 -2.002,-6.449Z" style="fill:#363e4b;"/><path d="M169.185,376.102c1.228,-2.332 4.117,-3.229 6.449,-2.002c2.332,1.227 3.229,4.116 2.002,6.448c-1.227,2.332 -4.117,3.229 -6.449,2.002c-2.332,-1.227 -3.229,-4.116 -2.002,-6.448Z" style="fill:#363e4b;"/></g></g></g></g></g></g><g><g><g><g><g><g><path d="M335.683,224.712c2.454,-4.664 8.233,-6.458 12.897,-4.003c4.664,2.454 6.458,8.233 4.004,12.897c-2.455,4.664 -8.234,6.458 -12.898,4.003c-4.664,-2.454 -6.458,-8.233 -4.003,-12.897Z" style="fill:#363e4b;"/><path d="M360.332,177.87c2.454,-4.664 8.233,-6.458 12.897,-4.004c4.664,2.455 6.458,8.234 4.004,12.898c-2.454,4.663 -8.233,6.457 -12.897,4.003c-4.664,-2.454 -6.458,-8.233 -4.004,-12.897Z" style="fill:#363e4b;"/><path d="M371.777,213.694c2.454,-4.664 8.233,-6.458 12.897,-4.003c4.664,2.454 6.458,8.233 4.004,12.897c-2.454,4.664 -8.233,6.458 -12.897,4.003c-4.664,-2.454 -6.458,-8.233 -4.004,-12.897Z" style="fill:#363e4b;"/><path d="M324.226,188.672c2.454,-4.664 8.233,-6.458 12.897,-4.004c4.664,2.454 6.458,8.233 4.004,12.897c-2.455,4.664 -8.234,6.458 -12.898,4.004c-4.664,-2.454 -6.458,-8.233 -4.003,-12.897Z" style="fill:#363e4b;"/><path d="M352.276,203.432c1.227,-2.332 4.116,-3.229 6.448,-2.002c2.332,1.228 3.229,4.117 2.002,6.449c-1.227,2.332 -4.116,3.229 -6.448,2.002c-2.332,-1.227 -3.229,-4.117 -2.002,-6.449Z" style="fill:#363e4b;"/><path d="M388.284,192.579c1.227,-2.332 4.116,-3.229 6.448,-2.002c2.332,1.227 3.229,4.117 2.002,6.448c-1.227,2.332 -4.117,3.229 -6.448,2.002c-2.332,-1.227 -3.229,-4.116 -2.002,-6.448Z" style="fill:#363e4b;"/><path d="M340.732,167.556c1.227,-2.332 4.117,-3.229 6.449,-2.002c2.332,1.228 3.229,4.117 2.002,6.449c-1.227,2.332 -4.117,3.229 -6.449,2.002c-2.332,-1.227 -3.229,-4.117 -2.002,-6.449Z" style="fill:#363e4b;"/><path d="M363.634,239.421c1.228,-2.332 4.117,-3.229 6.449,-2.002c2.332,1.227 3.229,4.117 2.002,6.449c-1.227,2.332 -4.117,3.229 -6.449,2.002c-2.332,-1.228 -3.229,-4.117 -2.002,-6.449Z" style="fill:#363e4b;"/><path d="M316.083,214.398c1.227,-2.332 4.117,-3.229 6.449,-2.001c2.332,1.227 3.229,4.116 2.001,6.448c-1.227,2.332 -4.116,3.229 -6.448,2.002c-2.332,-1.227 -3.229,-4.117 -2.002,-6.449Z" style="fill:#363e4b;"/></g><g><path d="M360.283,177.964c2.454,-4.664 8.233,-6.458 12.897,-4.004c4.664,2.455 6.458,8.234 4.003,12.898c-2.454,4.663 -8.233,6.457 -12.897,4.003c-4.664,-2.454 -6.458,-8.233 -4.003,-12.897Z" style="fill:#363e4b;"/><path d="M384.932,131.122c2.454,-4.664 8.233,-6.458 12.897,-4.004c4.664,2.454 6.458,8.233 4.004,12.897c-2.455,4.664 -8.234,6.458 -12.898,4.004c-4.664,-2.454 -6.457,-8.233 -4.003,-12.897Z" style="fill:#363e4b;"/><path d="M396.377,166.946c2.454,-4.664 8.233,-6.458 12.897,-4.004c4.664,2.455 6.458,8.234 4.004,12.898c-2.454,4.664 -8.234,6.458 -12.897,4.003c-4.664,-2.454 -6.458,-8.233 -4.004,-12.897Z" style="fill:#363e4b;"/><path d="M348.825,141.924c2.455,-4.664 8.234,-6.458 12.898,-4.004c4.664,2.454 6.458,8.233 4.003,12.897c-2.454,4.664 -8.233,6.458 -12.897,4.004c-4.664,-2.454 -6.458,-8.234 -4.004,-12.897Z" style="fill:#363e4b;"/><path d="M376.876,156.684c1.227,-2.332 4.116,-3.229 6.448,-2.002c2.332,1.227 3.229,4.117 2.002,6.449c-1.227,2.332 -4.117,3.229 -6.449,2.002c-2.332,-1.227 -3.229,-4.117 -2.001,-6.449Z" style="fill:#363e4b;"/><path d="M412.883,145.83c1.228,-2.331 4.117,-3.228 6.449,-2.001c2.332,1.227 3.229,4.116 2.002,6.448c-1.227,2.332 -4.117,3.229 -6.449,2.002c-2.332,-1.227 -3.229,-4.117 -2.002,-6.449Z" style="fill:#363e4b;"/><path d="M365.332,120.808c1.227,-2.332 4.117,-3.229 6.449,-2.002c2.332,1.227 3.229,4.117 2.001,6.449c-1.227,2.332 -4.116,3.229 -6.448,2.002c-2.332,-1.227 -3.229,-4.117 -2.002,-6.449Z" style="fill:#363e4b;"/><path d="M388.234,192.673c1.227,-2.332 4.117,-3.229 6.449,-2.002c2.332,1.227 3.229,4.117 2.002,6.448c-1.227,2.332 -4.117,3.229 -6.449,2.002c-2.332,-1.227 -3.229,-4.116 -2.002,-6.448Z" style="fill:#363e4b;"/><path d="M340.683,167.65c1.227,-2.332 4.116,-3.229 6.448,-2.002c2.332,1.228 3.229,4.117 2.002,6.449c-1.227,2.332 -4.116,3.229 -6.448,2.002c-2.332,-1.227 -3.229,-4.117 -2.002,-6.449Z" style="fill:#363e4b;"/></g></g><g><g><path d="M288.11,199.678c2.454,-4.664 8.233,-6.458 12.897,-4.003c4.664,2.454 6.458,8.233 4.004,12.897c-2.455,4.664 -8.234,6.458 -12.898,4.004c-4.663,-2.455 -6.457,-8.234 -4.003,-12.898Z" style="fill:#363e4b;"/><path d="M312.759,152.836c2.454,-4.664 8.233,-6.458 12.897,-4.003c4.664,2.454 6.458,8.233 4.004,12.897c-2.454,4.664 -8.233,6.458 -12.897,4.003c-4.664,-2.454 -6.458,-8.233 -4.004,-12.897Z" style="fill:#363e4b;"/><path d="M324.204,188.66c2.454,-4.663 8.233,-6.457 12.897,-4.003c4.664,2.454 6.458,8.233 4.004,12.897c-2.454,4.664 -8.233,6.458 -12.897,4.004c-4.664,-2.455 -6.458,-8.234 -4.004,-12.898Z" style="fill:#363e4b;"/><path d="M276.653,163.638c2.454,-4.664 8.233,-6.458 12.897,-4.004c4.664,2.455 6.458,8.234 4.004,12.898c-2.455,4.663 -8.234,6.457 -12.898,4.003c-4.664,-2.454 -6.458,-8.233 -4.003,-12.897Z" style="fill:#363e4b;"/><path d="M304.703,178.399c1.227,-2.332 4.117,-3.229 6.449,-2.002c2.331,1.227 3.228,4.116 2.001,6.448c-1.227,2.332 -4.116,3.229 -6.448,2.002c-2.332,-1.227 -3.229,-4.117 -2.002,-6.448Z" style="fill:#363e4b;"/><path d="M340.711,167.545c1.227,-2.332 4.116,-3.229 6.448,-2.002c2.332,1.227 3.229,4.117 2.002,6.449c-1.227,2.332 -4.116,3.229 -6.448,2.002c-2.332,-1.228 -3.229,-4.117 -2.002,-6.449Z" style="fill:#363e4b;"/><path d="M293.159,142.522c1.227,-2.332 4.117,-3.229 6.449,-2.001c2.332,1.227 3.229,4.116 2.002,6.448c-1.227,2.332 -4.117,3.229 -6.449,2.002c-2.332,-1.227 -3.229,-4.117 -2.002,-6.449Z" style="fill:#363e4b;"/><path d="M316.062,214.387c1.227,-2.332 4.116,-3.229 6.448,-2.002c2.332,1.227 3.229,4.117 2.002,6.449c-1.227,2.332 -4.117,3.229 -6.449,2.002c-2.332,-1.227 -3.229,-4.117 -2.001,-6.449Z" style="fill:#363e4b;"/><path d="M268.51,189.365c1.227,-2.332 4.117,-3.229 6.449,-2.002c2.332,1.227 3.229,4.116 2.002,6.448c-1.228,2.332 -4.117,3.229 -6.449,2.002c-2.332,-1.227 -3.229,-4.116 -2.002,-6.448Z" style="fill:#363e4b;"/></g><g><path d="M312.71,152.93c2.454,-4.664 8.233,-6.458 12.897,-4.003c4.664,2.454 6.458,8.233 4.004,12.897c-2.455,4.664 -8.234,6.458 -12.898,4.003c-4.664,-2.454 -6.458,-8.233 -4.003,-12.897Z" style="fill:#363e4b;"/><path d="M337.359,106.088c2.454,-4.664 8.233,-6.458 12.897,-4.004c4.664,2.455 6.458,8.234 4.004,12.898c-2.454,4.663 -8.234,6.457 -12.897,4.003c-4.664,-2.454 -6.458,-8.233 -4.004,-12.897Z" style="fill:#363e4b;"/><path d="M348.804,141.912c2.454,-4.664 8.233,-6.458 12.897,-4.003c4.664,2.454 6.458,8.233 4.004,12.897c-2.454,4.664 -8.233,6.458 -12.897,4.003c-4.664,-2.454 -6.458,-8.233 -4.004,-12.897Z" style="fill:#363e4b;"/><path d="M301.253,116.89c2.454,-4.664 8.233,-6.458 12.897,-4.004c4.664,2.454 6.458,8.233 4.003,12.897c-2.454,4.664 -8.233,6.458 -12.897,4.004c-4.664,-2.454 -6.458,-8.233 -4.003,-12.897Z" style="fill:#363e4b;"/><path d="M329.303,131.65c1.227,-2.332 4.116,-3.229 6.448,-2.002c2.332,1.228 3.229,4.117 2.002,6.449c-1.227,2.332 -4.117,3.229 -6.448,2.002c-2.332,-1.227 -3.229,-4.117 -2.002,-6.449Z" style="fill:#363e4b;"/><path d="M365.311,120.797c1.227,-2.332 4.116,-3.229 6.448,-2.002c2.332,1.227 3.229,4.117 2.002,6.449c-1.227,2.331 -4.117,3.228 -6.449,2.001c-2.332,-1.227 -3.229,-4.116 -2.001,-6.448Z" style="fill:#363e4b;"/><path d="M317.759,95.774c1.227,-2.332 4.117,-3.229 6.449,-2.002c2.332,1.228 3.229,4.117 2.002,6.449c-1.228,2.332 -4.117,3.229 -6.449,2.002c-2.332,-1.227 -3.229,-4.117 -2.002,-6.449Z" style="fill:#363e4b;"/><path d="M340.661,167.639c1.227,-2.332 4.117,-3.229 6.449,-2.002c2.332,1.227 3.229,4.117 2.002,6.449c-1.227,2.332 -4.117,3.229 -6.449,2.002c-2.332,-1.228 -3.229,-4.117 -2.002,-6.449Z" style="fill:#363e4b;"/><path d="M293.11,142.616c1.227,-2.332 4.117,-3.229 6.449,-2.001c2.331,1.227 3.228,4.116 2.001,6.448c-1.227,2.332 -4.116,3.229 -6.448,2.002c-2.332,-1.227 -3.229,-4.117 -2.002,-6.449Z" style="fill:#363e4b;"/></g></g></g><g><g><g><path d="M384.738,131.489c2.455,-4.664 8.234,-6.458 12.898,-4.003c4.664,2.454 6.457,8.233 4.003,12.897c-2.454,4.664 -8.233,6.458 -12.897,4.004c-4.664,-2.455 -6.458,-8.234 -4.004,-12.898Z" style="fill:#363e4b;"/><path d="M409.388,84.647c2.454,-4.664 8.233,-6.458 12.897,-4.004c4.664,2.455 6.458,8.234 4.003,12.898c-2.454,4.664 -8.233,6.458 -12.897,4.003c-4.664,-2.454 -6.458,-8.233 -4.003,-12.897Z" style="fill:#363e4b;"/><path d="M420.833,120.471c2.454,-4.664 8.233,-6.458 12.897,-4.003c4.664,2.454 6.458,8.233 4.004,12.897c-2.455,4.664 -8.234,6.458 -12.898,4.004c-4.664,-2.455 -6.458,-8.234 -4.003,-12.898Z" style="fill:#363e4b;"/><path d="M373.281,95.449c2.455,-4.664 8.234,-6.458 12.897,-4.004c4.664,2.455 6.458,8.234 4.004,12.898c-2.454,4.663 -8.233,6.457 -12.897,4.003c-4.664,-2.454 -6.458,-8.233 -4.004,-12.897Z" style="fill:#363e4b;"/><path d="M401.331,110.209c1.228,-2.332 4.117,-3.228 6.449,-2.001c2.332,1.227 3.229,4.116 2.002,6.448c-1.227,2.332 -4.117,3.229 -6.449,2.002c-2.332,-1.227 -3.229,-4.117 -2.002,-6.449Z" style="fill:#363e4b;"/><path d="M437.339,99.356c1.227,-2.332 4.117,-3.229 6.449,-2.002c2.332,1.227 3.229,4.117 2.002,6.449c-1.227,2.332 -4.117,3.229 -6.449,2.001c-2.332,-1.227 -3.229,-4.116 -2.002,-6.448Z" style="fill:#363e4b;"/><path d="M389.788,74.333c1.227,-2.332 4.117,-3.229 6.448,-2.001c2.332,1.227 3.229,4.116 2.002,6.448c-1.227,2.332 -4.116,3.229 -6.448,2.002c-2.332,-1.227 -3.229,-4.117 -2.002,-6.449Z" style="fill:#363e4b;"/><path d="M412.69,146.198c1.227,-2.332 4.117,-3.229 6.449,-2.002c2.332,1.227 3.229,4.117 2.002,6.449c-1.228,2.332 -4.117,3.229 -6.449,2.002c-2.332,-1.227 -3.229,-4.117 -2.002,-6.449Z" style="fill:#363e4b;"/><path d="M365.139,121.176c1.227,-2.332 4.116,-3.229 6.448,-2.002c2.332,1.227 3.229,4.116 2.002,6.448c-1.227,2.332 -4.117,3.229 -6.449,2.002c-2.332,-1.227 -3.229,-4.116 -2.001,-6.448Z" style="fill:#363e4b;"/></g><g><path d="M409.338,84.741c2.454,-4.664 8.233,-6.458 12.897,-4.004c4.664,2.455 6.458,8.234 4.004,12.898c-2.454,4.664 -8.233,6.458 -12.897,4.003c-4.664,-2.454 -6.458,-8.233 -4.004,-12.897Z" style="fill:#363e4b;"/><path d="M433.987,37.899c2.455,-4.664 8.234,-6.458 12.898,-4.004c4.664,2.455 6.458,8.234 4.003,12.898c-2.454,4.663 -8.233,6.457 -12.897,4.003c-4.664,-2.454 -6.458,-8.233 -4.004,-12.897Z" style="fill:#363e4b;"/><path d="M445.432,73.723c2.455,-4.664 8.234,-6.458 12.898,-4.003c4.664,2.454 6.458,8.233 4.003,12.897c-2.454,4.664 -8.233,6.458 -12.897,4.003c-4.664,-2.454 -6.458,-8.233 -4.004,-12.897Z" style="fill:#363e4b;"/><path d="M397.881,48.701c2.454,-4.664 8.233,-6.458 12.897,-4.004c4.664,2.454 6.458,8.233 4.004,12.897c-2.454,4.664 -8.233,6.458 -12.897,4.004c-4.664,-2.454 -6.458,-8.233 -4.004,-12.897Z" style="fill:#363e4b;"/><path d="M425.931,63.461c1.227,-2.332 4.117,-3.229 6.449,-2.002c2.332,1.228 3.229,4.117 2.002,6.449c-1.227,2.332 -4.117,3.229 -6.449,2.002c-2.332,-1.227 -3.229,-4.117 -2.002,-6.449Z" style="fill:#363e4b;"/><path d="M461.939,52.608c1.227,-2.332 4.117,-3.229 6.449,-2.002c2.332,1.227 3.229,4.116 2.002,6.448c-1.228,2.332 -4.117,3.229 -6.449,2.002c-2.332,-1.227 -3.229,-4.116 -2.002,-6.448Z" style="fill:#363e4b;"/><path d="M414.388,27.585c1.227,-2.332 4.116,-3.229 6.448,-2.002c2.332,1.227 3.229,4.117 2.002,6.449c-1.227,2.332 -4.117,3.229 -6.449,2.002c-2.331,-1.227 -3.228,-4.117 -2.001,-6.449Z" style="fill:#363e4b;"/><path d="M437.29,99.45c1.227,-2.332 4.116,-3.229 6.448,-2.002c2.332,1.227 3.229,4.117 2.002,6.449c-1.227,2.332 -4.116,3.229 -6.448,2.001c-2.332,-1.227 -3.229,-4.116 -2.002,-6.448Z" style="fill:#363e4b;"/><path d="M389.738,74.427c1.228,-2.332 4.117,-3.229 6.449,-2.001c2.332,1.227 3.229,4.116 2.002,6.448c-1.227,2.332 -4.117,3.229 -6.449,2.002c-2.332,-1.227 -3.229,-4.117 -2.002,-6.449Z" style="fill:#363e4b;"/></g></g><g><g><path d="M337.165,106.456c2.455,-4.664 8.234,-6.458 12.898,-4.004c4.664,2.454 6.458,8.233 4.003,12.897c-2.454,4.664 -8.233,6.458 -12.897,4.004c-4.664,-2.454 -6.458,-8.233 -4.004,-12.897Z" style="fill:#363e4b;"/><path d="M361.815,59.613c2.454,-4.664 8.233,-6.458 12.897,-4.003c4.664,2.454 6.458,8.233 4.004,12.897c-2.455,4.664 -8.234,6.458 -12.898,4.004c-4.664,-2.455 -6.458,-8.234 -4.003,-12.898Z" style="fill:#363e4b;"/><path d="M373.26,95.438c2.454,-4.664 8.233,-6.458 12.897,-4.004c4.664,2.454 6.458,8.233 4.004,12.897c-2.455,4.664 -8.234,6.458 -12.898,4.004c-4.663,-2.454 -6.457,-8.233 -4.003,-12.897Z" style="fill:#363e4b;"/><path d="M325.708,70.415c2.455,-4.664 8.234,-6.458 12.898,-4.003c4.664,2.454 6.458,8.233 4.003,12.897c-2.454,4.664 -8.233,6.458 -12.897,4.003c-4.664,-2.454 -6.458,-8.233 -4.004,-12.897Z" style="fill:#363e4b;"/><path d="M353.759,85.176c1.227,-2.332 4.116,-3.229 6.448,-2.002c2.332,1.227 3.229,4.117 2.002,6.448c-1.227,2.332 -4.117,3.229 -6.449,2.002c-2.332,-1.227 -3.229,-4.116 -2.001,-6.448Z" style="fill:#363e4b;"/><path d="M389.766,74.322c1.228,-2.332 4.117,-3.229 6.449,-2.002c2.332,1.227 3.229,4.117 2.002,6.449c-1.227,2.332 -4.117,3.229 -6.449,2.002c-2.332,-1.227 -3.229,-4.117 -2.002,-6.449Z" style="fill:#363e4b;"/><path d="M342.215,49.3c1.227,-2.332 4.117,-3.229 6.449,-2.002c2.332,1.227 3.229,4.116 2.001,6.448c-1.227,2.332 -4.116,3.229 -6.448,2.002c-2.332,-1.227 -3.229,-4.116 -2.002,-6.448Z" style="fill:#363e4b;"/><path d="M365.117,121.164c1.227,-2.332 4.117,-3.229 6.449,-2.002c2.332,1.228 3.229,4.117 2.002,6.449c-1.228,2.332 -4.117,3.229 -6.449,2.002c-2.332,-1.227 -3.229,-4.117 -2.002,-6.449Z" style="fill:#363e4b;"/><path d="M317.566,96.142c1.227,-2.332 4.116,-3.229 6.448,-2.002c2.332,1.227 3.229,4.117 2.002,6.449c-1.227,2.332 -4.116,3.229 -6.448,2.001c-2.332,-1.227 -3.229,-4.116 -2.002,-6.448Z" style="fill:#363e4b;"/></g><g><path d="M361.765,59.707c2.454,-4.664 8.234,-6.458 12.897,-4.003c4.664,2.454 6.458,8.233 4.004,12.897c-2.454,4.664 -8.233,6.458 -12.897,4.004c-4.664,-2.455 -6.458,-8.234 -4.004,-12.898Z" style="fill:#363e4b;"/><path d="M386.414,12.865c2.455,-4.664 8.234,-6.458 12.898,-4.003c4.664,2.454 6.458,8.233 4.003,12.897c-2.454,4.664 -8.233,6.458 -12.897,4.003c-4.664,-2.454 -6.458,-8.233 -4.004,-12.897Z" style="fill:#363e4b;"/><path d="M397.86,48.689c2.454,-4.664 8.233,-6.457 12.897,-4.003c4.664,2.454 6.458,8.233 4.003,12.897c-2.454,4.664 -8.233,6.458 -12.897,4.004c-4.664,-2.455 -6.458,-8.234 -4.003,-12.898Z" style="fill:#363e4b;"/><path d="M350.308,23.667c2.454,-4.664 8.233,-6.458 12.897,-4.004c4.664,2.455 6.458,8.234 4.004,12.898c-2.454,4.663 -8.233,6.457 -12.897,4.003c-4.664,-2.454 -6.458,-8.233 -4.004,-12.897Z" style="fill:#363e4b;"/><path d="M378.358,38.427c1.227,-2.331 4.117,-3.228 6.449,-2.001c2.332,1.227 3.229,4.116 2.002,6.448c-1.227,2.332 -4.117,3.229 -6.449,2.002c-2.332,-1.227 -3.229,-4.117 -2.002,-6.449Z" style="fill:#363e4b;"/><path d="M414.366,27.574c1.227,-2.332 4.117,-3.229 6.449,-2.002c2.332,1.227 3.229,4.117 2.002,6.449c-1.227,2.332 -4.117,3.229 -6.449,2.002c-2.332,-1.228 -3.229,-4.117 -2.002,-6.449Z" style="fill:#363e4b;"/><path d="M366.815,2.551c1.227,-2.332 4.116,-3.229 6.448,-2.001c2.332,1.227 3.229,4.116 2.002,6.448c-1.227,2.332 -4.116,3.229 -6.448,2.002c-2.332,-1.227 -3.229,-4.117 -2.002,-6.449Z" style="fill:#363e4b;"/><path d="M389.717,74.416c1.227,-2.332 4.117,-3.229 6.449,-2.002c2.332,1.227 3.229,4.117 2.001,6.449c-1.227,2.332 -4.116,3.229 -6.448,2.002c-2.332,-1.227 -3.229,-4.117 -2.002,-6.449Z" style="fill:#363e4b;"/><path d="M342.166,49.394c1.227,-2.332 4.116,-3.229 6.448,-2.002c2.332,1.227 3.229,4.116 2.002,6.448c-1.227,2.332 -4.117,3.229 -6.449,2.002c-2.332,-1.227 -3.229,-4.116 -2.001,-6.448Z" style="fill:#363e4b;"/></g></g></g></g><g><g><g><g><path d="M430.663,274.693c2.454,-4.664 8.233,-6.458 12.897,-4.004c4.664,2.454 6.458,8.233 4.004,12.897c-2.454,4.664 -8.233,6.458 -12.897,4.004c-4.664,-2.454 -6.458,-8.233 -4.004,-12.897Z" style="fill:#363e4b;"/><path d="M455.312,227.85c2.455,-4.663 8.234,-6.457 12.898,-4.003c4.664,2.454 6.458,8.233 4.003,12.897c-2.454,4.664 -8.233,6.458 -12.897,4.004c-4.664,-2.455 -6.458,-8.234 -4.004,-12.898Z" style="fill:#363e4b;"/><path d="M466.757,263.675c2.455,-4.664 8.234,-6.458 12.898,-4.004c4.664,2.454 6.458,8.233 4.003,12.897c-2.454,4.664 -8.233,6.458 -12.897,4.004c-4.664,-2.454 -6.458,-8.233 -4.004,-12.897Z" style="fill:#363e4b;"/><path d="M419.206,238.652c2.454,-4.664 8.233,-6.458 12.897,-4.003c4.664,2.454 6.458,8.233 4.004,12.897c-2.454,4.664 -8.233,6.458 -12.897,4.003c-4.664,-2.454 -6.458,-8.233 -4.004,-12.897Z" style="fill:#363e4b;"/><path d="M447.256,253.413c1.227,-2.332 4.117,-3.229 6.449,-2.002c2.332,1.227 3.229,4.117 2.002,6.449c-1.227,2.332 -4.117,3.229 -6.449,2.001c-2.332,-1.227 -3.229,-4.116 -2.002,-6.448Z" style="fill:#363e4b;"/><path d="M483.264,242.559c1.227,-2.332 4.117,-3.229 6.449,-2.002c2.332,1.227 3.229,4.117 2.002,6.449c-1.228,2.332 -4.117,3.229 -6.449,2.002c-2.332,-1.227 -3.229,-4.117 -2.002,-6.449Z" style="fill:#363e4b;"/><path d="M435.713,217.537c1.227,-2.332 4.116,-3.229 6.448,-2.002c2.332,1.227 3.229,4.117 2.002,6.448c-1.227,2.332 -4.117,3.229 -6.449,2.002c-2.331,-1.227 -3.228,-4.116 -2.001,-6.448Z" style="fill:#363e4b;"/><path d="M458.615,289.401c1.227,-2.332 4.116,-3.229 6.448,-2.001c2.332,1.227 3.229,4.116 2.002,6.448c-1.227,2.332 -4.116,3.229 -6.448,2.002c-2.332,-1.227 -3.229,-4.117 -2.002,-6.449Z" style="fill:#363e4b;"/><path d="M411.063,264.379c1.228,-2.332 4.117,-3.229 6.449,-2.002c2.332,1.227 3.229,4.117 2.002,6.449c-1.227,2.332 -4.117,3.229 -6.449,2.002c-2.332,-1.228 -3.229,-4.117 -2.002,-6.449Z" style="fill:#363e4b;"/></g><g><path d="M455.263,227.944c2.454,-4.663 8.233,-6.457 12.897,-4.003c4.664,2.454 6.458,8.233 4.004,12.897c-2.454,4.664 -8.234,6.458 -12.897,4.004c-4.664,-2.455 -6.458,-8.234 -4.004,-12.898Z" style="fill:#363e4b;"/><path d="M479.912,181.102c2.454,-4.664 8.233,-6.458 12.897,-4.003c4.664,2.454 6.458,8.233 4.004,12.897c-2.454,4.664 -8.233,6.458 -12.897,4.003c-4.664,-2.454 -6.458,-8.233 -4.004,-12.897Z" style="fill:#363e4b;"/><path d="M491.357,216.927c2.455,-4.664 8.234,-6.458 12.898,-4.004c4.663,2.454 6.457,8.233 4.003,12.897c-2.454,4.664 -8.233,6.458 -12.897,4.004c-4.664,-2.455 -6.458,-8.234 -4.004,-12.897Z" style="fill:#363e4b;"/><path d="M443.806,191.904c2.454,-4.664 8.233,-6.458 12.897,-4.004c4.664,2.455 6.458,8.234 4.004,12.898c-2.455,4.664 -8.234,6.458 -12.898,4.003c-4.663,-2.454 -6.457,-8.233 -4.003,-12.897Z" style="fill:#363e4b;"/><path d="M471.856,206.665c1.227,-2.332 4.117,-3.229 6.449,-2.002c2.332,1.227 3.229,4.116 2.001,6.448c-1.227,2.332 -4.116,3.229 -6.448,2.002c-2.332,-1.227 -3.229,-4.116 -2.002,-6.448Z" style="fill:#363e4b;"/><path d="M507.864,195.811c1.227,-2.332 4.117,-3.229 6.448,-2.002c2.332,1.227 3.229,4.117 2.002,6.449c-1.227,2.332 -4.116,3.229 -6.448,2.002c-2.332,-1.228 -3.229,-4.117 -2.002,-6.449Z" style="fill:#363e4b;"/><path d="M460.312,170.788c1.228,-2.331 4.117,-3.228 6.449,-2.001c2.332,1.227 3.229,4.116 2.002,6.448c-1.227,2.332 -4.117,3.229 -6.449,2.002c-2.332,-1.227 -3.229,-4.117 -2.002,-6.449Z" style="fill:#363e4b;"/><path d="M483.215,242.653c1.227,-2.332 4.116,-3.229 6.448,-2.002c2.332,1.227 3.229,4.117 2.002,6.449c-1.227,2.332 -4.117,3.229 -6.449,2.002c-2.332,-1.227 -3.229,-4.117 -2.001,-6.449Z" style="fill:#363e4b;"/><path d="M435.663,217.631c1.227,-2.332 4.117,-3.229 6.449,-2.002c2.332,1.227 3.229,4.117 2.002,6.448c-1.227,2.332 -4.117,3.229 -6.449,2.002c-2.332,-1.227 -3.229,-4.116 -2.002,-6.448Z" style="fill:#363e4b;"/></g></g><g><g><path d="M383.09,249.659c2.454,-4.664 8.234,-6.458 12.897,-4.004c4.664,2.454 6.458,8.234 4.004,12.897c-2.454,4.664 -8.233,6.458 -12.897,4.004c-4.664,-2.454 -6.458,-8.233 -4.004,-12.897Z" style="fill:#363e4b;"/><path d="M407.739,202.817c2.455,-4.664 8.234,-6.458 12.898,-4.004c4.664,2.454 6.458,8.233 4.003,12.897c-2.454,4.664 -8.233,6.458 -12.897,4.004c-4.664,-2.454 -6.458,-8.233 -4.004,-12.897Z" style="fill:#363e4b;"/><path d="M419.185,238.641c2.454,-4.664 8.233,-6.458 12.897,-4.004c4.664,2.455 6.458,8.234 4.003,12.898c-2.454,4.663 -8.233,6.457 -12.897,4.003c-4.664,-2.454 -6.458,-8.233 -4.003,-12.897Z" style="fill:#363e4b;"/><path d="M371.633,213.618c2.454,-4.663 8.233,-6.457 12.897,-4.003c4.664,2.454 6.458,8.233 4.004,12.897c-2.454,4.664 -8.233,6.458 -12.897,4.004c-4.664,-2.455 -6.458,-8.234 -4.004,-12.898Z" style="fill:#363e4b;"/><path d="M399.683,228.379c1.227,-2.332 4.117,-3.229 6.449,-2.002c2.332,1.227 3.229,4.117 2.002,6.449c-1.227,2.332 -4.117,3.229 -6.449,2.002c-2.332,-1.227 -3.229,-4.117 -2.002,-6.449Z" style="fill:#363e4b;"/><path d="M435.691,217.525c1.227,-2.332 4.117,-3.229 6.449,-2.001c2.332,1.227 3.229,4.116 2.002,6.448c-1.227,2.332 -4.117,3.229 -6.449,2.002c-2.332,-1.227 -3.229,-4.117 -2.002,-6.449Z" style="fill:#363e4b;"/><path d="M388.14,192.503c1.227,-2.332 4.116,-3.229 6.448,-2.002c2.332,1.227 3.229,4.117 2.002,6.449c-1.227,2.332 -4.116,3.229 -6.448,2.002c-2.332,-1.228 -3.229,-4.117 -2.002,-6.449Z" style="fill:#363e4b;"/><path d="M411.042,264.368c1.227,-2.332 4.117,-3.229 6.449,-2.002c2.332,1.227 3.228,4.116 2.001,6.448c-1.227,2.332 -4.116,3.229 -6.448,2.002c-2.332,-1.227 -3.229,-4.116 -2.002,-6.448Z" style="fill:#363e4b;"/><path d="M363.49,239.345c1.228,-2.332 4.117,-3.229 6.449,-2.002c2.332,1.227 3.229,4.117 2.002,6.449c-1.227,2.332 -4.117,3.229 -6.449,2.002c-2.332,-1.227 -3.229,-4.117 -2.002,-6.449Z" style="fill:#363e4b;"/></g><g><path d="M407.69,202.911c2.454,-4.664 8.233,-6.458 12.897,-4.004c4.664,2.454 6.458,8.233 4.004,12.897c-2.454,4.664 -8.233,6.458 -12.897,4.004c-4.664,-2.454 -6.458,-8.233 -4.004,-12.897Z" style="fill:#363e4b;"/><path d="M432.339,156.068c2.455,-4.663 8.234,-6.457 12.897,-4.003c4.664,2.454 6.458,8.233 4.004,12.897c-2.454,4.664 -8.233,6.458 -12.897,4.004c-4.664,-2.455 -6.458,-8.234 -4.004,-12.898Z" style="fill:#363e4b;"/><path d="M443.784,191.893c2.455,-4.664 8.234,-6.458 12.898,-4.004c4.664,2.454 6.458,8.233 4.003,12.897c-2.454,4.664 -8.233,6.458 -12.897,4.004c-4.664,-2.454 -6.458,-8.233 -4.004,-12.897Z" style="fill:#363e4b;"/><path d="M396.233,166.87c2.454,-4.664 8.233,-6.458 12.897,-4.003c4.664,2.454 6.458,8.233 4.004,12.897c-2.454,4.664 -8.233,6.458 -12.897,4.004c-4.664,-2.455 -6.458,-8.234 -4.004,-12.898Z" style="fill:#363e4b;"/><path d="M424.283,181.631c1.227,-2.332 4.117,-3.229 6.449,-2.002c2.332,1.227 3.229,4.117 2.002,6.449c-1.228,2.332 -4.117,3.229 -6.449,2.001c-2.332,-1.227 -3.229,-4.116 -2.002,-6.448Z" style="fill:#363e4b;"/><path d="M460.291,170.777c1.227,-2.332 4.117,-3.229 6.449,-2.002c2.332,1.227 3.229,4.117 2.001,6.449c-1.227,2.332 -4.116,3.229 -6.448,2.002c-2.332,-1.227 -3.229,-4.117 -2.002,-6.449Z" style="fill:#363e4b;"/><path d="M412.74,145.755c1.227,-2.332 4.116,-3.229 6.448,-2.002c2.332,1.227 3.229,4.117 2.002,6.449c-1.227,2.331 -4.117,3.228 -6.449,2.001c-2.332,-1.227 -3.229,-4.116 -2.001,-6.448Z" style="fill:#363e4b;"/><path d="M435.642,217.619c1.227,-2.332 4.116,-3.229 6.448,-2.001c2.332,1.227 3.229,4.116 2.002,6.448c-1.227,2.332 -4.116,3.229 -6.448,2.002c-2.332,-1.227 -3.229,-4.117 -2.002,-6.449Z" style="fill:#363e4b;"/><path d="M388.09,192.597c1.227,-2.332 4.117,-3.229 6.449,-2.002c2.332,1.227 3.229,4.117 2.002,6.449c-1.227,2.332 -4.117,3.229 -6.449,2.002c-2.332,-1.228 -3.229,-4.117 -2.002,-6.449Z" style="fill:#363e4b;"/></g></g></g><g><g><g><path d="M479.719,181.47c2.454,-4.664 8.233,-6.458 12.897,-4.004c4.664,2.454 6.458,8.233 4.004,12.897c-2.455,4.664 -8.234,6.458 -12.898,4.004c-4.664,-2.454 -6.458,-8.233 -4.003,-12.897Z" style="fill:#363e4b;"/><path d="M504.368,134.628c2.454,-4.664 8.233,-6.458 12.897,-4.004c4.664,2.454 6.458,8.233 4.004,12.897c-2.454,4.664 -8.233,6.458 -12.897,4.004c-4.664,-2.454 -6.458,-8.233 -4.004,-12.897Z" style="fill:#363e4b;"/><path d="M515.813,170.452c2.454,-4.664 8.233,-6.458 12.897,-4.004c4.664,2.454 6.458,8.234 4.004,12.897c-2.454,4.664 -8.233,6.458 -12.897,4.004c-4.664,-2.454 -6.458,-8.233 -4.004,-12.897Z" style="fill:#363e4b;"/><path d="M468.262,145.429c2.454,-4.664 8.233,-6.457 12.897,-4.003c4.664,2.454 6.458,8.233 4.004,12.897c-2.455,4.664 -8.234,6.458 -12.898,4.004c-4.664,-2.455 -6.458,-8.234 -4.003,-12.898Z" style="fill:#363e4b;"/><path d="M496.312,160.19c1.227,-2.332 4.116,-3.229 6.448,-2.002c2.332,1.227 3.229,4.117 2.002,6.449c-1.227,2.332 -4.116,3.229 -6.448,2.002c-2.332,-1.228 -3.229,-4.117 -2.002,-6.449Z" style="fill:#363e4b;"/><path d="M532.32,149.336c1.227,-2.332 4.116,-3.229 6.448,-2.001c2.332,1.227 3.229,4.116 2.002,6.448c-1.227,2.332 -4.117,3.229 -6.448,2.002c-2.332,-1.227 -3.229,-4.117 -2.002,-6.449Z" style="fill:#363e4b;"/><path d="M484.768,124.314c1.227,-2.332 4.117,-3.229 6.449,-2.002c2.332,1.227 3.229,4.117 2.002,6.449c-1.227,2.332 -4.117,3.229 -6.449,2.002c-2.332,-1.228 -3.229,-4.117 -2.002,-6.449Z" style="fill:#363e4b;"/><path d="M507.67,196.179c1.228,-2.332 4.117,-3.229 6.449,-2.002c2.332,1.227 3.229,4.116 2.002,6.448c-1.227,2.332 -4.117,3.229 -6.449,2.002c-2.332,-1.227 -3.229,-4.116 -2.002,-6.448Z" style="fill:#363e4b;"/><path d="M460.119,171.156c1.227,-2.332 4.117,-3.229 6.449,-2.002c2.332,1.227 3.229,4.117 2.001,6.449c-1.227,2.332 -4.116,3.229 -6.448,2.002c-2.332,-1.227 -3.229,-4.117 -2.002,-6.449Z" style="fill:#363e4b;"/></g><g><path d="M504.319,134.722c2.454,-4.664 8.233,-6.458 12.897,-4.004c4.664,2.454 6.458,8.233 4.003,12.897c-2.454,4.664 -8.233,6.458 -12.897,4.004c-4.664,-2.454 -6.458,-8.233 -4.003,-12.897Z" style="fill:#363e4b;"/><path d="M528.968,87.879c2.454,-4.664 8.233,-6.457 12.897,-4.003c4.664,2.454 6.458,8.233 4.004,12.897c-2.455,4.664 -8.234,6.458 -12.898,4.004c-4.663,-2.455 -6.457,-8.234 -4.003,-12.898Z" style="fill:#363e4b;"/><path d="M540.413,123.704c2.454,-4.664 8.233,-6.458 12.897,-4.004c4.664,2.454 6.458,8.233 4.004,12.897c-2.454,4.664 -8.234,6.458 -12.897,4.004c-4.664,-2.454 -6.458,-8.233 -4.004,-12.897Z" style="fill:#363e4b;"/><path d="M492.861,98.681c2.455,-4.664 8.234,-6.458 12.898,-4.003c4.664,2.454 6.458,8.233 4.003,12.897c-2.454,4.664 -8.233,6.458 -12.897,4.003c-4.664,-2.454 -6.458,-8.233 -4.004,-12.897Z" style="fill:#363e4b;"/><path d="M520.912,113.442c1.227,-2.332 4.116,-3.229 6.448,-2.002c2.332,1.227 3.229,4.117 2.002,6.449c-1.227,2.332 -4.117,3.228 -6.449,2.001c-2.332,-1.227 -3.229,-4.116 -2.001,-6.448Z" style="fill:#363e4b;"/><path d="M556.919,102.588c1.228,-2.332 4.117,-3.229 6.449,-2.002c2.332,1.227 3.229,4.117 2.002,6.449c-1.227,2.332 -4.117,3.229 -6.449,2.002c-2.332,-1.227 -3.229,-4.117 -2.002,-6.449Z" style="fill:#363e4b;"/><path d="M509.368,77.566c1.227,-2.332 4.117,-3.229 6.449,-2.002c2.332,1.227 3.229,4.117 2.002,6.448c-1.228,2.332 -4.117,3.229 -6.449,2.002c-2.332,-1.227 -3.229,-4.116 -2.002,-6.448Z" style="fill:#363e4b;"/><path d="M532.27,149.43c1.227,-2.332 4.117,-3.229 6.449,-2.001c2.332,1.227 3.229,4.116 2.002,6.448c-1.227,2.332 -4.117,3.229 -6.449,2.002c-2.332,-1.227 -3.229,-4.117 -2.002,-6.449Z" style="fill:#363e4b;"/><path d="M484.719,124.408c1.227,-2.332 4.116,-3.229 6.448,-2.002c2.332,1.227 3.229,4.117 2.002,6.449c-1.227,2.332 -4.116,3.229 -6.448,2.002c-2.332,-1.228 -3.229,-4.117 -2.002,-6.449Z" style="fill:#363e4b;"/></g></g><g><g><path d="M432.146,156.436c2.454,-4.664 8.233,-6.458 12.897,-4.004c4.664,2.455 6.458,8.234 4.004,12.898c-2.455,4.664 -8.234,6.458 -12.898,4.003c-4.663,-2.454 -6.457,-8.233 -4.003,-12.897Z" style="fill:#363e4b;"/><path d="M456.795,109.594c2.454,-4.664 8.233,-6.458 12.897,-4.004c4.664,2.454 6.458,8.234 4.004,12.897c-2.454,4.664 -8.233,6.458 -12.897,4.004c-4.664,-2.454 -6.458,-8.233 -4.004,-12.897Z" style="fill:#363e4b;"/><path d="M468.24,145.418c2.454,-4.664 8.233,-6.458 12.897,-4.004c4.664,2.455 6.458,8.234 4.004,12.898c-2.454,4.664 -8.233,6.458 -12.897,4.003c-4.664,-2.454 -6.458,-8.233 -4.004,-12.897Z" style="fill:#363e4b;"/><path d="M420.689,120.396c2.454,-4.664 8.233,-6.458 12.897,-4.004c4.664,2.454 6.458,8.233 4.004,12.897c-2.455,4.664 -8.234,6.458 -12.898,4.004c-4.664,-2.454 -6.458,-8.233 -4.003,-12.897Z" style="fill:#363e4b;"/><path d="M448.739,135.156c1.227,-2.332 4.117,-3.229 6.449,-2.002c2.332,1.227 3.228,4.117 2.001,6.449c-1.227,2.332 -4.116,3.229 -6.448,2.002c-2.332,-1.227 -3.229,-4.117 -2.002,-6.449Z" style="fill:#363e4b;"/><path d="M484.747,124.303c1.227,-2.332 4.116,-3.229 6.448,-2.002c2.332,1.227 3.229,4.116 2.002,6.448c-1.227,2.332 -4.116,3.229 -6.448,2.002c-2.332,-1.227 -3.229,-4.116 -2.002,-6.448Z" style="fill:#363e4b;"/><path d="M437.195,99.28c1.227,-2.332 4.117,-3.229 6.449,-2.002c2.332,1.227 3.229,4.117 2.002,6.449c-1.227,2.332 -4.117,3.229 -6.449,2.002c-2.332,-1.227 -3.229,-4.117 -2.002,-6.449Z" style="fill:#363e4b;"/><path d="M460.098,171.145c1.227,-2.332 4.116,-3.229 6.448,-2.002c2.332,1.227 3.229,4.117 2.002,6.449c-1.227,2.332 -4.117,3.229 -6.449,2.001c-2.332,-1.227 -3.229,-4.116 -2.001,-6.448Z" style="fill:#363e4b;"/><path d="M412.546,146.122c1.227,-2.332 4.117,-3.229 6.449,-2.002c2.332,1.228 3.229,4.117 2.002,6.449c-1.228,2.332 -4.117,3.229 -6.449,2.002c-2.332,-1.227 -3.229,-4.117 -2.002,-6.449Z" style="fill:#363e4b;"/></g><g><path d="M456.746,109.688c2.454,-4.664 8.233,-6.458 12.897,-4.004c4.664,2.454 6.458,8.234 4.004,12.897c-2.455,4.664 -8.234,6.458 -12.898,4.004c-4.664,-2.454 -6.458,-8.233 -4.003,-12.897Z" style="fill:#363e4b;"/><path d="M481.395,62.846c2.454,-4.664 8.233,-6.458 12.897,-4.004c4.664,2.454 6.458,8.233 4.004,12.897c-2.454,4.664 -8.234,6.458 -12.897,4.004c-4.664,-2.454 -6.458,-8.233 -4.004,-12.897Z" style="fill:#363e4b;"/><path d="M492.84,98.67c2.454,-4.664 8.233,-6.458 12.897,-4.004c4.664,2.455 6.458,8.234 4.004,12.897c-2.454,4.664 -8.233,6.458 -12.897,4.004c-4.664,-2.454 -6.458,-8.233 -4.004,-12.897Z" style="fill:#363e4b;"/><path d="M445.289,73.647c2.454,-4.663 8.233,-6.457 12.897,-4.003c4.664,2.454 6.458,8.233 4.003,12.897c-2.454,4.664 -8.233,6.458 -12.897,4.004c-4.664,-2.455 -6.458,-8.234 -4.003,-12.898Z" style="fill:#363e4b;"/><path d="M473.339,88.408c1.227,-2.332 4.116,-3.229 6.448,-2.002c2.332,1.227 3.229,4.117 2.002,6.449c-1.227,2.332 -4.116,3.229 -6.448,2.002c-2.332,-1.228 -3.229,-4.117 -2.002,-6.449Z" style="fill:#363e4b;"/><path d="M509.347,77.554c1.227,-2.332 4.116,-3.229 6.448,-2.001c2.332,1.227 3.229,4.116 2.002,6.448c-1.227,2.332 -4.117,3.229 -6.449,2.002c-2.332,-1.227 -3.229,-4.117 -2.001,-6.449Z" style="fill:#363e4b;"/><path d="M461.795,52.532c1.227,-2.332 4.117,-3.229 6.449,-2.002c2.332,1.227 3.229,4.117 2.002,6.449c-1.228,2.332 -4.117,3.229 -6.449,2.002c-2.332,-1.228 -3.229,-4.117 -2.002,-6.449Z" style="fill:#363e4b;"/><path d="M484.697,124.397c1.227,-2.332 4.117,-3.229 6.449,-2.002c2.332,1.227 3.229,4.116 2.002,6.448c-1.227,2.332 -4.117,3.229 -6.449,2.002c-2.332,-1.227 -3.229,-4.116 -2.002,-6.448Z" style="fill:#363e4b;"/><path d="M437.146,99.374c1.227,-2.332 4.117,-3.229 6.449,-2.002c2.331,1.227 3.228,4.117 2.001,6.449c-1.227,2.332 -4.116,3.229 -6.448,2.002c-2.332,-1.227 -3.229,-4.117 -2.002,-6.449Z" style="fill:#363e4b;"/></g></g></g></g></g></g></g></g></svg>