<?xml version="1.0" encoding="UTF-8" standalone="no"?><!DOCTYPE svg PUBLIC "-//W3C//DTD SVG 1.1//EN" "http://www.w3.org/Graphics/SVG/1.1/DTD/svg11.dtd"><svg width="100%" height="100%" viewBox="0 0 298 297" version="1.1" xmlns="http://www.w3.org/2000/svg" xmlns:xlink="http://www.w3.org/1999/xlink" xml:space="preserve" xmlns:serif="http://www.serif.com/" style="fill-rule:evenodd;clip-rule:evenodd;stroke-linejoin:round;stroke-miterlimit:2;"><g><g><g><g><g><path d="M67.722,224.712c2.454,-4.664 8.234,-6.458 12.897,-4.003c4.664,2.454 6.458,8.233 4.004,12.897c-2.454,4.664 -8.233,6.458 -12.897,4.003c-4.664,-2.454 -6.458,-8.233 -4.004,-12.897Z" style="fill:#363e4b;"/><path d="M92.371,177.87c2.455,-4.664 8.234,-6.458 12.898,-4.004c4.664,2.455 6.458,8.234 4.003,12.898c-2.454,4.663 -8.233,6.457 -12.897,4.003c-4.664,-2.454 -6.458,-8.233 -4.004,-12.897Z" style="fill:#363e4b;"/><path d="M103.817,213.694c2.454,-4.664 8.233,-6.458 12.897,-4.003c4.664,2.454 6.458,8.233 4.003,12.897c-2.454,4.664 -8.233,6.458 -12.897,4.003c-4.664,-2.454 -6.458,-8.233 -4.003,-12.897Z" style="fill:#363e4b;"/><path d="M56.265,188.672c2.454,-4.664 8.233,-6.458 12.897,-4.004c4.664,2.454 6.458,8.233 4.004,12.897c-2.454,4.664 -8.233,6.458 -12.897,4.004c-4.664,-2.454 -6.458,-8.233 -4.004,-12.897Z" style="fill:#363e4b;"/><path d="M84.315,203.432c1.227,-2.332 4.117,-3.229 6.449,-2.002c2.332,1.228 3.229,4.117 2.002,6.449c-1.227,2.332 -4.117,3.229 -6.449,2.002c-2.332,-1.227 -3.229,-4.117 -2.002,-6.449Z" style="fill:#363e4b;"/><path d="M120.323,192.579c1.227,-2.332 4.117,-3.229 6.449,-2.002c2.332,1.227 3.229,4.117 2.002,6.448c-1.227,2.332 -4.117,3.229 -6.449,2.002c-2.332,-1.227 -3.229,-4.116 -2.002,-6.448Z" style="fill:#363e4b;"/><path d="M72.772,167.556c1.227,-2.332 4.116,-3.229 6.448,-2.002c2.332,1.228 3.229,4.117 2.002,6.449c-1.227,2.332 -4.116,3.229 -6.448,2.002c-2.332,-1.227 -3.229,-4.117 -2.002,-6.449Z" style="fill:#363e4b;"/><path d="M95.674,239.421c1.227,-2.332 4.117,-3.229 6.449,-2.002c2.332,1.227 3.229,4.117 2.001,6.449c-1.227,2.332 -4.116,3.229 -6.448,2.002c-2.332,-1.228 -3.229,-4.117 -2.002,-6.449Z" style="fill:#363e4b;"/><path d="M48.122,214.398c1.228,-2.332 4.117,-3.229 6.449,-2.001c2.332,1.227 3.229,4.116 2.002,6.448c-1.227,2.332 -4.117,3.229 -6.449,2.002c-2.332,-1.227 -3.229,-4.117 -2.002,-6.449Z" style="fill:#363e4b;"/></g><g><path d="M92.322,177.964c2.454,-4.664 8.233,-6.458 12.897,-4.004c4.664,2.455 6.458,8.234 4.004,12.898c-2.454,4.663 -8.233,6.457 -12.897,4.003c-4.664,-2.454 -6.458,-8.233 -4.004,-12.897Z" style="fill:#363e4b;"/><path d="M116.971,131.122c2.455,-4.664 8.234,-6.458 12.898,-4.004c4.663,2.454 6.457,8.233 4.003,12.897c-2.454,4.664 -8.233,6.458 -12.897,4.004c-4.664,-2.454 -6.458,-8.233 -4.004,-12.897Z" style="fill:#363e4b;"/><path d="M128.416,166.946c2.455,-4.664 8.234,-6.458 12.898,-4.004c4.664,2.455 6.458,8.234 4.003,12.898c-2.454,4.664 -8.233,6.458 -12.897,4.003c-4.664,-2.454 -6.458,-8.233 -4.004,-12.897Z" style="fill:#363e4b;"/><path d="M80.865,141.924c2.454,-4.664 8.233,-6.458 12.897,-4.004c4.664,2.454 6.458,8.233 4.004,12.897c-2.454,4.664 -8.233,6.458 -12.897,4.004c-4.664,-2.454 -6.458,-8.234 -4.004,-12.897Z" style="fill:#363e4b;"/><path d="M108.915,156.684c1.227,-2.332 4.117,-3.229 6.449,-2.002c2.332,1.227 3.229,4.117 2.002,6.449c-1.228,2.332 -4.117,3.229 -6.449,2.002c-2.332,-1.227 -3.229,-4.117 -2.002,-6.449Z" style="fill:#363e4b;"/><path d="M144.923,145.83c1.227,-2.331 4.117,-3.228 6.449,-2.001c2.332,1.227 3.229,4.116 2.001,6.448c-1.227,2.332 -4.116,3.229 -6.448,2.002c-2.332,-1.227 -3.229,-4.117 -2.002,-6.449Z" style="fill:#363e4b;"/><path d="M97.372,120.808c1.227,-2.332 4.116,-3.229 6.448,-2.002c2.332,1.227 3.229,4.117 2.002,6.449c-1.227,2.332 -4.117,3.229 -6.449,2.002c-2.332,-1.227 -3.229,-4.117 -2.001,-6.449Z" style="fill:#363e4b;"/><path d="M120.274,192.673c1.227,-2.332 4.116,-3.229 6.448,-2.002c2.332,1.227 3.229,4.117 2.002,6.448c-1.227,2.332 -4.116,3.229 -6.448,2.002c-2.332,-1.227 -3.229,-4.116 -2.002,-6.448Z" style="fill:#363e4b;"/><path d="M72.722,167.65c1.227,-2.332 4.117,-3.229 6.449,-2.002c2.332,1.228 3.229,4.117 2.002,6.449c-1.227,2.332 -4.117,3.229 -6.449,2.002c-2.332,-1.227 -3.229,-4.117 -2.002,-6.449Z" style="fill:#363e4b;"/></g></g><g><g><path d="M20.149,199.678c2.455,-4.664 8.234,-6.458 12.898,-4.003c4.663,2.454 6.457,8.233 4.003,12.897c-2.454,4.664 -8.233,6.458 -12.897,4.004c-4.664,-2.455 -6.458,-8.234 -4.004,-12.898Z" style="fill:#363e4b;"/><path d="M44.799,152.836c2.454,-4.664 8.233,-6.458 12.897,-4.003c4.664,2.454 6.458,8.233 4.003,12.897c-2.454,4.664 -8.233,6.458 -12.897,4.003c-4.664,-2.454 -6.458,-8.233 -4.003,-12.897Z" style="fill:#363e4b;"/><path d="M56.244,188.66c2.454,-4.663 8.233,-6.457 12.897,-4.003c4.664,2.454 6.458,8.233 4.004,12.897c-2.455,4.664 -8.234,6.458 -12.898,4.004c-4.664,-2.455 -6.458,-8.234 -4.003,-12.898Z" style="fill:#363e4b;"/><path d="M8.692,163.638c2.454,-4.664 8.234,-6.458 12.897,-4.004c4.664,2.455 6.458,8.234 4.004,12.898c-2.454,4.663 -8.233,6.457 -12.897,4.003c-4.664,-2.454 -6.458,-8.233 -4.004,-12.897Z" style="fill:#363e4b;"/><path d="M36.742,178.399c1.228,-2.332 4.117,-3.229 6.449,-2.002c2.332,1.227 3.229,4.116 2.002,6.448c-1.227,2.332 -4.117,3.229 -6.449,2.002c-2.332,-1.227 -3.229,-4.117 -2.002,-6.448Z" style="fill:#363e4b;"/><path d="M72.75,167.545c1.227,-2.332 4.117,-3.229 6.449,-2.002c2.332,1.227 3.229,4.117 2.002,6.449c-1.227,2.332 -4.117,3.229 -6.449,2.002c-2.332,-1.228 -3.229,-4.117 -2.002,-6.449Z" style="fill:#363e4b;"/><path d="M25.199,142.522c1.227,-2.332 4.117,-3.229 6.448,-2.001c2.332,1.227 3.229,4.116 2.002,6.448c-1.227,2.332 -4.116,3.229 -6.448,2.002c-2.332,-1.227 -3.229,-4.117 -2.002,-6.449Z" style="fill:#363e4b;"/><path d="M48.101,214.387c1.227,-2.332 4.117,-3.229 6.449,-2.002c2.332,1.227 3.229,4.117 2.001,6.449c-1.227,2.332 -4.116,3.229 -6.448,2.002c-2.332,-1.227 -3.229,-4.117 -2.002,-6.449Z" style="fill:#363e4b;"/><path d="M0.55,189.365c1.227,-2.332 4.116,-3.229 6.448,-2.002c2.332,1.227 3.229,4.116 2.002,6.448c-1.227,2.332 -4.117,3.229 -6.449,2.002c-2.332,-1.227 -3.229,-4.116 -2.001,-6.448Z" style="fill:#363e4b;"/></g><g><path d="M44.749,152.93c2.454,-4.664 8.233,-6.458 12.897,-4.003c4.664,2.454 6.458,8.233 4.004,12.897c-2.454,4.664 -8.233,6.458 -12.897,4.003c-4.664,-2.454 -6.458,-8.233 -4.004,-12.897Z" style="fill:#363e4b;"/><path d="M69.398,106.088c2.455,-4.664 8.234,-6.458 12.898,-4.004c4.664,2.455 6.458,8.234 4.003,12.898c-2.454,4.663 -8.233,6.457 -12.897,4.003c-4.664,-2.454 -6.458,-8.233 -4.004,-12.897Z" style="fill:#363e4b;"/><path d="M80.843,141.912c2.455,-4.664 8.234,-6.458 12.898,-4.003c4.664,2.454 6.458,8.233 4.003,12.897c-2.454,4.664 -8.233,6.458 -12.897,4.003c-4.664,-2.454 -6.458,-8.233 -4.004,-12.897Z" style="fill:#363e4b;"/><path d="M33.292,116.89c2.454,-4.664 8.233,-6.458 12.897,-4.004c4.664,2.454 6.458,8.233 4.004,12.897c-2.454,4.664 -8.233,6.458 -12.897,4.004c-4.664,-2.454 -6.458,-8.233 -4.004,-12.897Z" style="fill:#363e4b;"/><path d="M61.342,131.65c1.227,-2.332 4.117,-3.229 6.449,-2.002c2.332,1.228 3.229,4.117 2.002,6.449c-1.227,2.332 -4.117,3.229 -6.449,2.002c-2.332,-1.227 -3.229,-4.117 -2.002,-6.449Z" style="fill:#363e4b;"/><path d="M97.35,120.797c1.227,-2.332 4.117,-3.229 6.449,-2.002c2.332,1.227 3.229,4.117 2.002,6.449c-1.228,2.331 -4.117,3.228 -6.449,2.001c-2.332,-1.227 -3.229,-4.116 -2.002,-6.448Z" style="fill:#363e4b;"/><path d="M49.799,95.774c1.227,-2.332 4.116,-3.229 6.448,-2.002c2.332,1.228 3.229,4.117 2.002,6.449c-1.227,2.332 -4.117,3.229 -6.449,2.002c-2.331,-1.227 -3.228,-4.117 -2.001,-6.449Z" style="fill:#363e4b;"/><path d="M72.701,167.639c1.227,-2.332 4.116,-3.229 6.448,-2.002c2.332,1.227 3.229,4.117 2.002,6.449c-1.227,2.332 -4.116,3.229 -6.448,2.002c-2.332,-1.228 -3.229,-4.117 -2.002,-6.449Z" style="fill:#363e4b;"/><path d="M25.149,142.616c1.228,-2.332 4.117,-3.229 6.449,-2.001c2.332,1.227 3.229,4.116 2.002,6.448c-1.227,2.332 -4.117,3.229 -6.449,2.002c-2.332,-1.227 -3.229,-4.117 -2.002,-6.449Z" style="fill:#363e4b;"/></g></g></g><g><g><g><path d="M116.778,131.489c2.454,-4.664 8.233,-6.458 12.897,-4.003c4.664,2.454 6.458,8.233 4.004,12.897c-2.455,4.664 -8.234,6.458 -12.898,4.004c-4.663,-2.455 -6.457,-8.234 -4.003,-12.898Z" style="fill:#363e4b;"/><path d="M141.427,84.647c2.454,-4.664 8.233,-6.458 12.897,-4.004c4.664,2.455 6.458,8.234 4.004,12.898c-2.454,4.664 -8.233,6.458 -12.897,4.003c-4.664,-2.454 -6.458,-8.233 -4.004,-12.897Z" style="fill:#363e4b;"/><path d="M152.872,120.471c2.454,-4.664 8.234,-6.458 12.897,-4.003c4.664,2.454 6.458,8.233 4.004,12.897c-2.454,4.664 -8.233,6.458 -12.897,4.004c-4.664,-2.455 -6.458,-8.234 -4.004,-12.898Z" style="fill:#363e4b;"/><path d="M105.321,95.449c2.454,-4.664 8.233,-6.458 12.897,-4.004c4.664,2.455 6.458,8.234 4.004,12.898c-2.455,4.663 -8.234,6.457 -12.898,4.003c-4.664,-2.454 -6.457,-8.233 -4.003,-12.897Z" style="fill:#363e4b;"/><path d="M133.371,110.209c1.227,-2.332 4.117,-3.228 6.449,-2.001c2.332,1.227 3.229,4.116 2.001,6.448c-1.227,2.332 -4.116,3.229 -6.448,2.002c-2.332,-1.227 -3.229,-4.117 -2.002,-6.449Z" style="fill:#363e4b;"/><path d="M169.379,99.356c1.227,-2.332 4.116,-3.229 6.448,-2.002c2.332,1.227 3.229,4.117 2.002,6.449c-1.227,2.332 -4.116,3.229 -6.448,2.001c-2.332,-1.227 -3.229,-4.116 -2.002,-6.448Z" style="fill:#363e4b;"/><path d="M121.827,74.333c1.227,-2.332 4.117,-3.229 6.449,-2.001c2.332,1.227 3.229,4.116 2.002,6.448c-1.227,2.332 -4.117,3.229 -6.449,2.002c-2.332,-1.227 -3.229,-4.117 -2.002,-6.449Z" style="fill:#363e4b;"/><path d="M144.73,146.198c1.227,-2.332 4.116,-3.229 6.448,-2.002c2.332,1.227 3.229,4.117 2.002,6.449c-1.227,2.332 -4.117,3.229 -6.449,2.002c-2.332,-1.227 -3.229,-4.117 -2.001,-6.449Z" style="fill:#363e4b;"/><path d="M97.178,121.176c1.227,-2.332 4.117,-3.229 6.449,-2.002c2.332,1.227 3.229,4.116 2.002,6.448c-1.228,2.332 -4.117,3.229 -6.449,2.002c-2.332,-1.227 -3.229,-4.116 -2.002,-6.448Z" style="fill:#363e4b;"/></g><g><path d="M141.378,84.741c2.454,-4.664 8.233,-6.458 12.897,-4.004c4.664,2.455 6.458,8.234 4.004,12.898c-2.455,4.664 -8.234,6.458 -12.898,4.003c-4.664,-2.454 -6.458,-8.233 -4.003,-12.897Z" style="fill:#363e4b;"/><path d="M166.027,37.899c2.454,-4.664 8.233,-6.458 12.897,-4.004c4.664,2.455 6.458,8.234 4.004,12.898c-2.454,4.663 -8.234,6.457 -12.897,4.003c-4.664,-2.454 -6.458,-8.233 -4.004,-12.897Z" style="fill:#363e4b;"/><path d="M177.472,73.723c2.454,-4.664 8.233,-6.458 12.897,-4.003c4.664,2.454 6.458,8.233 4.004,12.897c-2.454,4.664 -8.233,6.458 -12.897,4.003c-4.664,-2.454 -6.458,-8.233 -4.004,-12.897Z" style="fill:#363e4b;"/><path d="M129.921,48.701c2.454,-4.664 8.233,-6.458 12.897,-4.004c4.664,2.454 6.458,8.233 4.003,12.897c-2.454,4.664 -8.233,6.458 -12.897,4.004c-4.664,-2.454 -6.458,-8.233 -4.003,-12.897Z" style="fill:#363e4b;"/><path d="M157.971,63.461c1.227,-2.332 4.116,-3.229 6.448,-2.002c2.332,1.228 3.229,4.117 2.002,6.449c-1.227,2.332 -4.116,3.229 -6.448,2.002c-2.332,-1.227 -3.229,-4.117 -2.002,-6.449Z" style="fill:#363e4b;"/><path d="M193.979,52.608c1.227,-2.332 4.116,-3.229 6.448,-2.002c2.332,1.227 3.229,4.116 2.002,6.448c-1.227,2.332 -4.117,3.229 -6.449,2.002c-2.332,-1.227 -3.229,-4.116 -2.001,-6.448Z" style="fill:#363e4b;"/><path d="M146.427,27.585c1.227,-2.332 4.117,-3.229 6.449,-2.002c2.332,1.227 3.229,4.117 2.002,6.449c-1.228,2.332 -4.117,3.229 -6.449,2.002c-2.332,-1.227 -3.229,-4.117 -2.002,-6.449Z" style="fill:#363e4b;"/><path d="M169.329,99.45c1.227,-2.332 4.117,-3.229 6.449,-2.002c2.332,1.227 3.229,4.117 2.002,6.449c-1.227,2.332 -4.117,3.229 -6.449,2.001c-2.332,-1.227 -3.229,-4.116 -2.002,-6.448Z" style="fill:#363e4b;"/><path d="M121.778,74.427c1.227,-2.332 4.117,-3.229 6.449,-2.001c2.331,1.227 3.228,4.116 2.001,6.448c-1.227,2.332 -4.116,3.229 -6.448,2.002c-2.332,-1.227 -3.229,-4.117 -2.002,-6.449Z" style="fill:#363e4b;"/></g></g><g><g><path d="M69.205,106.456c2.454,-4.664 8.233,-6.458 12.897,-4.004c4.664,2.454 6.458,8.233 4.004,12.897c-2.454,4.664 -8.233,6.458 -12.897,4.004c-4.664,-2.454 -6.458,-8.233 -4.004,-12.897Z" style="fill:#363e4b;"/><path d="M93.854,59.613c2.454,-4.664 8.233,-6.458 12.897,-4.003c4.664,2.454 6.458,8.233 4.004,12.897c-2.454,4.664 -8.233,6.458 -12.897,4.004c-4.664,-2.455 -6.458,-8.234 -4.004,-12.898Z" style="fill:#363e4b;"/><path d="M105.299,95.438c2.455,-4.664 8.234,-6.458 12.898,-4.004c4.663,2.454 6.457,8.233 4.003,12.897c-2.454,4.664 -8.233,6.458 -12.897,4.004c-4.664,-2.454 -6.458,-8.233 -4.004,-12.897Z" style="fill:#363e4b;"/><path d="M57.748,70.415c2.454,-4.664 8.233,-6.458 12.897,-4.003c4.664,2.454 6.458,8.233 4.004,12.897c-2.454,4.664 -8.234,6.458 -12.897,4.003c-4.664,-2.454 -6.458,-8.233 -4.004,-12.897Z" style="fill:#363e4b;"/><path d="M85.798,85.176c1.227,-2.332 4.117,-3.229 6.449,-2.002c2.332,1.227 3.229,4.117 2.001,6.448c-1.227,2.332 -4.116,3.229 -6.448,2.002c-2.332,-1.227 -3.229,-4.116 -2.002,-6.448Z" style="fill:#363e4b;"/><path d="M121.806,74.322c1.227,-2.332 4.117,-3.229 6.449,-2.002c2.331,1.227 3.228,4.117 2.001,6.449c-1.227,2.332 -4.116,3.229 -6.448,2.002c-2.332,-1.227 -3.229,-4.117 -2.002,-6.449Z" style="fill:#363e4b;"/><path d="M74.254,49.3c1.228,-2.332 4.117,-3.229 6.449,-2.002c2.332,1.227 3.229,4.116 2.002,6.448c-1.227,2.332 -4.117,3.229 -6.449,2.002c-2.332,-1.227 -3.229,-4.116 -2.002,-6.448Z" style="fill:#363e4b;"/><path d="M97.157,121.164c1.227,-2.332 4.116,-3.229 6.448,-2.002c2.332,1.228 3.229,4.117 2.002,6.449c-1.227,2.332 -4.117,3.229 -6.449,2.002c-2.331,-1.227 -3.228,-4.117 -2.001,-6.449Z" style="fill:#363e4b;"/><path d="M49.605,96.142c1.227,-2.332 4.117,-3.229 6.449,-2.002c2.332,1.227 3.229,4.117 2.002,6.449c-1.227,2.332 -4.117,3.229 -6.449,2.001c-2.332,-1.227 -3.229,-4.116 -2.002,-6.448Z" style="fill:#363e4b;"/></g><g><path d="M93.805,59.707c2.454,-4.664 8.233,-6.458 12.897,-4.003c4.664,2.454 6.458,8.233 4.004,12.897c-2.455,4.664 -8.234,6.458 -12.898,4.004c-4.664,-2.455 -6.458,-8.234 -4.003,-12.898Z" style="fill:#363e4b;"/><path d="M118.454,12.865c2.454,-4.664 8.233,-6.458 12.897,-4.003c4.664,2.454 6.458,8.233 4.004,12.897c-2.454,4.664 -8.233,6.458 -12.897,4.003c-4.664,-2.454 -6.458,-8.233 -4.004,-12.897Z" style="fill:#363e4b;"/><path d="M129.899,48.689c2.454,-4.664 8.233,-6.457 12.897,-4.003c4.664,2.454 6.458,8.233 4.004,12.897c-2.454,4.664 -8.233,6.458 -12.897,4.004c-4.664,-2.455 -6.458,-8.234 -4.004,-12.898Z" style="fill:#363e4b;"/><path d="M82.348,23.667c2.454,-4.664 8.233,-6.458 12.897,-4.004c4.664,2.455 6.458,8.234 4.004,12.898c-2.455,4.663 -8.234,6.457 -12.898,4.003c-4.664,-2.454 -6.458,-8.233 -4.003,-12.897Z" style="fill:#363e4b;"/><path d="M110.398,38.427c1.227,-2.331 4.116,-3.228 6.448,-2.001c2.332,1.227 3.229,4.116 2.002,6.448c-1.227,2.332 -4.116,3.229 -6.448,2.002c-2.332,-1.227 -3.229,-4.117 -2.002,-6.449Z" style="fill:#363e4b;"/><path d="M146.406,27.574c1.227,-2.332 4.116,-3.229 6.448,-2.002c2.332,1.227 3.229,4.117 2.002,6.449c-1.227,2.332 -4.116,3.229 -6.448,2.002c-2.332,-1.228 -3.229,-4.117 -2.002,-6.449Z" style="fill:#363e4b;"/><path d="M98.854,2.551c1.227,-2.332 4.117,-3.229 6.449,-2.001c2.332,1.227 3.229,4.116 2.002,6.448c-1.227,2.332 -4.117,3.229 -6.449,2.002c-2.332,-1.227 -3.229,-4.117 -2.002,-6.449Z" style="fill:#363e4b;"/><path d="M121.756,74.416c1.228,-2.332 4.117,-3.229 6.449,-2.002c2.332,1.227 3.229,4.117 2.002,6.449c-1.227,2.332 -4.117,3.229 -6.449,2.002c-2.332,-1.227 -3.229,-4.117 -2.002,-6.449Z" style="fill:#363e4b;"/><path d="M74.205,49.394c1.227,-2.332 4.117,-3.229 6.449,-2.002c2.332,1.227 3.229,4.116 2.001,6.448c-1.227,2.332 -4.116,3.229 -6.448,2.002c-2.332,-1.227 -3.229,-4.116 -2.002,-6.448Z" style="fill:#363e4b;"/></g></g></g></g><g><g><g><g><path d="M162.703,274.693c2.454,-4.664 8.233,-6.458 12.897,-4.004c4.664,2.454 6.458,8.233 4.004,12.897c-2.455,4.664 -8.234,6.458 -12.898,4.004c-4.664,-2.454 -6.458,-8.233 -4.003,-12.897Z" style="fill:#363e4b;"/><path d="M187.352,227.85c2.454,-4.663 8.233,-6.457 12.897,-4.003c4.664,2.454 6.458,8.233 4.004,12.897c-2.454,4.664 -8.234,6.458 -12.897,4.004c-4.664,-2.455 -6.458,-8.234 -4.004,-12.898Z" style="fill:#363e4b;"/><path d="M198.797,263.675c2.454,-4.664 8.233,-6.458 12.897,-4.004c4.664,2.454 6.458,8.233 4.004,12.897c-2.454,4.664 -8.233,6.458 -12.897,4.004c-4.664,-2.454 -6.458,-8.233 -4.004,-12.897Z" style="fill:#363e4b;"/><path d="M151.246,238.652c2.454,-4.664 8.233,-6.458 12.897,-4.003c4.664,2.454 6.458,8.233 4.003,12.897c-2.454,4.664 -8.233,6.458 -12.897,4.003c-4.664,-2.454 -6.458,-8.233 -4.003,-12.897Z" style="fill:#363e4b;"/><path d="M179.296,253.413c1.227,-2.332 4.116,-3.229 6.448,-2.002c2.332,1.227 3.229,4.117 2.002,6.449c-1.227,2.332 -4.116,3.229 -6.448,2.001c-2.332,-1.227 -3.229,-4.116 -2.002,-6.448Z" style="fill:#363e4b;"/><path d="M215.304,242.559c1.227,-2.332 4.116,-3.229 6.448,-2.002c2.332,1.227 3.229,4.117 2.002,6.449c-1.227,2.332 -4.117,3.229 -6.449,2.002c-2.332,-1.227 -3.229,-4.117 -2.001,-6.449Z" style="fill:#363e4b;"/><path d="M167.752,217.537c1.227,-2.332 4.117,-3.229 6.449,-2.002c2.332,1.227 3.229,4.117 2.002,6.448c-1.228,2.332 -4.117,3.229 -6.449,2.002c-2.332,-1.227 -3.229,-4.116 -2.002,-6.448Z" style="fill:#363e4b;"/><path d="M190.654,289.401c1.227,-2.332 4.117,-3.229 6.449,-2.001c2.332,1.227 3.229,4.116 2.002,6.448c-1.227,2.332 -4.117,3.229 -6.449,2.002c-2.332,-1.227 -3.229,-4.117 -2.002,-6.449Z" style="fill:#363e4b;"/><path d="M143.103,264.379c1.227,-2.332 4.117,-3.229 6.449,-2.002c2.331,1.227 3.228,4.117 2.001,6.449c-1.227,2.332 -4.116,3.229 -6.448,2.002c-2.332,-1.228 -3.229,-4.117 -2.002,-6.449Z" style="fill:#363e4b;"/></g><g><path d="M187.302,227.944c2.455,-4.663 8.234,-6.457 12.898,-4.003c4.664,2.454 6.458,8.233 4.003,12.897c-2.454,4.664 -8.233,6.458 -12.897,4.004c-4.664,-2.455 -6.458,-8.234 -4.004,-12.898Z" style="fill:#363e4b;"/><path d="M211.952,181.102c2.454,-4.664 8.233,-6.458 12.897,-4.003c4.664,2.454 6.458,8.233 4.004,12.897c-2.455,4.664 -8.234,6.458 -12.898,4.003c-4.664,-2.454 -6.458,-8.233 -4.003,-12.897Z" style="fill:#363e4b;"/><path d="M223.397,216.927c2.454,-4.664 8.233,-6.458 12.897,-4.004c4.664,2.454 6.458,8.233 4.004,12.897c-2.455,4.664 -8.234,6.458 -12.898,4.004c-4.663,-2.455 -6.457,-8.234 -4.003,-12.897Z" style="fill:#363e4b;"/><path d="M175.845,191.904c2.455,-4.664 8.234,-6.458 12.898,-4.004c4.664,2.455 6.457,8.234 4.003,12.898c-2.454,4.664 -8.233,6.458 -12.897,4.003c-4.664,-2.454 -6.458,-8.233 -4.004,-12.897Z" style="fill:#363e4b;"/><path d="M203.896,206.665c1.227,-2.332 4.116,-3.229 6.448,-2.002c2.332,1.227 3.229,4.116 2.002,6.448c-1.227,2.332 -4.117,3.229 -6.449,2.002c-2.332,-1.227 -3.229,-4.116 -2.001,-6.448Z" style="fill:#363e4b;"/><path d="M239.903,195.811c1.228,-2.332 4.117,-3.229 6.449,-2.002c2.332,1.227 3.229,4.117 2.002,6.449c-1.227,2.332 -4.117,3.229 -6.449,2.002c-2.332,-1.228 -3.229,-4.117 -2.002,-6.449Z" style="fill:#363e4b;"/><path d="M192.352,170.788c1.227,-2.331 4.117,-3.228 6.449,-2.001c2.332,1.227 3.229,4.116 2.001,6.448c-1.227,2.332 -4.116,3.229 -6.448,2.002c-2.332,-1.227 -3.229,-4.117 -2.002,-6.449Z" style="fill:#363e4b;"/><path d="M215.254,242.653c1.227,-2.332 4.117,-3.229 6.449,-2.002c2.332,1.227 3.229,4.117 2.002,6.449c-1.228,2.332 -4.117,3.229 -6.449,2.002c-2.332,-1.227 -3.229,-4.117 -2.002,-6.449Z" style="fill:#363e4b;"/><path d="M167.703,217.631c1.227,-2.332 4.116,-3.229 6.448,-2.002c2.332,1.227 3.229,4.117 2.002,6.448c-1.227,2.332 -4.117,3.229 -6.448,2.002c-2.332,-1.227 -3.229,-4.116 -2.002,-6.448Z" style="fill:#363e4b;"/></g></g><g><g><path d="M115.13,249.659c2.454,-4.664 8.233,-6.458 12.897,-4.004c4.664,2.454 6.458,8.234 4.004,12.897c-2.455,4.664 -8.234,6.458 -12.898,4.004c-4.664,-2.454 -6.458,-8.233 -4.003,-12.897Z" style="fill:#363e4b;"/><path d="M139.779,202.817c2.454,-4.664 8.233,-6.458 12.897,-4.004c4.664,2.454 6.458,8.233 4.004,12.897c-2.454,4.664 -8.233,6.458 -12.897,4.004c-4.664,-2.454 -6.458,-8.233 -4.004,-12.897Z" style="fill:#363e4b;"/><path d="M151.224,238.641c2.454,-4.664 8.233,-6.458 12.897,-4.004c4.664,2.455 6.458,8.234 4.004,12.898c-2.454,4.663 -8.233,6.457 -12.897,4.003c-4.664,-2.454 -6.458,-8.233 -4.004,-12.897Z" style="fill:#363e4b;"/><path d="M103.673,213.618c2.454,-4.663 8.233,-6.457 12.897,-4.003c4.664,2.454 6.458,8.233 4.004,12.897c-2.455,4.664 -8.234,6.458 -12.898,4.004c-4.664,-2.455 -6.458,-8.234 -4.003,-12.898Z" style="fill:#363e4b;"/><path d="M131.723,228.379c1.227,-2.332 4.116,-3.229 6.448,-2.002c2.332,1.227 3.229,4.117 2.002,6.449c-1.227,2.332 -4.116,3.229 -6.448,2.002c-2.332,-1.227 -3.229,-4.117 -2.002,-6.449Z" style="fill:#363e4b;"/><path d="M167.731,217.525c1.227,-2.332 4.116,-3.229 6.448,-2.001c2.332,1.227 3.229,4.116 2.002,6.448c-1.227,2.332 -4.117,3.229 -6.448,2.002c-2.332,-1.227 -3.229,-4.117 -2.002,-6.449Z" style="fill:#363e4b;"/><path d="M120.179,192.503c1.227,-2.332 4.117,-3.229 6.449,-2.002c2.332,1.227 3.229,4.117 2.002,6.449c-1.227,2.332 -4.117,3.229 -6.449,2.002c-2.332,-1.228 -3.229,-4.117 -2.002,-6.449Z" style="fill:#363e4b;"/><path d="M143.081,264.368c1.228,-2.332 4.117,-3.229 6.449,-2.002c2.332,1.227 3.229,4.116 2.002,6.448c-1.227,2.332 -4.117,3.229 -6.449,2.002c-2.332,-1.227 -3.229,-4.116 -2.002,-6.448Z" style="fill:#363e4b;"/><path d="M95.53,239.345c1.227,-2.332 4.117,-3.229 6.449,-2.002c2.332,1.227 3.229,4.117 2.001,6.449c-1.227,2.332 -4.116,3.229 -6.448,2.002c-2.332,-1.227 -3.229,-4.117 -2.002,-6.449Z" style="fill:#363e4b;"/></g><g><path d="M139.73,202.911c2.454,-4.664 8.233,-6.458 12.897,-4.004c4.664,2.454 6.458,8.233 4.003,12.897c-2.454,4.664 -8.233,6.458 -12.897,4.004c-4.664,-2.454 -6.458,-8.233 -4.003,-12.897Z" style="fill:#363e4b;"/><path d="M164.379,156.068c2.454,-4.663 8.233,-6.457 12.897,-4.003c4.664,2.454 6.458,8.233 4.004,12.897c-2.455,4.664 -8.234,6.458 -12.898,4.004c-4.664,-2.455 -6.457,-8.234 -4.003,-12.898Z" style="fill:#363e4b;"/><path d="M175.824,191.893c2.454,-4.664 8.233,-6.458 12.897,-4.004c4.664,2.454 6.458,8.233 4.004,12.897c-2.454,4.664 -8.234,6.458 -12.897,4.004c-4.664,-2.454 -6.458,-8.233 -4.004,-12.897Z" style="fill:#363e4b;"/><path d="M128.272,166.87c2.455,-4.664 8.234,-6.458 12.898,-4.003c4.664,2.454 6.458,8.233 4.003,12.897c-2.454,4.664 -8.233,6.458 -12.897,4.004c-4.664,-2.455 -6.458,-8.234 -4.004,-12.898Z" style="fill:#363e4b;"/><path d="M156.323,181.631c1.227,-2.332 4.116,-3.229 6.448,-2.002c2.332,1.227 3.229,4.117 2.002,6.449c-1.227,2.332 -4.117,3.229 -6.449,2.001c-2.332,-1.227 -3.229,-4.116 -2.001,-6.448Z" style="fill:#363e4b;"/><path d="M192.33,170.777c1.228,-2.332 4.117,-3.229 6.449,-2.002c2.332,1.227 3.229,4.117 2.002,6.449c-1.227,2.332 -4.117,3.229 -6.449,2.002c-2.332,-1.227 -3.229,-4.117 -2.002,-6.449Z" style="fill:#363e4b;"/><path d="M144.779,145.755c1.227,-2.332 4.117,-3.229 6.449,-2.002c2.332,1.227 3.229,4.117 2.001,6.449c-1.227,2.331 -4.116,3.228 -6.448,2.001c-2.332,-1.227 -3.229,-4.116 -2.002,-6.448Z" style="fill:#363e4b;"/><path d="M167.681,217.619c1.227,-2.332 4.117,-3.229 6.449,-2.001c2.332,1.227 3.229,4.116 2.002,6.448c-1.227,2.332 -4.117,3.229 -6.449,2.002c-2.332,-1.227 -3.229,-4.117 -2.002,-6.449Z" style="fill:#363e4b;"/><path d="M120.13,192.597c1.227,-2.332 4.116,-3.229 6.448,-2.002c2.332,1.227 3.229,4.117 2.002,6.449c-1.227,2.332 -4.116,3.229 -6.448,2.002c-2.332,-1.228 -3.229,-4.117 -2.002,-6.449Z" style="fill:#363e4b;"/></g></g></g><g><g><g><path d="M211.758,181.47c2.454,-4.664 8.234,-6.458 12.897,-4.004c4.664,2.454 6.458,8.233 4.004,12.897c-2.454,4.664 -8.233,6.458 -12.897,4.004c-4.664,-2.454 -6.458,-8.233 -4.004,-12.897Z" style="fill:#363e4b;"/><path d="M236.407,134.628c2.455,-4.664 8.234,-6.458 12.898,-4.004c4.664,2.454 6.458,8.233 4.003,12.897c-2.454,4.664 -8.233,6.458 -12.897,4.004c-4.664,-2.454 -6.458,-8.233 -4.004,-12.897Z" style="fill:#363e4b;"/><path d="M247.853,170.452c2.454,-4.664 8.233,-6.458 12.897,-4.004c4.664,2.454 6.458,8.234 4.003,12.897c-2.454,4.664 -8.233,6.458 -12.897,4.004c-4.664,-2.454 -6.458,-8.233 -4.003,-12.897Z" style="fill:#363e4b;"/><path d="M200.301,145.429c2.454,-4.664 8.233,-6.457 12.897,-4.003c4.664,2.454 6.458,8.233 4.004,12.897c-2.454,4.664 -8.233,6.458 -12.897,4.004c-4.664,-2.455 -6.458,-8.234 -4.004,-12.898Z" style="fill:#363e4b;"/><path d="M228.351,160.19c1.227,-2.332 4.117,-3.229 6.449,-2.002c2.332,1.227 3.229,4.117 2.002,6.449c-1.227,2.332 -4.117,3.229 -6.449,2.002c-2.332,-1.228 -3.229,-4.117 -2.002,-6.449Z" style="fill:#363e4b;"/><path d="M264.359,149.336c1.227,-2.332 4.117,-3.229 6.449,-2.001c2.332,1.227 3.229,4.116 2.002,6.448c-1.227,2.332 -4.117,3.229 -6.449,2.002c-2.332,-1.227 -3.229,-4.117 -2.002,-6.449Z" style="fill:#363e4b;"/><path d="M216.808,124.314c1.227,-2.332 4.116,-3.229 6.448,-2.002c2.332,1.227 3.229,4.117 2.002,6.449c-1.227,2.332 -4.116,3.229 -6.448,2.002c-2.332,-1.228 -3.229,-4.117 -2.002,-6.449Z" style="fill:#363e4b;"/><path d="M239.71,196.179c1.227,-2.332 4.117,-3.229 6.449,-2.002c2.332,1.227 3.229,4.116 2.001,6.448c-1.227,2.332 -4.116,3.229 -6.448,2.002c-2.332,-1.227 -3.229,-4.116 -2.002,-6.448Z" style="fill:#363e4b;"/><path d="M192.159,171.156c1.227,-2.332 4.116,-3.229 6.448,-2.002c2.332,1.227 3.229,4.117 2.002,6.449c-1.227,2.332 -4.117,3.229 -6.449,2.002c-2.332,-1.227 -3.229,-4.117 -2.001,-6.449Z" style="fill:#363e4b;"/></g><g><path d="M236.358,134.722c2.454,-4.664 8.233,-6.458 12.897,-4.004c4.664,2.454 6.458,8.233 4.004,12.897c-2.454,4.664 -8.233,6.458 -12.897,4.004c-4.664,-2.454 -6.458,-8.233 -4.004,-12.897Z" style="fill:#363e4b;"/><path d="M261.007,87.879c2.455,-4.664 8.234,-6.457 12.898,-4.003c4.663,2.454 6.457,8.233 4.003,12.897c-2.454,4.664 -8.233,6.458 -12.897,4.004c-4.664,-2.455 -6.458,-8.234 -4.004,-12.898Z" style="fill:#363e4b;"/><path d="M272.452,123.704c2.455,-4.664 8.234,-6.458 12.898,-4.004c4.664,2.454 6.458,8.233 4.003,12.897c-2.454,4.664 -8.233,6.458 -12.897,4.004c-4.664,-2.454 -6.458,-8.233 -4.004,-12.897Z" style="fill:#363e4b;"/><path d="M224.901,98.681c2.454,-4.664 8.233,-6.458 12.897,-4.003c4.664,2.454 6.458,8.233 4.004,12.897c-2.454,4.664 -8.233,6.458 -12.897,4.003c-4.664,-2.454 -6.458,-8.233 -4.004,-12.897Z" style="fill:#363e4b;"/><path d="M252.951,113.442c1.227,-2.332 4.117,-3.229 6.449,-2.002c2.332,1.227 3.229,4.117 2.002,6.449c-1.228,2.332 -4.117,3.228 -6.449,2.001c-2.332,-1.227 -3.229,-4.116 -2.002,-6.448Z" style="fill:#363e4b;"/><path d="M288.959,102.588c1.227,-2.332 4.117,-3.229 6.449,-2.002c2.332,1.227 3.229,4.117 2.001,6.449c-1.227,2.332 -4.116,3.229 -6.448,2.002c-2.332,-1.227 -3.229,-4.117 -2.002,-6.449Z" style="fill:#363e4b;"/><path d="M241.408,77.566c1.227,-2.332 4.116,-3.229 6.448,-2.002c2.332,1.227 3.229,4.117 2.002,6.448c-1.227,2.332 -4.117,3.229 -6.449,2.002c-2.332,-1.227 -3.229,-4.116 -2.001,-6.448Z" style="fill:#363e4b;"/><path d="M264.31,149.43c1.227,-2.332 4.116,-3.229 6.448,-2.001c2.332,1.227 3.229,4.116 2.002,6.448c-1.227,2.332 -4.116,3.229 -6.448,2.002c-2.332,-1.227 -3.229,-4.117 -2.002,-6.449Z" style="fill:#363e4b;"/><path d="M216.758,124.408c1.227,-2.332 4.117,-3.229 6.449,-2.002c2.332,1.227 3.229,4.117 2.002,6.449c-1.227,2.332 -4.117,3.229 -6.449,2.002c-2.332,-1.228 -3.229,-4.117 -2.002,-6.449Z" style="fill:#363e4b;"/></g></g><g><g><path d="M164.185,156.436c2.455,-4.664 8.234,-6.458 12.898,-4.004c4.663,2.455 6.457,8.234 4.003,12.898c-2.454,4.664 -8.233,6.458 -12.897,4.003c-4.664,-2.454 -6.458,-8.233 -4.004,-12.897Z" style="fill:#363e4b;"/><path d="M188.835,109.594c2.454,-4.664 8.233,-6.458 12.897,-4.004c4.664,2.454 6.458,8.234 4.003,12.897c-2.454,4.664 -8.233,6.458 -12.897,4.004c-4.664,-2.454 -6.458,-8.233 -4.003,-12.897Z" style="fill:#363e4b;"/><path d="M200.28,145.418c2.454,-4.664 8.233,-6.458 12.897,-4.004c4.664,2.455 6.458,8.234 4.004,12.898c-2.455,4.664 -8.234,6.458 -12.898,4.003c-4.664,-2.454 -6.458,-8.233 -4.003,-12.897Z" style="fill:#363e4b;"/><path d="M152.728,120.396c2.455,-4.664 8.234,-6.458 12.897,-4.004c4.664,2.454 6.458,8.233 4.004,12.897c-2.454,4.664 -8.233,6.458 -12.897,4.004c-4.664,-2.454 -6.458,-8.233 -4.004,-12.897Z" style="fill:#363e4b;"/><path d="M180.778,135.156c1.228,-2.332 4.117,-3.229 6.449,-2.002c2.332,1.227 3.229,4.117 2.002,6.449c-1.227,2.332 -4.117,3.229 -6.449,2.002c-2.332,-1.227 -3.229,-4.117 -2.002,-6.449Z" style="fill:#363e4b;"/><path d="M216.786,124.303c1.227,-2.332 4.117,-3.229 6.449,-2.002c2.332,1.227 3.229,4.116 2.002,6.448c-1.227,2.332 -4.117,3.229 -6.449,2.002c-2.332,-1.227 -3.229,-4.116 -2.002,-6.448Z" style="fill:#363e4b;"/><path d="M169.235,99.28c1.227,-2.332 4.117,-3.229 6.448,-2.002c2.332,1.227 3.229,4.117 2.002,6.449c-1.227,2.332 -4.116,3.229 -6.448,2.002c-2.332,-1.227 -3.229,-4.117 -2.002,-6.449Z" style="fill:#363e4b;"/><path d="M192.137,171.145c1.227,-2.332 4.117,-3.229 6.449,-2.002c2.332,1.227 3.229,4.117 2.001,6.449c-1.227,2.332 -4.116,3.229 -6.448,2.001c-2.332,-1.227 -3.229,-4.116 -2.002,-6.448Z" style="fill:#363e4b;"/><path d="M144.586,146.122c1.227,-2.332 4.116,-3.229 6.448,-2.002c2.332,1.228 3.229,4.117 2.002,6.449c-1.227,2.332 -4.117,3.229 -6.449,2.002c-2.332,-1.227 -3.229,-4.117 -2.001,-6.449Z" style="fill:#363e4b;"/></g><g><path d="M188.785,109.688c2.454,-4.664 8.233,-6.458 12.897,-4.004c4.664,2.454 6.458,8.234 4.004,12.897c-2.454,4.664 -8.233,6.458 -12.897,4.004c-4.664,-2.454 -6.458,-8.233 -4.004,-12.897Z" style="fill:#363e4b;"/><path d="M213.434,62.846c2.455,-4.664 8.234,-6.458 12.898,-4.004c4.664,2.454 6.458,8.233 4.003,12.897c-2.454,4.664 -8.233,6.458 -12.897,4.004c-4.664,-2.454 -6.458,-8.233 -4.004,-12.897Z" style="fill:#363e4b;"/><path d="M224.879,98.67c2.455,-4.664 8.234,-6.458 12.898,-4.004c4.664,2.455 6.458,8.234 4.003,12.897c-2.454,4.664 -8.233,6.458 -12.897,4.004c-4.664,-2.454 -6.458,-8.233 -4.004,-12.897Z" style="fill:#363e4b;"/><path d="M177.328,73.647c2.454,-4.663 8.233,-6.457 12.897,-4.003c4.664,2.454 6.458,8.233 4.004,12.897c-2.454,4.664 -8.233,6.458 -12.897,4.004c-4.664,-2.455 -6.458,-8.234 -4.004,-12.898Z" style="fill:#363e4b;"/><path d="M205.378,88.408c1.227,-2.332 4.117,-3.229 6.449,-2.002c2.332,1.227 3.229,4.117 2.002,6.449c-1.227,2.332 -4.117,3.229 -6.449,2.002c-2.332,-1.228 -3.229,-4.117 -2.002,-6.449Z" style="fill:#363e4b;"/><path d="M241.386,77.554c1.227,-2.332 4.117,-3.229 6.449,-2.001c2.332,1.227 3.229,4.116 2.002,6.448c-1.228,2.332 -4.117,3.229 -6.449,2.002c-2.332,-1.227 -3.229,-4.117 -2.002,-6.449Z" style="fill:#363e4b;"/><path d="M193.835,52.532c1.227,-2.332 4.116,-3.229 6.448,-2.002c2.332,1.227 3.229,4.117 2.002,6.449c-1.227,2.332 -4.117,3.229 -6.449,2.002c-2.331,-1.228 -3.228,-4.117 -2.001,-6.449Z" style="fill:#363e4b;"/><path d="M216.737,124.397c1.227,-2.332 4.116,-3.229 6.448,-2.002c2.332,1.227 3.229,4.116 2.002,6.448c-1.227,2.332 -4.116,3.229 -6.448,2.002c-2.332,-1.227 -3.229,-4.116 -2.002,-6.448Z" style="fill:#363e4b;"/><path d="M169.185,99.374c1.228,-2.332 4.117,-3.229 6.449,-2.002c2.332,1.227 3.229,4.117 2.002,6.449c-1.227,2.332 -4.117,3.229 -6.449,2.002c-2.332,-1.227 -3.229,-4.117 -2.002,-6.449Z" style="fill:#363e4b;"/></g></g></g></g></g></svg>