<?xml version="1.0" encoding="UTF-8" standalone="no"?>
<!DOCTYPE svg PUBLIC "-//W3C//DTD SVG 1.1//EN" "http://www.w3.org/Graphics/SVG/1.1/DTD/svg11.dtd">
<svg width="100%" height="100%" viewBox="0 0 176 205" version="1.1" xmlns="http://www.w3.org/2000/svg" xmlns:xlink="http://www.w3.org/1999/xlink" xml:space="preserve" xmlns:serif="http://www.serif.com/" style="fill-rule:evenodd;clip-rule:evenodd;stroke-linejoin:round;stroke-miterlimit:2;">
    <g transform="matrix(1,0,0,1,-1140,-42)">
        <g transform="matrix(1,0,0,1,26.2129,230.891)">
            <g transform="matrix(2.73309,0,0,2.73309,-1717.85,-393.495)">
                <g transform="matrix(1.40893,0,0,1.40893,-444.291,-222.311)">
                    <path d="M1061.81,259.13L1070.42,262.144L1075.6,258.524L1082.88,253.04L1086.17,254.663L1086.25,250.947L1087.4,245.591L1093.06,240.426L1095.39,236.652L1091.99,229.959C1092.33,229.65 1091.28,227.382 1091.6,225.194C1092.15,221.438 1093.35,216.832 1088.08,214.924C1080.67,212.244 1077.63,214.716 1077,215.628C1076.37,216.539 1072.94,220.444 1071.38,221.049C1069.82,221.654 1064.8,220.562 1064.8,220.562C1064.8,220.562 1065.98,223.21 1065.54,225.536C1065.1,227.862 1062.22,230.941 1060.68,232.629C1059.14,234.318 1056.76,236.642 1057.2,238.931C1057.65,241.221 1062.39,250.215 1059.18,252.968C1055.96,255.722 1051.27,256.537 1051.27,256.537C1051.27,256.537 1059.31,251.25 1061.81,259.13Z" style="fill:rgb(66,142,118);"/>
                    <clipPath id="_clip1">
                        <path d="M1061.81,259.13L1070.42,262.144L1075.6,258.524L1082.88,253.04L1086.17,254.663L1086.25,250.947L1087.4,245.591L1093.06,240.426L1095.39,236.652L1091.99,229.959C1092.33,229.65 1091.28,227.382 1091.6,225.194C1092.15,221.438 1093.35,216.832 1088.08,214.924C1080.67,212.244 1077.63,214.716 1077,215.628C1076.37,216.539 1072.94,220.444 1071.38,221.049C1069.82,221.654 1064.8,220.562 1064.8,220.562C1064.8,220.562 1065.98,223.21 1065.54,225.536C1065.1,227.862 1062.22,230.941 1060.68,232.629C1059.14,234.318 1056.76,236.642 1057.2,238.931C1057.65,241.221 1062.39,250.215 1059.18,252.968C1055.96,255.722 1051.27,256.537 1051.27,256.537C1051.27,256.537 1059.31,251.25 1061.81,259.13Z"/>
                    </clipPath>
                    <g clip-path="url(#_clip1)">
                        <g transform="matrix(0.707107,0.707107,-0.260518,0.260518,404.623,-581.656)">
                            <path d="M1068.32,294.812C1067.38,293.301 1066.62,291.686 1066.04,290.027C1064.98,286.951 1064.48,283.616 1064.48,280.293C1064.48,273.082 1065.66,262.936 1065.66,255.121C1065.66,252.897 1064.96,251.04 1063.94,249.137C1062.48,246.392 1061.64,244.155 1058.97,242.372C1058.97,242.372 1058.97,242.372 1058.97,242.372L1059.81,233.145C1063.65,235.716 1065.25,239.368 1066.97,243.517C1068.46,247.102 1067.98,250.996 1067.98,254.992C1067.98,262.807 1067.98,273.082 1067.98,280.293C1067.98,281.869 1068.42,283.233 1069.04,284.644C1070.01,286.838 1071.44,288.774 1073.26,290.424L1073.22,299.465C1071.42,300.996 1069.99,302.828 1069.02,304.925C1068.41,306.222 1067.98,307.447 1067.98,308.909C1067.98,316.132 1067.98,326.562 1067.98,334.472C1067.98,338.467 1068.18,342.361 1066.69,345.947C1064.97,350.095 1063.62,354.09 1059.78,356.662L1058.94,347.434C1061.6,345.651 1062.19,343.072 1063.66,340.327C1064.68,338.423 1065.38,336.567 1065.38,334.343C1065.38,326.433 1064.48,316.132 1064.48,308.909C1064.48,305.637 1064.99,302.345 1066.08,299.336C1066.64,297.763 1067.4,296.236 1068.32,294.812Z" style="fill:rgb(33,120,92);"/>
                        </g>
                        <g transform="matrix(-0.707107,-0.707107,0.260518,-0.260518,1747.05,1056.59)">
                            <path d="M1068.32,294.812C1067.38,293.301 1066.62,291.686 1066.04,290.027C1064.98,286.951 1064.48,283.616 1064.48,280.293C1064.48,273.082 1065.69,262.95 1065.69,255.135C1065.69,252.911 1064.99,251.054 1063.97,249.151C1062.5,246.406 1061.66,244.169 1059,242.386C1059,242.386 1059,242.386 1059,242.386L1059.84,233.159C1063.68,235.73 1065.28,239.383 1067,243.531C1068.49,247.116 1069.19,251.139 1069.19,255.135C1069.19,262.95 1067.98,273.082 1067.98,280.293C1067.98,281.869 1068.42,283.233 1069.04,284.644C1070.01,286.838 1071.44,288.774 1073.26,290.424L1073.22,299.465C1071.42,300.996 1069.99,302.828 1069.02,304.925C1068.41,306.222 1067.98,307.447 1067.98,308.909C1067.98,316.132 1069.44,328.038 1069.44,335.948C1069.44,339.943 1068.73,343.966 1067.25,347.552C1065.52,351.7 1064.17,355.695 1060.33,358.267L1059.5,349.039C1062.16,347.256 1062.75,344.677 1064.22,341.932C1065.23,340.028 1065.94,338.172 1065.94,335.948C1065.94,328.038 1064.48,316.132 1064.48,308.909C1064.48,305.637 1064.99,302.345 1066.08,299.336C1066.64,297.763 1067.4,296.236 1068.32,294.812Z" style="fill:white;"/>
                        </g>
                    </g>
                </g>
                <g transform="matrix(1.40893,0,0,1.40893,-444.291,-222.311)">
                    <g transform="matrix(-0.707107,-0.707107,0.260518,-0.260518,1745.54,1054.97)">
                        <path d="M1068.32,294.812C1067.38,293.301 1066.62,291.686 1066.04,290.027C1064.98,286.951 1064.48,283.616 1064.48,280.293C1064.48,273.082 1064.48,262.807 1064.48,254.992C1064.48,252.768 1063.78,250.911 1062.76,249.008C1061.29,246.263 1059.15,243.931 1056.49,242.148C1056.49,242.148 1056.49,242.147 1056.49,242.147L1057.33,232.92C1057.33,232.92 1057.33,232.92 1057.33,232.92C1061.17,235.492 1064.07,239.24 1065.79,243.388C1067.28,246.973 1067.98,250.996 1067.98,254.992C1067.98,262.807 1067.98,273.082 1067.98,280.293C1067.98,281.869 1068.42,283.233 1069.04,284.644C1070.01,286.838 1071.44,288.774 1073.26,290.424C1073.26,290.424 1073.26,290.424 1073.26,290.424L1073.22,299.465C1073.22,299.465 1073.22,299.465 1073.22,299.465C1071.42,300.996 1069.99,302.828 1069.02,304.925C1068.41,306.222 1067.98,307.447 1067.98,308.909C1067.98,316.132 1067.98,326.562 1067.98,334.472C1067.98,338.467 1067.28,342.49 1065.79,346.076C1064.07,350.224 1061.17,353.972 1057.33,356.543C1057.33,356.543 1057.33,356.543 1057.33,356.543L1056.49,347.316C1056.49,347.316 1056.49,347.316 1056.49,347.316C1059.15,345.532 1061.29,343.201 1062.76,340.456C1063.78,338.552 1064.48,336.696 1064.48,334.472L1064.48,308.909C1064.48,305.637 1064.99,302.345 1066.08,299.336C1066.64,297.763 1067.4,296.236 1068.32,294.812Z" style="fill:rgb(54,62,75);"/>
                    </g>
                    <g transform="matrix(0.707107,0.707107,-0.260518,0.260518,406.148,-579.899)">
                        <path d="M1068.32,294.812C1067.38,293.301 1066.62,291.686 1066.04,290.027C1064.98,286.951 1064.48,283.616 1064.48,280.293C1064.48,273.082 1064.48,262.807 1064.48,254.992C1064.48,252.768 1063.78,250.911 1062.76,249.008C1061.29,246.263 1059.15,243.931 1056.49,242.148C1056.49,242.148 1056.49,242.147 1056.49,242.147L1057.33,232.92C1057.33,232.92 1057.33,232.92 1057.33,232.92C1061.17,235.492 1064.07,239.24 1065.79,243.388C1067.28,246.973 1067.98,250.996 1067.98,254.992C1067.98,262.807 1067.98,273.082 1067.98,280.293C1067.98,281.869 1068.42,283.233 1069.04,284.644C1070.01,286.838 1071.44,288.774 1073.26,290.424C1073.26,290.424 1073.26,290.424 1073.26,290.424L1073.22,299.465C1073.22,299.465 1073.22,299.465 1073.22,299.465C1071.42,300.996 1069.99,302.828 1069.02,304.925C1068.41,306.222 1067.98,307.447 1067.98,308.909C1067.98,316.132 1067.98,326.562 1067.98,334.472C1067.98,338.467 1067.28,342.49 1065.79,346.076C1064.07,350.224 1061.17,353.972 1057.33,356.543C1057.33,356.543 1057.33,356.543 1057.33,356.543L1056.49,347.316C1056.49,347.316 1056.49,347.316 1056.49,347.316C1059.15,345.532 1061.29,343.201 1062.76,340.456C1063.78,338.552 1064.48,336.696 1064.48,334.472L1064.48,308.909C1064.48,305.637 1064.99,302.345 1066.08,299.336C1066.64,297.763 1067.4,296.236 1068.32,294.812Z" style="fill:rgb(54,62,75);"/>
                    </g>
                    <g transform="matrix(0.259692,0,0,0.259692,754.645,200.014)">
                        <path d="M1234.49,139.448C1242.16,127.291 1258.3,105.326 1282.23,90.802L1286.49,97.812C1254.51,117.218 1237.32,150.732 1236.69,151.965C1236.12,153.179 1229.72,166.225 1211.52,182.28C1216.92,180.888 1223.05,179.065 1228.96,176.777C1236.46,173.874 1243.64,170.253 1248.31,165.708L1253.76,171.306C1248.44,176.489 1240.34,180.756 1231.78,184.065C1217.61,189.55 1202.25,192.483 1197.63,193.293C1184.21,202.886 1166.59,212.819 1143.68,221.488L1140.78,213.819C1203.44,190.106 1224.67,156.828 1228.6,149.749C1226.88,143.807 1221.77,123.455 1226.18,105.554L1234.14,107.517C1231.36,118.821 1232.83,131.207 1234.49,139.448Z" style="fill:rgb(54,62,75);"/>
                    </g>
                </g>
            </g>
        </g>
    </g>
</svg>
