<?xml version="1.0" encoding="UTF-8" standalone="no"?>
<!DOCTYPE svg PUBLIC "-//W3C//DTD SVG 1.1//EN" "http://www.w3.org/Graphics/SVG/1.1/DTD/svg11.dtd">
<svg width="100%" height="100%" viewBox="0 0 1000 1000" version="1.1" xmlns="http://www.w3.org/2000/svg" xmlns:xlink="http://www.w3.org/1999/xlink" xml:space="preserve" xmlns:serif="http://www.serif.com/" style="fill-rule:evenodd;clip-rule:evenodd;stroke-linejoin:round;stroke-miterlimit:2;">
    <g transform="matrix(1,0,0,1,-1970,-16.6396)">
        <g id="Artboard2" transform="matrix(0.520833,0,0,0.925926,943.958,16.6396)">
            <rect x="1970" y="0" width="1920" height="1080" style="fill:none;"/>
            <g transform="matrix(2.81077,0,0,1.58106,2056.66,-193.137)">
                <g>
                    <g id="top">
                        <g transform="matrix(-5.70521,0,0,-5.70521,4519.95,4943.55)">
                            <path d="M736.053,826.572C766.063,828.153 746.476,795.983 766.685,791.058L771.236,794.149L766.127,813.284L765.291,830.562L751.451,837.993L740.314,836.507L733.988,828.147L736.053,826.572Z" style="fill:url(#_Linear1);"/>
                        </g>
                        <g transform="matrix(-6.6499,-8.14378e-16,8.14378e-16,-6.6499,5345.49,4879.02)">
                            <path d="M745.36,691.682C747.256,693.105 749.608,693.903 752.016,693.918L752.016,693.918C754.134,693.918 756.164,694.759 757.662,696.256C759.159,697.754 760,699.784 760,701.902L760,704L752,704C748.626,703.979 745.345,703.058 742.417,701.458L745.36,691.682Z" style="fill:rgb(116,24,68);"/>
                            <clipPath id="_clip2">
                                <path d="M745.36,691.682C747.256,693.105 749.608,693.903 752.016,693.918L752.016,693.918C754.134,693.918 756.164,694.759 757.662,696.256C759.159,697.754 760,699.784 760,701.902L760,704L752,704C748.626,703.979 745.345,703.058 742.417,701.458L745.36,691.682Z"/>
                            </clipPath>
                            <g clip-path="url(#_clip2)">
                                <g transform="matrix(0.150378,0,0,0.150378,712.611,557.376)">
                                    <path d="M189.086,530.915L189.086,435.137C189.086,414.981 198.807,396.062 215.193,384.324C226.899,375.963 241.352,367.469 256,363.447C289.981,354.116 376.911,367.867 376.911,367.867L433.881,412.068L394.591,484.264L287.035,544.672L189.086,530.915Z" style="fill:url(#_Linear3);"/>
                                </g>
                            </g>
                        </g>
                        <g transform="matrix(6.6499,2.22045e-16,-2.22045e-16,6.6499,-4736.49,-3951.61)">
                            <path d="M733.284,692.116C731.888,689.403 731.062,686.371 731.002,683.188C730.976,679.173 731.073,675.156 730.998,671.142C730.945,669.424 729.37,667.359 729.37,667.359L720.929,658.918C723.779,656.068 726.681,653.269 729.477,650.367C730.425,649.359 730.974,648.008 730.999,646.626C731.04,640.175 730.201,633.581 732.188,627.938C735.046,619.826 743.217,613.974 751.982,613.918L760,613.918L760.074,613.93C766.366,614.954 768.195,619.159 767.959,624.37L765.031,624L760,624C754.242,624 747.982,623.379 744.221,627.14C737.358,634.001 745.144,648.733 736.463,657.526L735.071,658.918C737.842,661.688 739.561,664.208 740.395,667.014L733.284,692.116Z" style="fill:rgb(116,24,68);"/>
                            <clipPath id="_clip4">
                                <path d="M733.284,692.116C731.888,689.403 731.062,686.371 731.002,683.188C730.976,679.173 731.073,675.156 730.998,671.142C730.945,669.424 729.37,667.359 729.37,667.359L720.929,658.918C723.779,656.068 726.681,653.269 729.477,650.367C730.425,649.359 730.974,648.008 730.999,646.626C731.04,640.175 730.201,633.581 732.188,627.938C735.046,619.826 743.217,613.974 751.982,613.918L760,613.918L760.074,613.93C766.366,614.954 768.195,619.159 767.959,624.37L765.031,624L760,624C754.242,624 747.982,623.379 744.221,627.14C737.358,634.001 745.144,648.733 736.463,657.526L735.071,658.918C737.842,661.688 739.561,664.208 740.395,667.014L733.284,692.116Z"/>
                            </clipPath>
                            <g clip-path="url(#_clip4)">
                                <g transform="matrix(0.150378,0,0,0.150378,712.611,557.376)">
                                    <path d="M189.086,530.915L189.086,435.137C189.086,414.981 198.807,396.062 215.193,384.324C226.899,375.963 241.352,367.469 256,363.447C289.981,354.116 376.911,367.867 376.911,367.867L433.881,412.068L394.591,484.264L287.035,544.672L189.086,530.915Z" style="fill:url(#_Linear5);"/>
                                </g>
                            </g>
                        </g>
                    </g>
                    <g id="bottom">
                        <g transform="matrix(5.70521,6.98687e-16,-6.98687e-16,5.70521,-3898.11,-4016.14)">
                            <path d="M736.053,826.572C762.11,831.289 739.767,807.253 761.485,798.258L771.236,794.149C766.224,800.528 764.422,806.906 766.127,813.284L765.291,830.562L751.451,837.993L740.314,836.507L733.988,828.147L736.053,826.572Z" style="fill:rgb(243,179,26);"/>
                        </g>
                        <g transform="matrix(-6.6499,-8.14378e-16,8.14378e-16,-6.6499,5345.49,4879.02)">
                            <path d="M731.02,673.427L730.998,671.142C730.945,669.424 729.37,667.359 729.37,667.359L720.929,658.918C723.779,656.068 726.681,653.269 729.477,650.367C730.425,649.359 730.974,648.008 730.999,646.626C731.04,640.175 730.201,633.581 732.188,627.938C735.045,619.829 743.21,613.979 751.982,613.918L760,613.918L760.074,613.93C766.366,614.954 766.471,618.977 766.235,624.189L765.031,624L760,624C754.242,624 747.982,623.379 744.221,627.14C738.849,632.51 742.452,642.703 740.107,651.096L736.841,652.88L735.154,658.835L735.071,658.918L735.117,658.965L731.02,673.427Z" style="fill:rgb(116,24,68);"/>
                            <clipPath id="_clip6">
                                <path d="M731.02,673.427L730.998,671.142C730.945,669.424 729.37,667.359 729.37,667.359L720.929,658.918C723.779,656.068 726.681,653.269 729.477,650.367C730.425,649.359 730.974,648.008 730.999,646.626C731.04,640.175 730.201,633.581 732.188,627.938C735.045,619.829 743.21,613.979 751.982,613.918L760,613.918L760.074,613.93C766.366,614.954 766.471,618.977 766.235,624.189L765.031,624L760,624C754.242,624 747.982,623.379 744.221,627.14C738.849,632.51 742.452,642.703 740.107,651.096L736.841,652.88L735.154,658.835L735.071,658.918L735.117,658.965L731.02,673.427Z"/>
                            </clipPath>
                            <g clip-path="url(#_clip6)">
                                <g transform="matrix(0.150378,0,0,0.150378,712.611,557.376)">
                                    <path d="M189.086,530.915L189.086,435.137C189.086,414.981 198.807,396.062 215.193,384.324C226.899,375.963 241.352,367.469 256,363.447C289.981,354.116 376.911,367.867 376.911,367.867L433.881,412.068L394.591,484.264L287.035,544.672L189.086,530.915Z" style="fill:url(#_Linear7);"/>
                                </g>
                            </g>
                        </g>
                        <g transform="matrix(6.6499,2.22045e-16,-2.22045e-16,6.6499,-4736.49,-3951.61)">
                            <path d="M752.606,693.947C754.505,694.079 756.303,694.898 757.662,696.256C759.159,697.754 760,699.784 760,701.902L760,704L752,704C751.261,703.995 750.601,703.863 749.874,703.771L752.606,693.947Z" style="fill:rgb(116,24,68);"/>
                            <clipPath id="_clip8">
                                <path d="M752.606,693.947C754.505,694.079 756.303,694.898 757.662,696.256C759.159,697.754 760,699.784 760,701.902L760,704L752,704C751.261,703.995 750.601,703.863 749.874,703.771L752.606,693.947Z"/>
                            </clipPath>
                            <g clip-path="url(#_clip8)">
                                <g transform="matrix(0.150378,0,0,0.150378,712.611,557.376)">
                                    <path d="M189.086,530.915L189.086,435.137C189.086,414.981 198.807,396.062 215.193,384.324C226.899,375.963 241.352,367.469 256,363.447C289.981,354.116 376.911,367.867 376.911,367.867L433.881,412.068L394.591,484.264L287.035,544.672L189.086,530.915Z" style="fill:url(#_Linear9);"/>
                                </g>
                            </g>
                        </g>
                    </g>
                    <g id="sign" transform="matrix(6.61672,1.33227e-15,-1.33227e-15,6.25841,-4570.57,-4456.83)">
                        <path d="M755.622,745.316L745.676,780.241L738.921,768.541L725.343,776.38L709.238,836.485L726.191,826.697L735.446,792.158L742.236,803.919L748.943,800.047L755.814,796.08L771.922,735.963C766.489,739.081 761.056,742.198 755.622,745.316Z" style="fill:rgb(243,179,26);"/>
                    </g>
                </g>
            </g>
        </g>
    </g>
    <defs>
        <linearGradient id="_Linear1" x1="0" y1="0" x2="1" y2="0" gradientUnits="userSpaceOnUse" gradientTransform="matrix(5.93266,4.10723,-4.10723,5.93266,754.18,824.089)"><stop offset="0" style="stop-color:rgb(243,179,26);stop-opacity:1"/><stop offset="1" style="stop-color:rgb(250,213,143);stop-opacity:1"/></linearGradient>
        <linearGradient id="_Linear3" x1="0" y1="0" x2="1" y2="0" gradientUnits="userSpaceOnUse" gradientTransform="matrix(-139.482,19.4782,-19.4782,-139.482,331.847,405.578)"><stop offset="0" style="stop-color:rgb(116,24,68);stop-opacity:1"/><stop offset="1" style="stop-color:rgb(85,3,76);stop-opacity:1"/></linearGradient>
        <linearGradient id="_Linear5" x1="0" y1="0" x2="1" y2="0" gradientUnits="userSpaceOnUse" gradientTransform="matrix(-90.4481,1.40968e-14,-1.40968e-14,-90.4481,302.202,412.664)"><stop offset="0" style="stop-color:rgb(116,24,68);stop-opacity:1"/><stop offset="1" style="stop-color:rgb(85,3,76);stop-opacity:1"/></linearGradient>
        <linearGradient id="_Linear7" x1="0" y1="0" x2="1" y2="0" gradientUnits="userSpaceOnUse" gradientTransform="matrix(-109.304,1.33859e-14,-1.33859e-14,-109.304,292.919,424.257)"><stop offset="0" style="stop-color:rgb(116,24,68);stop-opacity:1"/><stop offset="1" style="stop-color:rgb(85,3,76);stop-opacity:1"/></linearGradient>
        <linearGradient id="_Linear9" x1="0" y1="0" x2="1" y2="0" gradientUnits="userSpaceOnUse" gradientTransform="matrix(-139.482,19.4782,-19.4782,-139.482,331.847,405.578)"><stop offset="0" style="stop-color:rgb(116,24,68);stop-opacity:1"/><stop offset="1" style="stop-color:rgb(85,3,76);stop-opacity:1"/></linearGradient>
    </defs>
</svg>
