<?xml version="1.0" encoding="UTF-8" standalone="no"?><!DOCTYPE svg PUBLIC "-//W3C//DTD SVG 1.1//EN" "http://www.w3.org/Graphics/SVG/1.1/DTD/svg11.dtd"><svg width="100%" height="100%" viewBox="0 0 4167 4167" version="1.1" xmlns="http://www.w3.org/2000/svg" xmlns:xlink="http://www.w3.org/1999/xlink" xml:space="preserve" xmlns:serif="http://www.serif.com/" style="fill-rule:evenodd;clip-rule:evenodd;stroke-linejoin:round;stroke-miterlimit:2;"><rect id="Artboard2" x="0" y="0" width="4166.67" height="4166.67" style="fill:none;"/><g><g id="top"><path d="M2608.8,936.171c-78.449,-58.88 -175.807,-91.897 -275.479,-92.53l-0.006,0c-87.649,-0.001 -171.704,-34.819 -233.679,-96.793c-61.975,-61.976 -96.793,-146.033 -96.792,-233.679l0,-86.845l331.133,0c139.671,0.887 275.446,38.979 396.659,105.222l-121.836,404.625Z" style="fill:#f3b31a;"/><clipPath id="_clip1"><path d="M2608.8,936.171c-78.449,-58.88 -175.807,-91.897 -275.479,-92.53l-0.006,0c-87.649,-0.001 -171.704,-34.819 -233.679,-96.793c-61.975,-61.976 -96.793,-146.033 -96.792,-233.679l0,-86.845l331.133,0c139.671,0.887 275.446,38.979 396.659,105.222l-121.836,404.625Z"/></clipPath><g clip-path="url(#_clip1)"><path d="M2787.41,3190.72c0,0 0,371.055 0,600.143c0,122.481 -58.843,237.504 -158.166,309.174c-73.607,53.044 -165.338,107.535 -258.332,133.072c-211.515,58.082 -752.598,-27.513 -752.598,-27.513l-354.607,-275.127l244.557,-449.374l669.475,-376.007l609.671,85.632Z" style="fill:url(#_Linear2);"/></g><path d="M1057.99,3248.46c-57.776,-112.305 -91.942,-237.798 -94.459,-369.546c-1.055,-166.205 2.961,-332.452 -0.141,-498.627c-2.214,-71.085 -67.41,-156.595 -67.41,-156.595l-349.375,-349.371c117.959,-117.96 238.08,-233.798 353.824,-353.932c39.23,-41.727 61.946,-97.659 63.014,-154.864c1.659,-267.007 -33.051,-539.931 49.213,-773.499c118.273,-335.803 456.507,-578.03 819.295,-580.334l331.873,0l3.072,0.494c260.411,42.39 336.131,216.427 326.369,432.145l-121.183,-15.322l-208.258,0c-238.314,0 -497.431,-25.698 -653.125,129.952c-284.07,283.99 38.212,893.776 -321.096,1257.73l-57.629,57.63c114.673,114.672 185.842,218.965 220.361,335.119l-294.345,1039.02Z" style="fill:#f3b31a;"/><clipPath id="_clip3"><path d="M1057.99,3248.46c-57.776,-112.305 -91.942,-237.798 -94.459,-369.546c-1.055,-166.205 2.961,-332.452 -0.141,-498.627c-2.214,-71.085 -67.41,-156.595 -67.41,-156.595l-349.375,-349.371c117.959,-117.96 238.08,-233.798 353.824,-353.932c39.23,-41.727 61.946,-97.659 63.014,-154.864c1.659,-267.007 -33.051,-539.931 49.213,-773.499c118.273,-335.803 456.507,-578.03 819.295,-580.334l331.873,0l3.072,0.494c260.411,42.39 336.131,216.427 326.369,432.145l-121.183,-15.322l-208.258,0c-238.314,0 -497.431,-25.698 -653.125,129.952c-284.07,283.99 38.212,893.776 -321.096,1257.73l-57.629,57.63c114.673,114.672 185.842,218.965 220.361,335.119l-294.345,1039.02Z"/></clipPath><g clip-path="url(#_clip3)"><path d="M1379.26,975.941c0,0 0,-371.054 0,-600.143c0,-122.48 58.843,-237.504 158.166,-309.173c73.606,-53.045 165.338,-107.536 258.332,-133.072c211.514,-58.082 752.597,27.513 752.597,27.513l354.608,275.127l-244.557,449.374l-669.475,376.006l-609.671,-85.632Z" style="fill:url(#_Linear4);"/></g></g><g id="bottom"><path d="M3202.38,1691.79l0.898,94.594c2.214,71.085 67.409,156.595 67.409,156.595l349.376,349.371c-117.959,117.959 -238.08,233.798 -353.824,353.931c-39.231,41.728 -61.947,97.659 -63.014,154.864c-1.659,267.007 33.051,539.932 -49.214,773.5c-118.22,335.653 -456.205,577.814 -819.294,580.333l-331.873,0l-3.072,-0.493c-260.411,-42.39 -264.776,-208.931 -255.013,-424.649l49.826,7.826l208.259,0c238.314,0 497.43,25.698 653.124,-129.952c222.355,-222.292 73.204,-644.196 170.29,-991.608l135.187,-73.824l69.835,-246.512l3.414,-3.414l-1.895,-1.948l169.581,-598.614Z" style="fill:#f3b31a;"/><clipPath id="_clip5"><path d="M3202.38,1691.79l0.898,94.594c2.214,71.085 67.409,156.595 67.409,156.595l349.376,349.371c-117.959,117.959 -238.08,233.798 -353.824,353.931c-39.231,41.728 -61.947,97.659 -63.014,154.864c-1.659,267.007 33.051,539.932 -49.214,773.5c-118.22,335.653 -456.205,577.814 -819.294,580.333l-331.873,0l-3.072,-0.493c-260.411,-42.39 -264.776,-208.931 -255.013,-424.649l49.826,7.826l208.259,0c238.314,0 497.43,25.698 653.124,-129.952c222.355,-222.292 73.204,-644.196 170.29,-991.608l135.187,-73.824l69.835,-246.512l3.414,-3.414l-1.895,-1.948l169.581,-598.614Z"/></clipPath><g clip-path="url(#_clip5)"><path d="M2787.41,3190.72c0,0 0,371.055 0,600.143c0,122.481 -58.843,237.504 -158.166,309.174c-73.607,53.044 -165.338,107.535 -258.332,133.072c-211.515,58.082 -752.598,-27.513 -752.598,-27.513l-354.607,-275.127l244.557,-449.374l669.475,-376.007l609.671,85.632Z" style="fill:url(#_Linear6);"/></g><path d="M1857.76,3324.23c78.634,5.481 153.041,39.355 209.271,95.585c61.975,61.976 96.792,146.032 96.792,233.679l0,86.844l-331.134,0c-30.605,-0.194 -57.913,-5.674 -87.998,-9.498l113.069,-406.61Z" style="fill:#f3b31a;"/><clipPath id="_clip7"><path d="M1857.76,3324.23c78.634,5.481 153.041,39.355 209.271,95.585c61.975,61.976 96.792,146.032 96.792,233.679l0,86.844l-331.134,0c-30.605,-0.194 -57.913,-5.674 -87.998,-9.498l113.069,-406.61Z"/></clipPath><g clip-path="url(#_clip7)"><path d="M1379.26,975.941c0,0 0,-371.054 0,-600.143c0,-122.48 58.843,-237.504 158.166,-309.173c73.606,-53.045 165.338,-107.536 258.332,-133.072c211.514,-58.082 752.597,27.513 752.597,27.513l354.608,275.127l-244.557,449.374l-669.475,376.006l-609.671,-85.632Z" style="fill:url(#_Linear8);"/></g></g><path id="sign" d="M2859.33,489.595l-409.661,1360.51l-278.208,-455.777l-559.212,305.378l-663.287,2341.37l698.228,-381.292l381.159,-1345.47l279.663,458.16l276.232,-150.846l282.98,-154.531l663.418,-2341.83c-223.77,121.443 -447.541,242.887 -671.312,364.33Z" style="fill:#f3b31a;"/></g><defs><linearGradient id="_Linear2" x1="0" y1="0" x2="1" y2="0" gradientUnits="userSpaceOnUse" gradientTransform="matrix(868.193,-121.24,121.24,868.193,1898.81,3970.87)"><stop offset="0" style="stop-color:#741844;stop-opacity:1"/><stop offset="1" style="stop-color:#55034c;stop-opacity:1"/></linearGradient><linearGradient id="_Linear4" x1="0" y1="0" x2="1" y2="0" gradientUnits="userSpaceOnUse" gradientTransform="matrix(-576.345,-140.331,140.331,-576.345,2126.87,350.948)"><stop offset="0" style="stop-color:#f3b31a;stop-opacity:1"/><stop offset="1" style="stop-color:#c99124;stop-opacity:1"/></linearGradient><linearGradient id="_Linear6" x1="0" y1="0" x2="1" y2="0" gradientUnits="userSpaceOnUse" gradientTransform="matrix(596.097,193.882,-193.882,596.097,2099.31,3753.65)"><stop offset="0" style="stop-color:#f3b31a;stop-opacity:1"/><stop offset="1" style="stop-color:#c9912b;stop-opacity:1"/></linearGradient><linearGradient id="_Linear8" x1="0" y1="0" x2="1" y2="0" gradientUnits="userSpaceOnUse" gradientTransform="matrix(-868.193,121.24,-121.24,-868.193,2267.86,195.794)"><stop offset="0" style="stop-color:#741844;stop-opacity:1"/><stop offset="1" style="stop-color:#55034c;stop-opacity:1"/></linearGradient></defs></svg>